KarnataWesleyanMissionPress.ufo
<glyph name="exclam" format="2">
  <advance width="250"/>
  <unicode hex="0021"/>
  <outline>
    <component base="period" xOffset="10" yOffset="-20"/>
    <contour>
      <point x="129.847" y="775.233" type="curve" smooth="yes"/>
      <point x="221.122" y="778.552"/>
      <point x="211.165" y="703.873"/>
      <point x="207.846" y="637.491" type="curve" smooth="yes"/>
      <point x="199.548" y="484.814"/>
      <point x="141.464" y="373.625"/>
      <point x="141.464" y="179.46" type="curve" smooth="yes"/>
      <point x="141.464" y="154.567"/>
      <point x="104.954" y="154.567"/>
      <point x="106.614" y="179.46" type="curve" smooth="yes"/>
      <point x="118.231" y="373.625"/>
      <point x="50.1898" y="476.516"/>
      <point x="50.1898" y="637.491" type="curve" smooth="yes"/>
      <point x="50.1898" y="722.127"/>
      <point x="55.1684" y="771.914"/>
    </contour>
  </outline>
</glyph>
<glyph name="ampersand" format="2">
  <advance width="869"/>
  <unicode hex="0026"/>
  <outline>
    <contour>
      <point x="468.947" y="85.425" type="curve" smooth="yes"/>
      <point x="461.08" y="94.1524"/>
      <point x="453.691" y="94.149"/>
      <point x="445.448" y="85.414" type="curve" smooth="yes"/>
      <point x="404.074" y="41.5758"/>
      <point x="346.66" y="9.79289"/>
      <point x="286.356" y="9.79289" type="curve" smooth="yes"/>
      <point x="150.386" y="9.79289"/>
      <point x="40.5633" y="84.751"/>
      <point x="40.5633" y="231.181" type="curve" smooth="yes"/>
      <point x="40.5633" y="386.831"/>
      <point x="199.964" y="501.608"/>
      <point x="251.382" y="539.381" type="curve" smooth="yes"/>
      <point x="260.612" y="546.162"/>
      <point x="262.739" y="554.888"/>
      <point x="257.932" y="566.252" type="curve" smooth="yes"/>
      <point x="208.289" y="683.63"/>
      <point x="233.358" y="874.426"/>
      <point x="366.544" y="874.426" type="curve" smooth="yes"/>
      <point x="438.016" y="874.426"/>
      <point x="509.487" y="822.13"/>
      <point x="509.487" y="747.172" type="curve" smooth="yes"/>
      <point x="509.487" y="641.331"/>
      <point x="462.337" y="605.456"/>
      <point x="392.188" y="562.827" type="curve" smooth="yes"/>
      <point x="382.017" y="556.646"/>
      <point x="379.483" y="548.351"/>
      <point x="384.482" y="537.6" type="curve" smooth="yes"/>
      <point x="427.123" y="445.907"/>
      <point x="473.52" y="345.301"/>
      <point x="516.149" y="250.831" type="curve" smooth="yes"/>
      <point x="521.036" y="240.002"/>
      <point x="527.044" y="239.274"/>
      <point x="534.367" y="248.624" type="curve" smooth="yes"/>
      <point x="577.02" y="303.087"/>
      <point x="631.512" y="374.672"/>
      <point x="631.512" y="440.366" type="curve" smooth="yes"/>
      <point x="631.512" y="496.149"/>
      <point x="589.675" y="515.324"/>
      <point x="546.095" y="515.324" type="curve" smooth="yes"/>
      <point x="532.149" y="515.324"/>
      <point x="532.149" y="537.986"/>
      <point x="546.095" y="537.986" type="curve" smooth="yes"/>
      <point x="816.293" y="537.986" type="line" smooth="yes"/>
      <point x="831.981" y="537.986"/>
      <point x="831.981" y="515.324"/>
      <point x="816.293" y="515.324" type="curve" smooth="yes"/>
      <point x="763.996" y="515.324" type="line" smooth="yes"/>
      <point x="716.93" y="515.324"/>
      <point x="687.295" y="436.88"/>
      <point x="669.863" y="407.245" type="curve" smooth="yes"/>
      <point x="653.454" y="379.35"/>
      <point x="604.608" y="286.581"/>
      <point x="543.681" y="213.268" type="curve" smooth="yes"/>
      <point x="536.017" y="204.046"/>
      <point x="533.834" y="194.085"/>
      <point x="536.994" y="182.75" type="curve" smooth="yes"/>
      <point x="550.148" y="135.565"/>
      <point x="568.081" y="71.7614"/>
      <point x="617.566" y="65.5757" type="curve" smooth="yes"/>
      <point x="689.038" y="56.8596"/>
      <point x="727.389" y="177.141"/>
      <point x="743.078" y="225.951" type="curve" smooth="yes"/>
      <point x="753.537" y="259.072"/>
      <point x="777.942" y="267.788"/>
      <point x="777.942" y="227.694" type="curve" smooth="yes"/>
      <point x="777.942" y="131.818"/>
      <point x="697.754" y="9.79289"/>
      <point x="598.391" y="9.79289" type="curve" smooth="yes"/>
      <point x="543.776" y="9.79289"/>
      <point x="503.129" y="47.5074"/>
    </contour>
    <contour>
      <point x="312.504" y="712.307" type="curve" smooth="yes"/>
      <point x="321.22" y="654.781"/>
      <point x="352.598" y="602.485"/>
      <point x="371.774" y="614.687" type="curve" smooth="yes"/>
      <point x="431.043" y="653.038"/>
      <point x="455.448" y="703.591"/>
      <point x="446.732" y="768.09" type="curve" smooth="yes"/>
      <point x="441.502" y="809.927"/>
      <point x="413.611" y="827.359"/>
      <point x="371.774" y="827.359" type="curve" smooth="yes"/>
      <point x="321.22" y="827.359"/>
      <point x="303.788" y="771.577"/>
    </contour>
    <contour>
      <point x="423.905" y="126.932" type="curve" smooth="yes"/>
      <point x="430.357" y="135.547"/>
      <point x="430.98" y="146.374"/>
      <point x="425.726" y="158.543" type="curve" smooth="yes"/>
      <point x="395.293" y="229.022"/>
      <point x="315.357" y="417.365"/>
      <point x="287.751" y="484.933" type="curve" smooth="yes"/>
      <point x="283.08" y="496.365"/>
      <point x="275.035" y="499.411"/>
      <point x="265.272" y="493.443" type="curve" smooth="yes"/>
      <point x="209.77" y="459.517"/>
      <point x="149.467" y="361.944"/>
      <point x="139.926" y="307.882" type="curve" smooth="yes"/>
      <point x="117.265" y="184.114"/>
      <point x="178.277" y="51.63"/>
      <point x="291.586" y="51.63" type="curve" smooth="yes"/>
      <point x="326.687" y="51.63"/>
      <point x="396.529" y="90.3779"/>
    </contour>
  </outline>
</glyph>
<glyph name="asterisk" format="2">
  <advance width="560"/>
  <unicode hex="002A"/>
  <outline>
    <contour>
      <point x="153.452" y="665.417" type="curve" smooth="yes"/>
      <point x="227.54" y="717.437"/>
      <point x="279.559" y="540.886"/>
      <point x="279.559" y="492.019" type="curve"/>
      <point x="304.781" y="531.428"/>
      <point x="282.712" y="731.624"/>
      <point x="386.751" y="682.757" type="curve" smooth="yes"/>
      <point x="481.331" y="638.619"/>
      <point x="331.579" y="537.733"/>
      <point x="331.579" y="476.256" type="curve"/>
      <point x="377.292" y="490.443"/>
      <point x="481.331" y="638.619"/>
      <point x="525.469" y="559.802" type="curve" smooth="yes"/>
      <point x="569.606" y="479.409"/>
      <point x="426.159" y="428.966"/>
      <point x="369.411" y="419.508" type="curve"/>
      <point x="438.77" y="419.508"/>
      <point x="569.606" y="428.966"/>
      <point x="533.351" y="329.656" type="curve" smooth="yes"/>
      <point x="498.671" y="235.075"/>
      <point x="377.292" y="358.03"/>
      <point x="331.579" y="362.759" type="curve"/>
      <point x="345.766" y="326.503"/>
      <point x="475.026" y="236.652"/>
      <point x="396.209" y="189.361" type="curve" smooth="yes"/>
      <point x="304.781" y="134.189"/>
      <point x="279.559" y="306.011"/>
      <point x="279.559" y="351.725" type="curve"/>
      <point x="285.865" y="309.163"/>
      <point x="279.559" y="134.189"/>
      <point x="181.826" y="159.411" type="curve" smooth="yes"/>
      <point x="104.585" y="178.327"/>
      <point x="188.131" y="318.622"/>
      <point x="219.658" y="362.759" type="curve"/>
      <point x="188.131" y="312.316"/>
      <point x="60.4473" y="250.839"/>
      <point x="28.9204" y="302.858" type="curve" smooth="yes"/>
      <point x="-12.0645" y="372.217"/>
      <point x="147.146" y="408.473"/>
      <point x="181.826" y="419.508" type="curve"/>
      <point x="87.2452" y="457.34"/>
      <point x="-15.2172" y="469.951"/>
      <point x="32.0731" y="551.92" type="curve" smooth="yes"/>
      <point x="60.4473" y="599.211"/>
      <point x="162.91" y="533.004"/>
      <point x="219.658" y="476.256" type="curve"/>
      <point x="207.047" y="545.615"/>
      <point x="77.7871" y="613.398"/>
    </contour>
  </outline>
  <guideline angle="0" x="0" y="476"/>
</glyph>
<glyph name="comma" format="2">
  <advance width="208"/>
  <unicode hex="002C"/>
  <outline>
    <component base="period" xOffset="15"/>
    <contour>
      <point x="92" y="49" type="curve" smooth="yes"/>
      <point x="113" y="39"/>
      <point x="215" y="1"/>
      <point x="63" y="-66" type="curve" smooth="yes"/>
      <point x="31" y="-80"/>
      <point x="34" y="-125"/>
      <point x="69" y="-115" type="curve" smooth="yes"/>
      <point x="165" y="-87"/>
      <point x="227" y="-13"/>
      <point x="202" y="85" type="curve" smooth="yes"/>
      <point x="169" y="212"/>
      <point x="67" y="62"/>
    </contour>
  </outline>
</glyph>
<glyph name="period" format="2">
  <advance width="187"/>
  <unicode hex="002E"/>
  <outline>
    <contour>
      <point x="40" y="80" type="curve" smooth="yes"/>
      <point x="40" y="39"/>
      <point x="73" y="6"/>
      <point x="114" y="6" type="curve" smooth="yes"/>
      <point x="154" y="6"/>
      <point x="187" y="39"/>
      <point x="187" y="80" type="curve" smooth="yes"/>
      <point x="187" y="121"/>
      <point x="154" y="154"/>
      <point x="114" y="154" type="curve" smooth="yes"/>
      <point x="73" y="154"/>
      <point x="40" y="121"/>
    </contour>
  </outline>
</glyph>
<glyph name="zero" format="2">
  <advance width="542"/>
  <unicode hex="0030"/>
  <outline>
    <contour>
      <point x="274.131" y="684.518" type="curve" smooth="yes"/>
      <point x="437.301" y="684.518"/>
      <point x="501.627" y="458.591"/>
      <point x="501.627" y="347.196" type="curve" smooth="yes"/>
      <point x="501.627" y="188.734"/>
      <point x="437.301" y="0.461126"/>
      <point x="274.131" y="0.461126" type="curve" smooth="yes"/>
      <point x="96.8415" y="0.461126"/>
      <point x="40.3597" y="188.734"/>
      <point x="40.3597" y="347.196" type="curve" smooth="yes"/>
      <point x="40.3597" y="458.591"/>
      <point x="96.8415" y="684.518"/>
    </contour>
    <contour>
      <point x="140.772" y="347.196" type="curve" smooth="yes"/>
      <point x="140.772" y="317.387"/>
      <point x="140.772" y="33.4088"/>
      <point x="274.131" y="33.4088" type="curve" smooth="yes"/>
      <point x="394.94" y="33.4088"/>
      <point x="409.06" y="304.835"/>
      <point x="409.06" y="347.196" type="curve" smooth="yes"/>
      <point x="409.06" y="398.971"/>
      <point x="394.94" y="651.57"/>
      <point x="274.131" y="651.57" type="curve" smooth="yes"/>
      <point x="139.203" y="651.57"/>
      <point x="140.772" y="387.989"/>
    </contour>
  </outline>
</glyph>
<glyph name="one" format="2">
  <advance width="381"/>
  <unicode hex="0031"/>
  <outline>
    <contour>
      <point x="109.983" y="682.579" type="curve" smooth="yes"/>
      <point x="113.736" y="682.579"/>
      <point x="119.364" y="682.579"/>
      <point x="245.058" y="682.579" type="curve" smooth="yes"/>
      <point x="271.322" y="682.579"/>
      <point x="275.074" y="676.95"/>
      <point x="275.074" y="654.438" type="curve" smooth="yes"/>
      <point x="275.074" y="466.835"/>
      <point x="275.074" y="266.099"/>
      <point x="275.074" y="78.4959" type="curve" smooth="yes"/>
      <point x="275.074" y="35.3471"/>
      <point x="365.124" y="1.57851"/>
      <point x="316.347" y="1.57851" type="curve" smooth="yes"/>
      <point x="245.058" y="1.57851"/>
      <point x="171.893" y="1.57851"/>
      <point x="100.603" y="1.57851" type="curve" smooth="yes"/>
      <point x="53.7025" y="1.57851"/>
      <point x="147.504" y="35.3471"/>
      <point x="147.504" y="74.7438" type="curve" smooth="yes"/>
      <point x="147.504" y="241.711"/>
      <point x="147.504" y="434.942"/>
      <point x="147.504" y="601.909" type="curve" smooth="yes"/>
      <point x="147.504" y="628.174"/>
      <point x="-41.9752" y="682.579"/>
    </contour>
  </outline>
</glyph>
<glyph name="four" format="2">
  <advance width="546"/>
  <unicode hex="0034"/>
  <outline>
    <contour>
      <point x="346.806" y="660.783" type="curve" smooth="yes"/>
      <point x="412.922" y="725.286"/>
      <point x="403.247" y="628.531"/>
      <point x="403.247" y="578.541" type="curve" smooth="yes"/>
      <point x="403.247" y="473.723"/>
      <point x="403.247" y="368.906"/>
      <point x="403.247" y="264.088" type="curve" smooth="yes"/>
      <point x="403.247" y="264.088"/>
      <point x="445.174" y="264.088"/>
      <point x="458.074" y="264.088" type="curve" smooth="yes"/>
      <point x="467.75" y="264.088"/>
      <point x="467.75" y="223.774"/>
      <point x="458.074" y="223.774" type="curve" smooth="yes"/>
      <point x="440.336" y="223.774"/>
      <point x="400.021" y="225.386"/>
      <point x="400.021" y="220.549" type="curve" smooth="yes"/>
      <point x="400.021" y="188.297"/>
      <point x="403.247" y="127.019"/>
      <point x="403.247" y="72.1912" type="curve" smooth="yes"/>
      <point x="403.247" y="36.7145"/>
      <point x="503.227" y="1.23778"/>
      <point x="469.362" y="1.23778" type="curve" smooth="yes"/>
      <point x="462.912" y="1.23778"/>
      <point x="419.372" y="1.23778"/>
      <point x="225.863" y="1.23778" type="curve" smooth="yes"/>
      <point x="190.386" y="1.23778"/>
      <point x="298.429" y="36.7145"/>
      <point x="298.429" y="72.1912" type="curve" smooth="yes"/>
      <point x="298.429" y="127.019"/>
      <point x="298.429" y="152.82"/>
      <point x="298.429" y="191.522" type="curve" smooth="yes"/>
      <point x="296.816" y="233.449"/>
      <point x="304.879" y="225.386"/>
      <point x="245.214" y="225.386" type="curve" smooth="yes"/>
      <point x="195.224" y="225.386"/>
      <point x="146.847" y="225.386"/>
      <point x="96.8567" y="225.386" type="curve" smooth="yes"/>
      <point x="66.2177" y="225.386"/>
      <point x="40.4164" y="223.774"/>
      <point x="40.4164" y="262.476" type="curve" smooth="yes"/>
      <point x="40.4164" y="291.502"/>
      <point x="296.816" y="612.405"/>
    </contour>
    <contour>
      <point x="88.7938" y="285.052" type="curve" smooth="yes"/>
      <point x="79.1183" y="272.151"/>
      <point x="88.7938" y="260.863"/>
      <point x="112.982" y="260.863" type="curve" smooth="yes"/>
      <point x="167.81" y="260.863"/>
      <point x="222.638" y="260.863"/>
      <point x="275.853" y="260.863" type="curve" smooth="yes"/>
      <point x="300.042" y="260.863"/>
      <point x="301.654" y="270.538"/>
      <point x="301.654" y="317.303" type="curve" smooth="yes"/>
      <point x="301.654" y="372.131"/>
      <point x="301.654" y="430.184"/>
      <point x="301.654" y="485.011" type="curve" smooth="yes"/>
      <point x="301.654" y="504.362"/>
      <point x="293.591" y="512.425"/>
      <point x="282.303" y="504.362" type="curve" smooth="yes"/>
      <point x="248.439" y="481.786"/>
      <point x="133.946" y="344.717"/>
    </contour>
  </outline>
</glyph>
<glyph name="question" format="2">
  <advance width="428"/>
  <unicode hex="003F"/>
  <outline>
    <contour>
      <point x="74.7815" y="577.335" type="curve" smooth="yes"/>
      <point x="73.0543" y="566.482"/>
      <point x="77.7141" y="562.557"/>
      <point x="90.6493" y="563.971" type="curve" smooth="yes"/>
      <point x="122.101" y="567.408"/>
      <point x="149.393" y="545.634"/>
      <point x="149.393" y="510.214" type="curve" smooth="yes"/>
      <point x="149.393" y="472.223"/>
      <point x="122.799" y="449.428"/>
      <point x="88.6068" y="449.428" type="curve" smooth="yes"/>
      <point x="65.812" y="449.428"/>
      <point x="35.419" y="460.825"/>
      <point x="20.2225" y="502.616" type="curve" smooth="yes"/>
      <point x="-17.7687" y="612.79"/>
      <point x="69.6111" y="715.367"/>
      <point x="198.781" y="715.367" type="curve" smooth="yes"/>
      <point x="335.55" y="715.367"/>
      <point x="407.733" y="597.594"/>
      <point x="407.733" y="476.022" type="curve" smooth="yes"/>
      <point x="407.733" y="381.043"/>
      <point x="346.947" y="320.257"/>
      <point x="232.974" y="293.664" type="curve"/>
      <point x="172.188" y="282.266"/>
      <point x="202.581" y="187.288"/>
      <point x="168.388" y="187.288" type="curve" smooth="yes"/>
      <point x="153.192" y="187.288"/>
      <point x="149.393" y="191.087"/>
      <point x="149.393" y="202.485" type="curve" smooth="yes"/>
      <point x="149.393" y="236.677"/>
      <point x="153.192" y="286.065"/>
      <point x="153.192" y="316.458" type="curve" smooth="yes"/>
      <point x="153.192" y="350.65"/>
      <point x="194.982" y="354.45"/>
      <point x="221.576" y="362.048" type="curve"/>
      <point x="293.76" y="388.642"/>
      <point x="327.952" y="464.624"/>
      <point x="327.952" y="544.406" type="curve" smooth="yes"/>
      <point x="327.952" y="624.188"/>
      <point x="278.563" y="669.777"/>
      <point x="202.581" y="669.777" type="curve" smooth="yes"/>
      <point x="143.508" y="669.777"/>
      <point x="84.4347" y="637.994"/>
    </contour>
    <contour>
      <point x="93.6074" y="51.2179" type="curve" smooth="yes"/>
      <point x="93.6074" y="89.9366"/>
      <point x="124.771" y="121.1"/>
      <point x="163.49" y="121.1" type="curve" smooth="yes"/>
      <point x="201.264" y="121.1"/>
      <point x="232.428" y="89.9366"/>
      <point x="232.428" y="51.2179" type="curve" smooth="yes"/>
      <point x="232.428" y="12.4992"/>
      <point x="201.264" y="-18.6646"/>
      <point x="163.49" y="-18.6646" type="curve" smooth="yes"/>
      <point x="124.771" y="-18.6646"/>
      <point x="93.6074" y="12.4992"/>
    </contour>
  </outline>
</glyph>
<glyph name="B" format="2">
  <advance width="724"/>
  <unicode hex="0042"/>
  <outline>
    <contour>
      <point x="75" y="710" type="line" smooth="yes"/>
      <point x="75" y="703"/>
      <point x="78" y="700"/>
      <point x="85" y="700" type="curve" smooth="yes"/>
      <point x="179" y="700" type="line" smooth="yes"/>
      <point x="186" y="700"/>
      <point x="189" y="697"/>
      <point x="189" y="690" type="curve" smooth="yes"/>
      <point x="189" y="40" type="line" smooth="yes"/>
      <point x="189" y="33"/>
      <point x="186" y="30"/>
      <point x="179" y="30" type="curve" smooth="yes"/>
      <point x="85" y="30" type="line" smooth="yes"/>
      <point x="78" y="30"/>
      <point x="75" y="27"/>
      <point x="75" y="20" type="curve" smooth="yes"/>
      <point x="75" y="10" type="line" smooth="yes"/>
      <point x="75" y="3"/>
      <point x="78" y="0"/>
      <point x="85" y="0" type="curve" smooth="yes"/>
      <point x="317" y="0" type="line" smooth="yes"/>
      <point x="324" y="0"/>
      <point x="327" y="3"/>
      <point x="327" y="10" type="curve" smooth="yes"/>
      <point x="327" y="720" type="line" smooth="yes"/>
      <point x="327" y="727"/>
      <point x="324" y="730"/>
      <point x="317" y="730" type="curve" smooth="yes"/>
      <point x="85" y="730" type="line" smooth="yes"/>
      <point x="78" y="730"/>
      <point x="75" y="727"/>
      <point x="75" y="720" type="curve" smooth="yes"/>
    </contour>
    <contour>
      <point x="520" y="395" type="curve" smooth="yes"/>
      <point x="584" y="428"/>
      <point x="658" y="493"/>
      <point x="658" y="570" type="curve" smooth="yes"/>
      <point x="658" y="661"/>
      <point x="560" y="730"/>
      <point x="478" y="730" type="curve" smooth="yes"/>
      <point x="268" y="730" type="line"/>
      <point x="269" y="715"/>
      <point x="263" y="700"/>
      <point x="300" y="700" type="curve" smooth="yes"/>
      <point x="397" y="700" type="line" smooth="yes"/>
      <point x="442" y="700"/>
      <point x="523" y="654"/>
      <point x="523" y="551" type="curve" smooth="yes"/>
      <point x="523" y="493"/>
      <point x="496" y="407"/>
      <point x="397" y="407" type="curve" smooth="yes"/>
      <point x="268" y="407" type="line"/>
      <point x="268" y="407"/>
      <point x="268" y="358"/>
      <point x="268" y="358" type="curve"/>
      <point x="397" y="359" type="line" smooth="yes"/>
      <point x="499" y="360"/>
      <point x="548" y="302"/>
      <point x="548" y="212" type="curve" smooth="yes"/>
      <point x="548" y="131"/>
      <point x="510" y="49"/>
      <point x="397" y="49" type="curve" smooth="yes"/>
      <point x="300" y="49" type="line" smooth="yes"/>
      <point x="284" y="49"/>
      <point x="229" y="49"/>
      <point x="229" y="49" type="curve"/>
      <point x="229" y="0" type="line"/>
      <point x="303" y="1"/>
      <point x="351" y="0"/>
      <point x="425" y="0" type="curve" smooth="yes"/>
      <point x="566" y="0"/>
      <point x="674" y="78"/>
      <point x="674" y="212" type="curve" smooth="yes"/>
      <point x="674" y="307"/>
      <point x="612" y="356"/>
      <point x="520" y="388" type="curve" smooth="yes"/>
      <point x="514" y="390"/>
      <point x="514" y="392"/>
    </contour>
  </outline>
</glyph>
<glyph name="C" format="2">
  <advance width="611"/>
  <unicode hex="0043"/>
  <outline>
    <contour>
      <point x="546" y="726" type="curve" smooth="yes"/>
      <point x="548" y="735"/>
      <point x="553" y="740"/>
      <point x="562" y="740" type="curve"/>
      <point x="562" y="740" type="line"/>
      <point x="571" y="740"/>
      <point x="575" y="735"/>
      <point x="575" y="726" type="curve" smooth="yes"/>
      <point x="575" y="438" type="line" smooth="yes"/>
      <point x="575" y="429"/>
      <point x="571" y="425"/>
      <point x="562" y="425" type="curve" smooth="yes"/>
      <point x="561" y="425"/>
      <point x="559" y="425"/>
      <point x="558" y="425" type="curve" smooth="yes"/>
      <point x="549" y="425"/>
      <point x="544" y="429"/>
      <point x="543" y="438" type="curve" smooth="yes"/>
      <point x="532" y="510"/>
      <point x="461" y="695"/>
      <point x="321" y="695" type="curve" smooth="yes"/>
      <point x="174" y="695"/>
      <point x="147" y="477"/>
      <point x="147" y="361" type="curve" smooth="yes"/>
      <point x="147" y="249"/>
      <point x="181" y="61"/>
      <point x="355" y="61" type="curve" smooth="yes"/>
      <point x="495" y="61"/>
      <point x="559" y="193"/>
      <point x="562" y="316" type="curve" smooth="yes"/>
      <point x="562" y="325"/>
      <point x="566" y="330"/>
      <point x="575" y="330" type="curve" smooth="yes"/>
      <point x="578" y="330" type="line" smooth="yes"/>
      <point x="587" y="330"/>
      <point x="591" y="325"/>
      <point x="591" y="316" type="curve" smooth="yes"/>
      <point x="588" y="210"/>
      <point x="547" y="-3"/>
      <point x="355" y="-3" type="curve" smooth="yes"/>
      <point x="141" y="-3"/>
      <point x="20" y="142"/>
      <point x="20" y="361" type="curve" smooth="yes"/>
      <point x="20" y="535"/>
      <point x="115" y="742"/>
      <point x="306" y="742" type="curve" smooth="yes"/>
      <point x="384" y="742"/>
      <point x="432" y="679"/>
      <point x="496" y="679" type="curve" smooth="yes"/>
      <point x="523" y="679"/>
      <point x="539" y="702"/>
    </contour>
  </outline>
</glyph>
<glyph name="H" format="2">
  <advance width="1103"/>
  <unicode hex="0048"/>
  <outline>
    <contour>
      <point x="75.9972" y="711.143" type="line" smooth="yes"/>
      <point x="75.9972" y="703.648"/>
      <point x="79.2093" y="700.436"/>
      <point x="86.704" y="700.436" type="curve" smooth="yes"/>
      <point x="219.468" y="700.436" type="line" smooth="yes"/>
      <point x="226.963" y="700.436"/>
      <point x="230.175" y="697.224"/>
      <point x="230.175" y="689.729" type="curve" smooth="yes"/>
      <point x="230.175" y="41.9685" type="line" smooth="yes"/>
      <point x="230.175" y="34.4738"/>
      <point x="226.963" y="31.2617"/>
      <point x="219.468" y="31.2617" type="curve" smooth="yes"/>
      <point x="86.704" y="31.2617" type="line" smooth="yes"/>
      <point x="79.2093" y="31.2617"/>
      <point x="75.9972" y="28.0497"/>
      <point x="75.9972" y="20.5549" type="curve" smooth="yes"/>
      <point x="75.9972" y="10.9188" type="line" smooth="yes"/>
      <point x="75.9972" y="3.42407"/>
      <point x="79.2093" y="0.212037"/>
      <point x="86.704" y="0.212037" type="curve" smooth="yes"/>
      <point x="511.764" y="0.212037" type="line" smooth="yes"/>
      <point x="519.258" y="0.212037"/>
      <point x="522.47" y="3.42407"/>
      <point x="522.47" y="10.9188" type="curve" smooth="yes"/>
      <point x="522.47" y="20.5549" type="line" smooth="yes"/>
      <point x="522.47" y="28.0497"/>
      <point x="519.258" y="31.2617"/>
      <point x="511.764" y="31.2617" type="curve" smooth="yes"/>
      <point x="378.999" y="31.2617" type="line" smooth="yes"/>
      <point x="371.505" y="31.2617"/>
      <point x="368.293" y="34.4738"/>
      <point x="368.293" y="41.9685" type="curve" smooth="yes"/>
      <point x="368.293" y="689.729" type="line" smooth="yes"/>
      <point x="368.293" y="697.224"/>
      <point x="371.505" y="700.436"/>
      <point x="378.999" y="700.436" type="curve" smooth="yes"/>
      <point x="511.764" y="700.436" type="line" smooth="yes"/>
      <point x="519.258" y="700.436"/>
      <point x="522.47" y="703.648"/>
      <point x="522.47" y="711.143" type="curve" smooth="yes"/>
      <point x="522.47" y="720.779" type="line" smooth="yes"/>
      <point x="522.47" y="728.274"/>
      <point x="519.258" y="731.486"/>
      <point x="511.764" y="731.486" type="curve" smooth="yes"/>
      <point x="86.704" y="731.486" type="line" smooth="yes"/>
      <point x="79.2093" y="731.486"/>
      <point x="75.9972" y="728.274"/>
      <point x="75.9972" y="720.779" type="curve" smooth="yes"/>
    </contour>
    <contour>
      <point x="580.906" y="711.143" type="line" smooth="yes"/>
      <point x="580.906" y="703.648"/>
      <point x="584.118" y="700.436"/>
      <point x="591.612" y="700.436" type="curve" smooth="yes"/>
      <point x="724.377" y="700.436" type="line" smooth="yes"/>
      <point x="731.871" y="700.436"/>
      <point x="735.083" y="697.224"/>
      <point x="735.083" y="689.729" type="curve" smooth="yes"/>
      <point x="735.083" y="41.9685" type="line" smooth="yes"/>
      <point x="735.083" y="34.4738"/>
      <point x="731.871" y="31.2617"/>
      <point x="724.377" y="31.2617" type="curve" smooth="yes"/>
      <point x="591.612" y="31.2617" type="line" smooth="yes"/>
      <point x="584.118" y="31.2617"/>
      <point x="580.906" y="28.0497"/>
      <point x="580.906" y="20.5549" type="curve" smooth="yes"/>
      <point x="580.906" y="10.9188" type="line" smooth="yes"/>
      <point x="580.906" y="3.42407"/>
      <point x="584.118" y="0.212037"/>
      <point x="591.612" y="0.212037" type="curve" smooth="yes"/>
      <point x="1016.67" y="0.212037" type="line" smooth="yes"/>
      <point x="1024.17" y="0.212037"/>
      <point x="1027.38" y="3.42407"/>
      <point x="1027.38" y="10.9188" type="curve" smooth="yes"/>
      <point x="1027.38" y="20.5549" type="line" smooth="yes"/>
      <point x="1027.38" y="28.0497"/>
      <point x="1024.17" y="31.2617"/>
      <point x="1016.67" y="31.2617" type="curve" smooth="yes"/>
      <point x="883.908" y="31.2617" type="line" smooth="yes"/>
      <point x="876.413" y="31.2617"/>
      <point x="873.201" y="34.4738"/>
      <point x="873.201" y="41.9685" type="curve" smooth="yes"/>
      <point x="873.201" y="689.729" type="line" smooth="yes"/>
      <point x="873.201" y="697.224"/>
      <point x="876.413" y="700.436"/>
      <point x="883.908" y="700.436" type="curve" smooth="yes"/>
      <point x="1016.67" y="700.436" type="line" smooth="yes"/>
      <point x="1024.17" y="700.436"/>
      <point x="1027.38" y="703.648"/>
      <point x="1027.38" y="711.143" type="curve" smooth="yes"/>
      <point x="1027.38" y="720.779" type="line" smooth="yes"/>
      <point x="1027.38" y="728.274"/>
      <point x="1024.17" y="731.486"/>
      <point x="1016.67" y="731.486" type="curve" smooth="yes"/>
      <point x="591.612" y="731.486" type="line" smooth="yes"/>
      <point x="584.118" y="731.486"/>
      <point x="580.906" y="728.274"/>
      <point x="580.906" y="720.779" type="curve" smooth="yes"/>
    </contour>
    <contour>
      <point x="306" y="366" type="line"/>
      <point x="756" y="366" type="line"/>
      <point x="756" y="386" type="line"/>
      <point x="306" y="386" type="line"/>
    </contour>
  </outline>
</glyph>
<glyph name="I" format="2">
  <advance width="598"/>
  <unicode hex="0049"/>
  <outline>
    <contour>
      <point x="75.9972" y="711.143" type="line" smooth="yes"/>
      <point x="75.9972" y="703.969"/>
      <point x="79.5304" y="700.436"/>
      <point x="86.7039" y="700.436" type="curve" smooth="yes"/>
      <point x="219.468" y="700.436" type="line" smooth="yes"/>
      <point x="226.642" y="700.436"/>
      <point x="230.175" y="696.903"/>
      <point x="230.175" y="689.729" type="curve" smooth="yes"/>
      <point x="230.175" y="41.9684" type="line" smooth="yes"/>
      <point x="230.175" y="34.7949"/>
      <point x="226.642" y="31.2617"/>
      <point x="219.468" y="31.2617" type="curve" smooth="yes"/>
      <point x="86.7039" y="31.2617" type="line" smooth="yes"/>
      <point x="79.5304" y="31.2617"/>
      <point x="75.9972" y="27.7284"/>
      <point x="75.9972" y="20.5548" type="curve" smooth="yes"/>
      <point x="75.9972" y="10.919" type="line" smooth="yes"/>
      <point x="75.9972" y="3.74534"/>
      <point x="79.5305" y="0.212037"/>
      <point x="86.7041" y="0.212037" type="curve" smooth="yes"/>
      <point x="511.763" y="0.212037" type="line" smooth="yes"/>
      <point x="518.937" y="0.212037"/>
      <point x="522.47" y="3.74534"/>
      <point x="522.47" y="10.919" type="curve" smooth="yes"/>
      <point x="522.47" y="20.5548" type="line" smooth="yes"/>
      <point x="522.47" y="27.7284"/>
      <point x="518.937" y="31.2617"/>
      <point x="511.764" y="31.2617" type="curve" smooth="yes"/>
      <point x="378.999" y="31.2617" type="line" smooth="yes"/>
      <point x="371.826" y="31.2617"/>
      <point x="368.293" y="34.7949"/>
      <point x="368.293" y="41.9684" type="curve" smooth="yes"/>
      <point x="368.293" y="689.729" type="line" smooth="yes"/>
      <point x="368.293" y="696.903"/>
      <point x="371.826" y="700.436"/>
      <point x="378.999" y="700.436" type="curve" smooth="yes"/>
      <point x="511.764" y="700.436" type="line" smooth="yes"/>
      <point x="518.937" y="700.436"/>
      <point x="522.47" y="703.969"/>
      <point x="522.47" y="711.143" type="curve" smooth="yes"/>
      <point x="522.47" y="720.779" type="line" smooth="yes"/>
      <point x="522.47" y="727.953"/>
      <point x="518.937" y="731.486"/>
      <point x="511.763" y="731.486" type="curve" smooth="yes"/>
      <point x="86.7041" y="731.486" type="line" smooth="yes"/>
      <point x="79.5305" y="731.486"/>
      <point x="75.9972" y="727.953"/>
      <point x="75.9972" y="720.779" type="curve" smooth="yes"/>
    </contour>
  </outline>
</glyph>
<glyph name="J" format="2">
  <advance width="682"/>
  <unicode hex="004A"/>
  <outline>
    <contour>
      <point x="159.997" y="711.143" type="line" smooth="yes"/>
      <point x="159.997" y="703.648"/>
      <point x="163.209" y="700.436"/>
      <point x="170.704" y="700.436" type="curve" smooth="yes"/>
      <point x="303.468" y="700.436" type="line" smooth="yes"/>
      <point x="310.963" y="700.436"/>
      <point x="314.175" y="697.224"/>
      <point x="314.175" y="689.729" type="curve" smooth="yes"/>
      <point x="314.175" y="264.67" type="line" smooth="yes"/>
      <point x="314.175" y="151.178"/>
      <point x="332.377" y="24.8377"/>
      <point x="203.895" y="24.8377" type="curve" smooth="yes"/>
      <point x="152.502" y="24.8377"/>
      <point x="125.735" y="60.1701"/>
      <point x="125.735" y="92.2904" type="curve" smooth="yes"/>
      <point x="125.735" y="122.269"/>
      <point x="167.492" y="101.927"/>
      <point x="185.694" y="155.461" type="curve" smooth="yes"/>
      <point x="208.178" y="221.843"/>
      <point x="165.351" y="291.437"/>
      <point x="91.4738" y="280.73" type="curve" smooth="yes"/>
      <point x="24.021" y="270.023"/>
      <point x="12.2435" y="201.5"/>
      <point x="24.021" y="141.542" type="curve" smooth="yes"/>
      <point x="44.3639" y="40.8978"/>
      <point x="115.029" y="-10.4948"/>
      <point x="212.461" y="-10.4948" type="curve" smooth="yes"/>
      <point x="314.175" y="-10.4948"/>
      <point x="452.293" y="40.8978"/>
      <point x="452.293" y="179.015" type="curve" smooth="yes"/>
      <point x="452.293" y="689.729" type="line" smooth="yes"/>
      <point x="452.293" y="697.224"/>
      <point x="455.505" y="700.436"/>
      <point x="462.999" y="700.436" type="curve" smooth="yes"/>
      <point x="595.764" y="700.436" type="line" smooth="yes"/>
      <point x="603.258" y="700.436"/>
      <point x="606.47" y="703.648"/>
      <point x="606.47" y="711.143" type="curve" smooth="yes"/>
      <point x="606.47" y="720.779" type="line" smooth="yes"/>
      <point x="606.47" y="728.274"/>
      <point x="603.258" y="731.486"/>
      <point x="595.764" y="731.486" type="curve" smooth="yes"/>
      <point x="170.704" y="731.486" type="line" smooth="yes"/>
      <point x="163.209" y="731.486"/>
      <point x="159.997" y="728.274"/>
      <point x="159.997" y="720.779" type="curve" smooth="yes"/>
    </contour>
  </outline>
</glyph>
<glyph name="L" format="2">
  <advance width="756"/>
  <unicode hex="004C"/>
  <outline>
    <component base="I"/>
    <contour>
      <point x="376" y="10" type="line" smooth="yes"/>
      <point x="376" y="3"/>
      <point x="379" y="0"/>
      <point x="386" y="0" type="curve" smooth="yes"/>
      <point x="696" y="0" type="line" smooth="yes"/>
      <point x="703" y="0"/>
      <point x="706" y="3"/>
      <point x="706" y="10" type="curve" smooth="yes"/>
      <point x="706" y="251" type="line" smooth="yes"/>
      <point x="706" y="258"/>
      <point x="703" y="261"/>
      <point x="696" y="261" type="curve" smooth="yes"/>
      <point x="691" y="261" type="line" smooth="yes"/>
      <point x="684" y="261"/>
      <point x="681" y="258"/>
      <point x="681" y="251" type="curve" smooth="yes"/>
      <point x="677" y="93"/>
      <point x="644" y="31"/>
      <point x="489" y="31" type="curve" smooth="yes"/>
      <point x="412" y="31"/>
      <point x="409" y="31"/>
      <point x="386" y="31" type="curve" smooth="yes"/>
      <point x="379" y="31"/>
      <point x="376" y="28"/>
      <point x="376" y="21" type="curve" smooth="yes"/>
    </contour>
  </outline>
</glyph>
<glyph name="N" format="2">
  <advance width="964"/>
  <unicode hex="004E"/>
  <outline>
    <contour>
      <point x="180" y="733" type="line" smooth="yes"/>
      <point x="173" y="733"/>
      <point x="170" y="730"/>
      <point x="170" y="723" type="curve" smooth="yes"/>
      <point x="170" y="713" type="line" smooth="yes"/>
      <point x="170" y="706"/>
      <point x="173" y="703"/>
      <point x="180" y="703" type="curve" smooth="yes"/>
      <point x="249" y="703" type="line" smooth="yes"/>
      <point x="256" y="703"/>
      <point x="261" y="700"/>
      <point x="265" y="694" type="curve" smooth="yes"/>
      <point x="718" y="1" type="line" smooth="yes"/>
      <point x="720" y="-2"/>
      <point x="722" y="-4"/>
      <point x="726" y="-4" type="curve"/>
      <point x="726" y="-4" type="line"/>
      <point x="730" y="-4"/>
      <point x="731.994" y="-3"/>
      <point x="732" y="1" type="curve" smooth="yes"/>
      <point x="733" y="703" type="line"/>
      <point x="733" y="703" type="line"/>
      <point x="798" y="703" type="line" smooth="yes"/>
      <point x="805" y="703"/>
      <point x="808" y="706"/>
      <point x="808" y="713" type="curve" smooth="yes"/>
      <point x="808" y="723" type="line" smooth="yes"/>
      <point x="808" y="730"/>
      <point x="805" y="733"/>
      <point x="798" y="733" type="curve" smooth="yes"/>
      <point x="713" y="733" type="line" smooth="yes"/>
      <point x="706" y="733"/>
      <point x="703" y="730"/>
      <point x="703" y="723" type="curve" smooth="yes"/>
      <point x="703" y="549"/>
      <point x="703" y="455"/>
      <point x="703" y="185" type="curve"/>
      <point x="712" y="185" type="line"/>
      <point x="362" y="725" type="line" smooth="yes"/>
      <point x="358" y="731"/>
      <point x="354" y="733"/>
      <point x="347" y="733" type="curve" smooth="yes"/>
    </contour>
    <contour>
      <point x="259.828" y="89.7957" type="line" smooth="yes"/>
      <point x="259.828" y="54.4633"/>
      <point x="278.029" y="36.2617"/>
      <point x="313.362" y="36.2617" type="curve" smooth="yes"/>
      <point x="405.44" y="36.2617" type="line" smooth="yes"/>
      <point x="412.935" y="36.2617"/>
      <point x="416.147" y="33.0497"/>
      <point x="416.147" y="25.5549" type="curve" smooth="yes"/>
      <point x="416.147" y="15.9188" type="line" smooth="yes"/>
      <point x="416.147" y="8.42407"/>
      <point x="412.935" y="5.21204"/>
      <point x="405.44" y="5.21204" type="curve" smooth="yes"/>
      <point x="86.3777" y="5.21204" type="line" smooth="yes"/>
      <point x="78.883" y="5.21204"/>
      <point x="75.671" y="8.42407"/>
      <point x="75.671" y="15.9188" type="curve" smooth="yes"/>
      <point x="75.671" y="25.5549" type="line" smooth="yes"/>
      <point x="75.671" y="33.0497"/>
      <point x="78.883" y="36.2617"/>
      <point x="86.3777" y="36.2617" type="curve" smooth="yes"/>
      <point x="176.315" y="36.2617" type="line" smooth="yes"/>
      <point x="211.647" y="36.2617"/>
      <point x="229.849" y="54.4633"/>
      <point x="229.849" y="89.7957" type="curve" smooth="yes"/>
      <point x="229.849" y="692.588" type="line" smooth="yes"/>
      <point x="229.849" y="700.083"/>
      <point x="226.637" y="703.295"/>
      <point x="219.142" y="703.295" type="curve" smooth="yes"/>
      <point x="86.3777" y="703.295" type="line" smooth="yes"/>
      <point x="78.883" y="703.295"/>
      <point x="75.671" y="706.507"/>
      <point x="75.671" y="714.002" type="curve" smooth="yes"/>
      <point x="75.671" y="722.567" type="line" smooth="yes"/>
      <point x="75.671" y="730.062"/>
      <point x="78.883" y="733.274"/>
      <point x="86.3777" y="733.274" type="curve" smooth="yes"/>
      <point x="249.121" y="733.274" type="line" smooth="yes"/>
      <point x="256.616" y="733.274"/>
      <point x="259.828" y="730.062"/>
      <point x="259.828" y="722.567" type="curve" smooth="yes"/>
    </contour>
    <contour>
      <point x="731.828" y="648.71" type="line" smooth="yes"/>
      <point x="731.828" y="684.042"/>
      <point x="750.029" y="702.244"/>
      <point x="785.362" y="702.244" type="curve" smooth="yes"/>
      <point x="877.44" y="702.244" type="line" smooth="yes"/>
      <point x="884.935" y="702.244"/>
      <point x="888.147" y="705.456"/>
      <point x="888.147" y="712.95" type="curve" smooth="yes"/>
      <point x="888.147" y="722.586" type="line" smooth="yes"/>
      <point x="888.147" y="730.081"/>
      <point x="884.935" y="733.293"/>
      <point x="877.44" y="733.293" type="curve" smooth="yes"/>
      <point x="558.378" y="733.293" type="line" smooth="yes"/>
      <point x="550.883" y="733.293"/>
      <point x="547.671" y="730.081"/>
      <point x="547.671" y="722.586" type="curve" smooth="yes"/>
      <point x="547.671" y="712.95" type="line" smooth="yes"/>
      <point x="547.671" y="705.456"/>
      <point x="550.883" y="702.244"/>
      <point x="558.378" y="702.244" type="curve" smooth="yes"/>
      <point x="648.315" y="702.244" type="line" smooth="yes"/>
      <point x="683.647" y="702.244"/>
      <point x="701.849" y="684.042"/>
      <point x="701.849" y="648.71" type="curve" smooth="yes"/>
      <point x="701.849" y="56.624" type="line" smooth="yes"/>
      <point x="701.849" y="49.1293"/>
      <point x="703.99" y="42.7052"/>
      <point x="708.273" y="37.3518" type="curve" smooth="yes"/>
      <point x="725.404" y="18.0796" type="line" smooth="yes"/>
      <point x="729.686" y="12.7262"/>
      <point x="731.828" y="12.7262"/>
      <point x="731.828" y="20.2209" type="curve" smooth="yes"/>
    </contour>
  </outline>
</glyph>
<glyph name="O" format="2">
  <advance width="632"/>
  <unicode hex="004F"/>
  <outline>
    <contour>
      <point x="20.9292" y="352.423" type="curve" smooth="yes"/>
      <point x="20.9292" y="557.905"/>
      <point x="119.312" y="734.745"/>
      <point x="317.322" y="734.745" type="curve" smooth="yes"/>
      <point x="501.634" y="734.745"/>
      <point x="611.225" y="557.905"/>
      <point x="611.225" y="352.423" type="curve" smooth="yes"/>
      <point x="611.225" y="161.884"/>
      <point x="490.426" y="-6.23824"/>
      <point x="317.322" y="-6.23824" type="curve" smooth="yes"/>
      <point x="137.992" y="-6.23824"/>
      <point x="20.9292" y="180.564"/>
    </contour>
    <contour>
      <point x="133.011" y="352.423" type="curve" smooth="yes"/>
      <point x="133.011" y="232.869"/>
      <point x="174.107" y="37.349"/>
      <point x="317.322" y="37.349" type="curve" smooth="yes"/>
      <point x="459.292" y="37.349"/>
      <point x="499.144" y="232.869"/>
      <point x="499.144" y="352.423" type="curve" smooth="yes"/>
      <point x="499.144" y="489.411"/>
      <point x="459.292" y="693.649"/>
      <point x="317.322" y="693.649" type="curve" smooth="yes"/>
      <point x="174.107" y="693.649"/>
      <point x="133.011" y="489.411"/>
    </contour>
  </outline>
</glyph>
<glyph name="P" format="2">
  <advance width="774"/>
  <unicode hex="0050"/>
  <outline>
    <contour>
      <point x="260.624" y="380.14" type="curve"/>
      <point x="290.513" y="380.14"/>
      <point x="376.442" y="380.14"/>
      <point x="459.88" y="380.14" type="curve" smooth="yes"/>
      <point x="601.85" y="380.14"/>
      <point x="641.702" y="471.22"/>
      <point x="641.702" y="533.675" type="curve" smooth="yes"/>
      <point x="641.702" y="605.239"/>
      <point x="601.85" y="699.572"/>
      <point x="459.88" y="699.572" type="curve" smooth="yes"/>
      <point x="417.539" y="699.572"/>
      <point x="380.178" y="699.572"/>
      <point x="350.29" y="699.572" type="curve"/>
      <point x="350.29" y="706.728"/>
      <point x="350.29" y="727.546"/>
      <point x="350.29" y="731.45" type="curve"/>
      <point x="417.539" y="731.45"/>
      <point x="431.237" y="731.45"/>
      <point x="459.88" y="731.45" type="curve" smooth="yes"/>
      <point x="644.192" y="731.45"/>
      <point x="753.783" y="641.02"/>
      <point x="753.783" y="533.675" type="curve" smooth="yes"/>
      <point x="753.783" y="434.138"/>
      <point x="632.984" y="348.913"/>
      <point x="459.88" y="348.913" type="curve" smooth="yes"/>
      <point x="423.765" y="348.913"/>
      <point x="286.777" y="349.563"/>
      <point x="260.624" y="349.563" type="curve"/>
      <point x="260.624" y="352.165"/>
      <point x="260.624" y="376.887"/>
    </contour>
    <contour>
      <point x="75.9972" y="720.779" type="line" smooth="yes"/>
      <point x="75.9972" y="727.953"/>
      <point x="79.5305" y="731.486"/>
      <point x="86.704" y="731.486" type="curve" smooth="yes"/>
      <point x="453.947" y="731.486" type="line" smooth="yes"/>
      <point x="461.121" y="731.486"/>
      <point x="464.654" y="727.953"/>
      <point x="464.654" y="720.779" type="curve" smooth="yes"/>
      <point x="464.654" y="711.143" type="line" smooth="yes"/>
      <point x="464.654" y="703.969"/>
      <point x="461.12" y="700.436"/>
      <point x="453.947" y="700.436" type="curve" smooth="yes"/>
      <point x="379" y="700.436" type="line" smooth="yes"/>
      <point x="371.826" y="700.436"/>
      <point x="368.293" y="696.903"/>
      <point x="368.293" y="689.729" type="curve" smooth="yes"/>
      <point x="368.293" y="41.9684" type="line" smooth="yes"/>
      <point x="368.293" y="34.7949"/>
      <point x="371.826" y="31.2617"/>
      <point x="378.999" y="31.2617" type="curve" smooth="yes"/>
      <point x="511.764" y="31.2617" type="line" smooth="yes"/>
      <point x="518.937" y="31.2617"/>
      <point x="522.47" y="27.7284"/>
      <point x="522.47" y="20.5548" type="curve" smooth="yes"/>
      <point x="522.47" y="10.919" type="line" smooth="yes"/>
      <point x="522.47" y="3.74534"/>
      <point x="518.937" y="0.212037"/>
      <point x="511.763" y="0.212037" type="curve" smooth="yes"/>
      <point x="86.7041" y="0.212037" type="line" smooth="yes"/>
      <point x="79.5305" y="0.212037"/>
      <point x="75.9972" y="3.74534"/>
      <point x="75.9972" y="10.919" type="curve" smooth="yes"/>
      <point x="75.9972" y="20.5548" type="line" smooth="yes"/>
      <point x="75.9972" y="27.7284"/>
      <point x="79.5304" y="31.2617"/>
      <point x="86.7039" y="31.2617" type="curve" smooth="yes"/>
      <point x="219.468" y="31.2617" type="line" smooth="yes"/>
      <point x="226.642" y="31.2617"/>
      <point x="230.175" y="34.7949"/>
      <point x="230.175" y="41.9684" type="curve" smooth="yes"/>
      <point x="230.175" y="689.729" type="line" smooth="yes"/>
      <point x="230.175" y="696.903"/>
      <point x="226.642" y="700.436"/>
      <point x="219.468" y="700.436" type="curve" smooth="yes"/>
      <point x="86.7039" y="700.436" type="line" smooth="yes"/>
      <point x="79.5304" y="700.436"/>
      <point x="75.9972" y="703.969"/>
      <point x="75.9972" y="711.143" type="curve" smooth="yes"/>
    </contour>
  </outline>
</glyph>
<glyph name="Q" format="2">
  <advance width="728"/>
  <unicode hex="0051"/>
  <outline>
    <component base="O"/>
    <contour>
      <point x="688" y="62" type="curve" smooth="yes"/>
      <point x="688" y="69"/>
      <point x="691" y="72"/>
      <point x="698" y="72" type="curve"/>
      <point x="698" y="72" type="line"/>
      <point x="705" y="72"/>
      <point x="708" y="69"/>
      <point x="708" y="62" type="curve" smooth="yes"/>
      <point x="706" y="-71"/>
      <point x="673" y="-160"/>
      <point x="522" y="-160" type="curve" smooth="yes"/>
      <point x="394" y="-160"/>
      <point x="372" y="-40"/>
      <point x="372" y="35" type="curve" smooth="yes"/>
      <point x="372" y="83"/>
      <point x="365" y="165"/>
      <point x="303" y="171" type="curve" smooth="yes"/>
      <point x="249" y="176"/>
      <point x="226" y="134"/>
      <point x="224" y="103" type="curve" smooth="yes"/>
      <point x="220" y="37"/>
      <point x="288" y="25"/>
      <point x="350" y="25" type="curve"/>
      <point x="338" y="2" type="line"/>
      <point x="292" y="12"/>
      <point x="225" y="13"/>
      <point x="206" y="72" type="curve" smooth="yes"/>
      <point x="189" y="125"/>
      <point x="215" y="196"/>
      <point x="290" y="196" type="curve" smooth="yes"/>
      <point x="362" y="196"/>
      <point x="432" y="134"/>
      <point x="463" y="72" type="curve" smooth="yes"/>
      <point x="488" y="22"/>
      <point x="506" y="-113"/>
      <point x="569" y="-113" type="curve" smooth="yes"/>
      <point x="671" y="-113"/>
      <point x="687" y="-2"/>
    </contour>
  </outline>
</glyph>
<glyph name="R" format="2">
  <advance width="885"/>
  <unicode hex="0052"/>
  <outline>
    <component base="P"/>
    <contour>
      <point x="318" y="380" type="line"/>
      <point x="318" y="380"/>
      <point x="351" y="380"/>
      <point x="368" y="380" type="curve" smooth="yes"/>
      <point x="514" y="380"/>
      <point x="612" y="370"/>
      <point x="638" y="221" type="curve" smooth="yes"/>
      <point x="655" y="122"/>
      <point x="663" y="42"/>
      <point x="719" y="42" type="curve" smooth="yes"/>
      <point x="785" y="42"/>
      <point x="834" y="134"/>
      <point x="818" y="231" type="curve" smooth="yes"/>
      <point x="815" y="251"/>
      <point x="828" y="248"/>
      <point x="831" y="231" type="curve" smooth="yes"/>
      <point x="848" y="131"/>
      <point x="801" y="-4"/>
      <point x="680" y="-4" type="curve" smooth="yes"/>
      <point x="632" y="-4"/>
      <point x="579" y="9"/>
      <point x="541" y="100" type="curve" smooth="yes"/>
      <point x="485" y="234"/>
      <point x="544" y="350"/>
      <point x="368" y="350" type="curve" smooth="yes"/>
      <point x="351" y="350"/>
      <point x="318" y="350"/>
      <point x="318" y="350" type="curve"/>
    </contour>
  </outline>
</glyph>
<glyph name="S" format="2">
  <advance width="617"/>
  <unicode hex="0053"/>
  <outline>
    <contour>
      <point x="427.435" y="660.042" type="curve" smooth="yes"/>
      <point x="433.529" y="654.327"/>
      <point x="438.188" y="655.121"/>
      <point x="441.88" y="662.504" type="curve" smooth="yes"/>
      <point x="480.119" y="738.983" type="line" smooth="yes"/>
      <point x="482.879" y="744.503"/>
      <point x="487.279" y="747.223"/>
      <point x="493.451" y="747.223" type="curve"/>
      <point x="493.451" y="747.223" type="line"/>
      <point x="499.623" y="747.223"/>
      <point x="502.663" y="744.182"/>
      <point x="502.663" y="738.01" type="curve" smooth="yes"/>
      <point x="502.663" y="612.319"/>
      <point x="502.663" y="504.182"/>
      <point x="502.663" y="451.824" type="curve" smooth="yes"/>
      <point x="502.663" y="445.652"/>
      <point x="499.623" y="442.612"/>
      <point x="493.451" y="442.612" type="curve"/>
      <point x="493.451" y="442.612" type="line"/>
      <point x="487.299" y="442.612"/>
      <point x="483.425" y="445.519"/>
      <point x="481.664" y="451.457" type="curve" smooth="yes"/>
      <point x="448.914" y="561.875"/>
      <point x="385.057" y="699.32"/>
      <point x="259.466" y="699.32" type="curve" smooth="yes"/>
      <point x="104.704" y="699.32"/>
      <point x="104.704" y="533.504"/>
      <point x="199.28" y="469.634" type="curve" smooth="yes"/>
      <point x="291.401" y="406.992"/>
      <point x="446.162" y="429.101"/>
      <point x="529.685" y="297.676" type="curve" smooth="yes"/>
      <point x="605.837" y="178.534"/>
      <point x="565.304" y="0.435324"/>
      <point x="393.347" y="-6.93429" type="curve" smooth="yes"/>
      <point x="286.095" y="-11.6486"/>
      <point x="245.568" y="33.3973"/>
      <point x="171.929" y="95.6483" type="curve" smooth="yes"/>
      <point x="165.634" y="100.97"/>
      <point x="160.461" y="100.094"/>
      <point x="156.087" y="92.9654" type="curve" smooth="yes"/>
      <point x="139.468" y="65.881"/>
      <point x="117.032" y="34.6664"/>
      <point x="99.1163" y="10.3058" type="curve" smooth="yes"/>
      <point x="95.4643" y="5.34005"/>
      <point x="90.6172" y="2.89186"/>
      <point x="84.4376" y="2.89186" type="curve"/>
      <point x="84.4376" y="2.89186" type="line"/>
      <point x="78.2654" y="2.89186"/>
      <point x="75.2253" y="5.93187"/>
      <point x="75.2253" y="12.104" type="curve" smooth="yes"/>
      <point x="75.2253" y="317.943" type="line" smooth="yes"/>
      <point x="75.2253" y="324.115"/>
      <point x="78.2652" y="327.155"/>
      <point x="84.4373" y="327.155" type="curve"/>
      <point x="84.4373" y="327.155" type="line"/>
      <point x="90.5896" y="327.155"/>
      <point x="94.6786" y="324.315"/>
      <point x="96.8675" y="318.523" type="curve" smooth="yes"/>
      <point x="136.338" y="214.077"/>
      <point x="197.971" y="102.356"/>
      <point x="284.031" y="56.9357" type="curve" smooth="yes"/>
      <point x="455.988" y="-33.9562"/>
      <point x="530.913" y="177.306"/>
      <point x="393.347" y="254.687" type="curve" smooth="yes"/>
      <point x="279.118" y="318.557"/>
      <point x="82.5949" y="291.535"/>
      <point x="82.5949" y="522.449" type="curve" smooth="yes"/>
      <point x="82.5949" y="651.418"/>
      <point x="130.497" y="731.255"/>
      <point x="259.466" y="731.255" type="curve" smooth="yes"/>
      <point x="310.99" y="731.255"/>
      <point x="366.979" y="716.742"/>
    </contour>
  </outline>
</glyph>
<glyph name="T" format="2">
  <advance width="760"/>
  <unicode hex="0054"/>
  <outline>
    <component base="I" xOffset="76" yOffset="-7"/>
    <contour>
      <point x="340" y="724" type="line" smooth="yes"/>
      <point x="340" y="730.7"/>
      <point x="343.3" y="734"/>
      <point x="349.999" y="734" type="curve" smooth="yes"/>
      <point x="700.001" y="734" type="line" smooth="yes"/>
      <point x="706.7" y="734"/>
      <point x="710" y="730.7"/>
      <point x="710" y="724" type="curve" smooth="yes"/>
      <point x="710" y="483" type="line" smooth="yes"/>
      <point x="710" y="476.3"/>
      <point x="706.7" y="473"/>
      <point x="700" y="473" type="curve" smooth="yes"/>
      <point x="695" y="473" type="line" smooth="yes"/>
      <point x="688.314" y="473"/>
      <point x="684.955" y="476.286"/>
      <point x="684.78" y="482.998" type="curve" smooth="yes"/>
      <point x="680.679" y="640.631"/>
      <point x="647.769" y="703"/>
      <point x="493" y="703" type="curve" smooth="yes"/>
      <point x="414.74" y="703"/>
      <point x="380.176" y="703"/>
      <point x="350" y="703" type="curve" smooth="yes"/>
      <point x="343.3" y="703"/>
      <point x="340" y="706.3"/>
      <point x="340" y="713" type="curve" smooth="yes"/>
    </contour>
    <contour>
      <point x="380" y="724" type="line" smooth="yes"/>
      <point x="380" y="730.7"/>
      <point x="376.7" y="734"/>
      <point x="370" y="734" type="curve" smooth="yes"/>
      <point x="60.0001" y="734" type="line" smooth="yes"/>
      <point x="53.3" y="734"/>
      <point x="50" y="730.7"/>
      <point x="50" y="724" type="curve" smooth="yes"/>
      <point x="50" y="483" type="line" smooth="yes"/>
      <point x="50" y="476.3"/>
      <point x="53.3" y="473"/>
      <point x="60" y="473" type="curve" smooth="yes"/>
      <point x="65" y="473" type="line" smooth="yes"/>
      <point x="71.6863" y="473"/>
      <point x="75.0454" y="476.286"/>
      <point x="75.22" y="482.998" type="curve" smooth="yes"/>
      <point x="79.321" y="640.631"/>
      <point x="112.231" y="703"/>
      <point x="267" y="703" type="curve" smooth="yes"/>
      <point x="343.997" y="703"/>
      <point x="347.367" y="703"/>
      <point x="370" y="703" type="curve" smooth="yes"/>
      <point x="376.7" y="703"/>
      <point x="380" y="706.3"/>
      <point x="380" y="713" type="curve" smooth="yes"/>
    </contour>
  </outline>
</glyph>
<glyph name="U" format="2">
  <advance width="855"/>
  <unicode hex="0055"/>
  <outline>
    <contour>
      <point x="431" y="723" type="line" smooth="yes"/>
      <point x="431" y="729.7"/>
      <point x="427.7" y="733"/>
      <point x="421" y="733" type="curve" smooth="yes"/>
      <point x="60.0001" y="733" type="line" smooth="yes"/>
      <point x="53.3" y="733"/>
      <point x="50" y="729.7"/>
      <point x="50" y="723" type="curve" smooth="yes"/>
      <point x="50" y="713" type="line" smooth="yes"/>
      <point x="50" y="706.3"/>
      <point x="53.3001" y="703"/>
      <point x="60.0002" y="703" type="curve" smooth="yes"/>
      <point x="179.518" y="703" type="line" smooth="yes"/>
      <point x="186.541" y="703"/>
      <point x="190" y="699.541"/>
      <point x="190" y="692.517" type="curve" smooth="yes"/>
      <point x="190" y="502.184"/>
      <point x="190" y="369.988"/>
      <point x="190" y="205" type="curve" smooth="yes"/>
      <point x="190" y="48"/>
      <point x="301" y="0"/>
      <point x="441" y="0" type="curve" smooth="yes"/>
      <point x="565" y="0"/>
      <point x="665" y="94"/>
      <point x="665" y="205" type="curve" smooth="yes"/>
      <point x="665" y="361.883"/>
      <point x="665" y="491.19"/>
      <point x="665" y="662.518" type="curve" smooth="yes"/>
      <point x="665" y="689.641"/>
      <point x="678.359" y="703"/>
      <point x="705.482" y="703" type="curve" smooth="yes"/>
      <point x="795" y="703" type="line" smooth="yes"/>
      <point x="801.7" y="703"/>
      <point x="805" y="706.3"/>
      <point x="805" y="713" type="curve" smooth="yes"/>
      <point x="805" y="723" type="line" smooth="yes"/>
      <point x="805" y="729.7"/>
      <point x="801.7" y="733"/>
      <point x="795" y="733" type="curve" smooth="yes"/>
      <point x="499" y="733" type="line" smooth="yes"/>
      <point x="492.3" y="733"/>
      <point x="489" y="729.7"/>
      <point x="489" y="723" type="curve" smooth="yes"/>
      <point x="489" y="713" type="line" smooth="yes"/>
      <point x="489" y="706.3"/>
      <point x="492.3" y="703"/>
      <point x="499" y="703" type="curve" smooth="yes"/>
      <point x="580" y="703" type="line" smooth="yes"/>
      <point x="629" y="703"/>
      <point x="632" y="680"/>
      <point x="632" y="635" type="curve" smooth="yes"/>
      <point x="632" y="472"/>
      <point x="632" y="357"/>
      <point x="632" y="205" type="curve" smooth="yes"/>
      <point x="632" y="117"/>
      <point x="555" y="48"/>
      <point x="461" y="48" type="curve" smooth="yes"/>
      <point x="342" y="48"/>
      <point x="298" y="107"/>
      <point x="298" y="205" type="curve" smooth="yes"/>
      <point x="298" y="369.942"/>
      <point x="298" y="505.003"/>
      <point x="298" y="692.517" type="curve" smooth="yes"/>
      <point x="298" y="699.541"/>
      <point x="301.459" y="703"/>
      <point x="308.482" y="703" type="curve" smooth="yes"/>
      <point x="420.999" y="703" type="line" smooth="yes"/>
      <point x="427.7" y="703"/>
      <point x="431" y="706.3"/>
      <point x="431" y="713" type="curve" smooth="yes"/>
    </contour>
  </outline>
</glyph>
<glyph name="V" format="2">
  <advance width="843"/>
  <unicode hex="0056"/>
  <outline>
    <contour>
      <point x="438" y="723" type="line" smooth="yes"/>
      <point x="438" y="729.7"/>
      <point x="434.7" y="733"/>
      <point x="428" y="733" type="curve" smooth="yes"/>
      <point x="60.0001" y="733" type="line" smooth="yes"/>
      <point x="53.3" y="733"/>
      <point x="50" y="729.7"/>
      <point x="50" y="723" type="curve" smooth="yes"/>
      <point x="50" y="713" type="line" smooth="yes"/>
      <point x="50" y="706.3"/>
      <point x="53.3001" y="703"/>
      <point x="60.0002" y="703" type="curve" smooth="yes"/>
      <point x="179.518" y="703" type="line" smooth="yes"/>
      <point x="186.541" y="703"/>
      <point x="191.08" y="699.714"/>
      <point x="193.272" y="693.041" type="curve" smooth="yes"/>
      <point x="418.659" y="7.12528" type="line" smooth="yes"/>
      <point x="420.227" y="2.35134"/>
      <point x="423.475" y="1.13687e-13"/>
      <point x="428.5" y="0" type="curve"/>
      <point x="428.5" y="0" type="line"/>
      <point x="433.525" y="0"/>
      <point x="436.776" y="2.35035"/>
      <point x="438.35" y="7.12226" type="curve" smooth="yes"/>
      <point x="655.462" y="665.007" type="line" smooth="yes"/>
      <point x="663.862" y="690.462"/>
      <point x="681.193" y="703"/>
      <point x="707.978" y="703" type="curve" smooth="yes"/>
      <point x="783" y="703" type="line" smooth="yes"/>
      <point x="789.7" y="703"/>
      <point x="793" y="706.3"/>
      <point x="793" y="713" type="curve" smooth="yes"/>
      <point x="793" y="723" type="line" smooth="yes"/>
      <point x="793" y="729.7"/>
      <point x="789.7" y="733"/>
      <point x="783" y="733" type="curve" smooth="yes"/>
      <point x="500" y="733" type="line" smooth="yes"/>
      <point x="493.3" y="733"/>
      <point x="490" y="729.7"/>
      <point x="490" y="723" type="curve" smooth="yes"/>
      <point x="490" y="713" type="line" smooth="yes"/>
      <point x="490" y="706.3"/>
      <point x="493.3" y="703"/>
      <point x="500" y="703" type="curve" smooth="yes"/>
      <point x="560" y="703" type="line" smooth="yes"/>
      <point x="609" y="703"/>
      <point x="626" y="678"/>
      <point x="612" y="635" type="curve"/>
      <point x="611" y="631"/>
      <point x="610" y="628"/>
      <point x="609" y="625" type="curve" smooth="yes"/>
      <point x="461" y="178" type="line"/>
      <point x="471" y="178" type="line"/>
      <point x="301.281" y="693.043" type="line" smooth="yes"/>
      <point x="299.083" y="699.714"/>
      <point x="301.459" y="703"/>
      <point x="308.482" y="703" type="curve" smooth="yes"/>
      <point x="428" y="703" type="line" smooth="yes"/>
      <point x="434.7" y="703"/>
      <point x="438" y="706.3"/>
      <point x="438" y="713" type="curve" smooth="yes"/>
    </contour>
  </outline>
</glyph>
<glyph name="W" format="2">
  <advance width="1250"/>
  <unicode hex="0057"/>
  <outline>
    <contour>
      <point x="754" y="723" type="line" smooth="yes"/>
      <point x="754" y="729.7"/>
      <point x="750.7" y="733"/>
      <point x="744.001" y="733" type="curve" smooth="yes"/>
      <point x="476.999" y="733" type="line" smooth="yes"/>
      <point x="470.3" y="733"/>
      <point x="467" y="729.7"/>
      <point x="467" y="723" type="curve" smooth="yes"/>
      <point x="467" y="713" type="line" smooth="yes"/>
      <point x="467" y="706.3"/>
      <point x="470.3" y="703"/>
      <point x="477" y="703" type="curve" smooth="yes"/>
      <point x="515.918" y="703" type="line" smooth="yes"/>
      <point x="542.773" y="703"/>
      <point x="560.129" y="690.434"/>
      <point x="568.512" y="664.922" type="curve" smooth="yes"/>
      <point x="785.283" y="5.22502" type="line" smooth="yes"/>
      <point x="786.433" y="1.72426"/>
      <point x="788.815" y="0"/>
      <point x="792.5" y="0" type="curve"/>
      <point x="792.5" y="0" type="line"/>
      <point x="796.185" y="0"/>
      <point x="798.569" y="1.72354"/>
      <point x="799.724" y="5.22284" type="curve" smooth="yes"/>
      <point x="1017.62" y="665.48" type="line" smooth="yes"/>
      <point x="1025.91" y="690.618"/>
      <point x="1043.04" y="703"/>
      <point x="1069.51" y="703" type="curve" smooth="yes"/>
      <point x="1160" y="703" type="line" smooth="yes"/>
      <point x="1166.7" y="703"/>
      <point x="1170" y="706.3"/>
      <point x="1170" y="713" type="curve" smooth="yes"/>
      <point x="1170" y="723" type="line" smooth="yes"/>
      <point x="1170" y="729.7"/>
      <point x="1166.7" y="733"/>
      <point x="1160" y="733" type="curve" smooth="yes"/>
      <point x="835" y="733" type="line" smooth="yes"/>
      <point x="828.3" y="733"/>
      <point x="825" y="729.7"/>
      <point x="825" y="723" type="curve" smooth="yes"/>
      <point x="825" y="713" type="line" smooth="yes"/>
      <point x="825" y="706.3"/>
      <point x="828.3" y="703"/>
      <point x="835" y="703" type="curve" smooth="yes"/>
      <point x="926" y="703" type="line" smooth="yes"/>
      <point x="975" y="703"/>
      <point x="992" y="678"/>
      <point x="978" y="635" type="curve"/>
      <point x="977" y="631"/>
      <point x="976" y="628"/>
      <point x="975" y="625" type="curve" smooth="yes"/>
      <point x="827" y="178" type="line"/>
      <point x="837" y="178" type="line"/>
      <point x="676.541" y="664.942" type="line" smooth="yes"/>
      <point x="668.138" y="690.441"/>
      <point x="677.223" y="703"/>
      <point x="704.071" y="703" type="curve" smooth="yes"/>
      <point x="744" y="703" type="line" smooth="yes"/>
      <point x="750.7" y="703"/>
      <point x="754" y="706.3"/>
      <point x="754" y="713" type="curve" smooth="yes"/>
    </contour>
    <contour>
      <point x="438" y="723" type="line" smooth="yes"/>
      <point x="438" y="729.7"/>
      <point x="434.7" y="733"/>
      <point x="428" y="733" type="curve" smooth="yes"/>
      <point x="60.0001" y="733" type="line" smooth="yes"/>
      <point x="53.3" y="733"/>
      <point x="50" y="729.7"/>
      <point x="50" y="723" type="curve" smooth="yes"/>
      <point x="50" y="713" type="line" smooth="yes"/>
      <point x="50" y="706.3"/>
      <point x="53.3001" y="703"/>
      <point x="60.0002" y="703" type="curve" smooth="yes"/>
      <point x="179.518" y="703" type="line" smooth="yes"/>
      <point x="186.541" y="703"/>
      <point x="191.08" y="699.714"/>
      <point x="193.272" y="693.041" type="curve" smooth="yes"/>
      <point x="419.283" y="5.22502" type="line" smooth="yes"/>
      <point x="420.433" y="1.72426"/>
      <point x="422.815" y="0"/>
      <point x="426.5" y="0" type="curve"/>
      <point x="426.5" y="0" type="line"/>
      <point x="430.185" y="0"/>
      <point x="432.569" y="1.72354"/>
      <point x="433.724" y="5.22284" type="curve" smooth="yes"/>
      <point x="651.462" y="665.007" type="line" smooth="yes"/>
      <point x="659.862" y="690.462"/>
      <point x="677.203" y="703"/>
      <point x="704.009" y="703" type="curve" smooth="yes"/>
      <point x="783" y="703" type="line" smooth="yes"/>
      <point x="789.7" y="703"/>
      <point x="793" y="706.3"/>
      <point x="793" y="713" type="curve" smooth="yes"/>
      <point x="793" y="723" type="line" smooth="yes"/>
      <point x="793" y="729.7"/>
      <point x="789.7" y="733"/>
      <point x="783" y="733" type="curve" smooth="yes"/>
      <point x="500" y="733" type="line" smooth="yes"/>
      <point x="493.3" y="733"/>
      <point x="490" y="729.7"/>
      <point x="490" y="723" type="curve" smooth="yes"/>
      <point x="490" y="713" type="line" smooth="yes"/>
      <point x="490" y="706.3"/>
      <point x="493.3" y="703"/>
      <point x="500" y="703" type="curve" smooth="yes"/>
      <point x="560" y="703" type="line" smooth="yes"/>
      <point x="609" y="703"/>
      <point x="626" y="678"/>
      <point x="612" y="635" type="curve"/>
      <point x="611" y="631"/>
      <point x="610" y="628"/>
      <point x="609" y="625" type="curve" smooth="yes"/>
      <point x="461" y="178" type="line"/>
      <point x="471" y="178" type="line"/>
      <point x="301.281" y="693.043" type="line" smooth="yes"/>
      <point x="299.083" y="699.714"/>
      <point x="301.459" y="703"/>
      <point x="308.482" y="703" type="curve" smooth="yes"/>
      <point x="428" y="703" type="line" smooth="yes"/>
      <point x="434.7" y="703"/>
      <point x="438" y="706.3"/>
      <point x="438" y="713" type="curve" smooth="yes"/>
    </contour>
  </outline>
</glyph>
<glyph name="X" format="2">
  <advance width="770"/>
  <unicode hex="0058"/>
  <outline>
    <contour>
      <point x="673" y="694" type="line" smooth="yes"/>
      <point x="677" y="700"/>
      <point x="681" y="703"/>
      <point x="688" y="703" type="curve" smooth="yes"/>
      <point x="747" y="703" type="line" smooth="yes"/>
      <point x="754" y="703"/>
      <point x="757" y="706"/>
      <point x="757" y="713" type="curve" smooth="yes"/>
      <point x="757" y="723" type="line" smooth="yes"/>
      <point x="757" y="730"/>
      <point x="754" y="733"/>
      <point x="747" y="733" type="curve" smooth="yes"/>
      <point x="477" y="733" type="line" smooth="yes"/>
      <point x="470" y="733"/>
      <point x="467" y="730"/>
      <point x="467" y="723" type="curve" smooth="yes"/>
      <point x="467" y="713" type="line" smooth="yes"/>
      <point x="467" y="706"/>
      <point x="470" y="703"/>
      <point x="477" y="703" type="curve" smooth="yes"/>
      <point x="548" y="703" type="line" smooth="yes"/>
      <point x="598" y="703"/>
      <point x="607" y="658"/>
      <point x="581" y="625" type="curve" smooth="yes"/>
      <point x="120" y="39" type="line" smooth="yes"/>
      <point x="116" y="33"/>
      <point x="112" y="30"/>
      <point x="105" y="30" type="curve" smooth="yes"/>
      <point x="20" y="30" type="line" smooth="yes"/>
      <point x="13" y="30"/>
      <point x="10" y="27"/>
      <point x="10" y="20" type="curve" smooth="yes"/>
      <point x="10" y="10" type="line" smooth="yes"/>
      <point x="10" y="3"/>
      <point x="13" y="0"/>
      <point x="20" y="0" type="curve" smooth="yes"/>
      <point x="290" y="0" type="line" smooth="yes"/>
      <point x="297" y="0"/>
      <point x="300" y="3"/>
      <point x="300" y="10" type="curve" smooth="yes"/>
      <point x="300" y="20" type="line" smooth="yes"/>
      <point x="300" y="27"/>
      <point x="297" y="30"/>
      <point x="290" y="30" type="curve" smooth="yes"/>
      <point x="243" y="30" type="line" smooth="yes"/>
      <point x="197" y="30"/>
      <point x="177" y="68"/>
      <point x="209" y="108" type="curve" smooth="yes"/>
    </contour>
    <contour>
      <point x="118" y="693" type="line" smooth="yes"/>
      <point x="114" y="699"/>
      <point x="110" y="702"/>
      <point x="103" y="702" type="curve" smooth="yes"/>
      <point x="20" y="702" type="line" smooth="yes"/>
      <point x="13" y="702"/>
      <point x="10" y="705"/>
      <point x="10" y="712" type="curve" smooth="yes"/>
      <point x="10" y="722" type="line" smooth="yes"/>
      <point x="10" y="729"/>
      <point x="13" y="732"/>
      <point x="20" y="732" type="curve" smooth="yes"/>
      <point x="380" y="732" type="line" smooth="yes"/>
      <point x="387" y="732"/>
      <point x="390" y="729"/>
      <point x="390" y="722" type="curve" smooth="yes"/>
      <point x="390" y="712" type="line" smooth="yes"/>
      <point x="390" y="705"/>
      <point x="387" y="702"/>
      <point x="380" y="702" type="curve" smooth="yes"/>
      <point x="309" y="702" type="line" smooth="yes"/>
      <point x="259" y="702"/>
      <point x="254" y="658"/>
      <point x="276" y="624" type="curve" smooth="yes"/>
      <point x="650" y="39" type="line" smooth="yes"/>
      <point x="654" y="33"/>
      <point x="658" y="30"/>
      <point x="665" y="30" type="curve" smooth="yes"/>
      <point x="750" y="30" type="line" smooth="yes"/>
      <point x="757" y="30"/>
      <point x="760" y="27"/>
      <point x="760" y="20" type="curve" smooth="yes"/>
      <point x="760" y="10" type="line" smooth="yes"/>
      <point x="760" y="3"/>
      <point x="757" y="0"/>
      <point x="750" y="0" type="curve" smooth="yes"/>
      <point x="390" y="0" type="line" smooth="yes"/>
      <point x="383" y="0"/>
      <point x="380" y="3"/>
      <point x="380" y="10" type="curve" smooth="yes"/>
      <point x="380" y="20" type="line" smooth="yes"/>
      <point x="380" y="27"/>
      <point x="383" y="30"/>
      <point x="390" y="30" type="curve" smooth="yes"/>
      <point x="461" y="30" type="line" smooth="yes"/>
      <point x="507" y="30"/>
      <point x="523" y="65"/>
      <point x="495" y="108" type="curve" smooth="yes"/>
    </contour>
  </outline>
</glyph>
<glyph name="Y" format="2">
  <advance width="818"/>
  <unicode hex="0059"/>
  <outline>
    <contour>
      <point x="337.175" y="41.9686" type="line" smooth="yes"/>
      <point x="337.175" y="34.795"/>
      <point x="333.642" y="31.2617"/>
      <point x="326.468" y="31.2617" type="curve" smooth="yes"/>
      <point x="193.704" y="31.2617" type="line" smooth="yes"/>
      <point x="186.53" y="31.2617"/>
      <point x="182.997" y="27.7284"/>
      <point x="182.997" y="20.5548" type="curve" smooth="yes"/>
      <point x="182.997" y="10.919" type="line" smooth="yes"/>
      <point x="182.997" y="3.74534"/>
      <point x="186.531" y="0.212037"/>
      <point x="193.704" y="0.212037" type="curve" smooth="yes"/>
      <point x="618.763" y="0.212037" type="line" smooth="yes"/>
      <point x="625.937" y="0.212037"/>
      <point x="629.47" y="3.74534"/>
      <point x="629.47" y="10.919" type="curve" smooth="yes"/>
      <point x="629.47" y="20.5548" type="line" smooth="yes"/>
      <point x="629.47" y="27.7284"/>
      <point x="625.937" y="31.2617"/>
      <point x="618.763" y="31.2617" type="curve" smooth="yes"/>
      <point x="483.858" y="31.2617" type="line" smooth="yes"/>
      <point x="476.685" y="31.2617"/>
      <point x="473.151" y="34.795"/>
      <point x="473.151" y="41.9686" type="curve" smooth="yes"/>
      <point x="473.151" y="328.911" type="line"/>
      <point x="337.175" y="328.911" type="line"/>
    </contour>
    <contour>
      <point x="420" y="725.226" type="line" smooth="yes"/>
      <point x="420" y="730.259"/>
      <point x="416.7" y="732.737"/>
      <point x="410.001" y="732.737" type="curve" smooth="yes"/>
      <point x="59.9986" y="732.737" type="line" smooth="yes"/>
      <point x="53.2995" y="732.737"/>
      <point x="50" y="730.259"/>
      <point x="50" y="725.226" type="curve" smooth="yes"/>
      <point x="50" y="717.714" type="line" smooth="yes"/>
      <point x="50" y="712.682"/>
      <point x="53.2999" y="710.203"/>
      <point x="59.9996" y="710.203" type="curve" smooth="yes"/>
      <point x="158.517" y="710.203" type="line" smooth="yes"/>
      <point x="165.541" y="710.203"/>
      <point x="170.086" y="707.73"/>
      <point x="172.292" y="702.709" type="curve" smooth="yes"/>
      <point x="396.866" y="191.532" type="line" smooth="yes"/>
      <point x="398.966" y="186.753"/>
      <point x="403.3" y="184.399"/>
      <point x="410" y="184.399" type="curve" smooth="yes"/>
      <point x="411" y="184.399" type="line" smooth="yes"/>
      <point x="417.7" y="184.399"/>
      <point x="422.118" y="186.731"/>
      <point x="424.387" y="191.466" type="curve" smooth="yes"/>
      <point x="669.449" y="702.794" type="line" smooth="yes"/>
      <point x="671.828" y="707.758"/>
      <point x="676.459" y="710.203"/>
      <point x="683.483" y="710.203" type="curve" smooth="yes"/>
      <point x="757.999" y="710.203" type="line" smooth="yes"/>
      <point x="764.7" y="710.203"/>
      <point x="768" y="712.682"/>
      <point x="768" y="717.714" type="curve" smooth="yes"/>
      <point x="768" y="725.226" type="line" smooth="yes"/>
      <point x="768" y="730.259"/>
      <point x="764.7" y="732.737"/>
      <point x="758" y="732.737" type="curve" smooth="yes"/>
      <point x="468" y="732.737" type="line" smooth="yes"/>
      <point x="461.3" y="732.737"/>
      <point x="458" y="730.259"/>
      <point x="458" y="725.226" type="curve" smooth="yes"/>
      <point x="458" y="717.714" type="line" smooth="yes"/>
      <point x="458" y="712.682"/>
      <point x="461.3" y="710.203"/>
      <point x="468" y="710.203" type="curve" smooth="yes"/>
      <point x="559" y="710.203" type="line" smooth="yes"/>
      <point x="608" y="710.203"/>
      <point x="625" y="691.424"/>
      <point x="611" y="659.125" type="curve"/>
      <point x="610" y="656.12"/>
      <point x="609" y="653.867"/>
      <point x="608" y="651.613" type="curve"/>
      <point x="440" y="318.103" type="line"/>
      <point x="470" y="318.103" type="line"/>
      <point x="300.298" y="702.728" type="line" smooth="yes"/>
      <point x="298.088" y="707.736"/>
      <point x="300.459" y="710.203"/>
      <point x="307.483" y="710.203" type="curve" smooth="yes"/>
      <point x="410" y="710.203" type="line" smooth="yes"/>
      <point x="416.7" y="710.203"/>
      <point x="420" y="712.682"/>
      <point x="420" y="717.714" type="curve" smooth="yes"/>
    </contour>
  </outline>
</glyph>
<glyph name="Z" format="2">
  <advance width="626"/>
  <unicode hex="005A"/>
  <outline>
    <contour>
      <point x="452.551" y="730.802" type="line" smooth="yes"/>
      <point x="445.392" y="731.26"/>
      <point x="440.199" y="728.371"/>
      <point x="436.814" y="722.046" type="curve" smooth="yes"/>
      <point x="55.0485" y="8.58153" type="line" smooth="yes"/>
      <point x="51.6642" y="2.25661"/>
      <point x="53.5304" y="-0.858642"/>
      <point x="60.7039" y="-0.858642" type="curve" smooth="yes"/>
      <point x="177.408" y="-0.858642" type="line" smooth="yes"/>
      <point x="184.582" y="-0.858642"/>
      <point x="189.783" y="2.25614"/>
      <point x="193.169" y="8.58009" type="curve" smooth="yes"/>
      <point x="570.646" y="713.482" type="line" smooth="yes"/>
      <point x="574.033" y="719.806"/>
      <point x="572.175" y="723.146"/>
      <point x="565.016" y="723.604" type="curve" smooth="yes"/>
    </contour>
    <contour>
      <point x="569.355" y="710.001" type="line" smooth="yes"/>
      <point x="566.437" y="703.97"/>
      <point x="561.713" y="701"/>
      <point x="555.039" y="701" type="curve" smooth="yes"/>
      <point x="505.411" y="701"/>
      <point x="347.373" y="701"/>
      <point x="267" y="701" type="curve" smooth="yes"/>
      <point x="112.231" y="701"/>
      <point x="79.321" y="638.631"/>
      <point x="75.22" y="480.998" type="curve" smooth="yes"/>
      <point x="75.0454" y="474.286"/>
      <point x="71.6863" y="471"/>
      <point x="65" y="471" type="curve" smooth="yes"/>
      <point x="60" y="471" type="line" smooth="yes"/>
      <point x="53.3" y="471"/>
      <point x="50" y="474.3"/>
      <point x="50" y="481" type="curve" smooth="yes"/>
      <point x="50" y="722" type="line" smooth="yes"/>
      <point x="50" y="728.7"/>
      <point x="53.3" y="732"/>
      <point x="59.9999" y="732" type="curve" smooth="yes"/>
      <point x="570" y="732" type="line" smooth="yes"/>
      <point x="576.7" y="732"/>
      <point x="578.563" y="729.03"/>
      <point x="575.645" y="722.999" type="curve" smooth="yes"/>
    </contour>
    <contour>
      <point x="563" y="-1" type="line" smooth="yes"/>
      <point x="569.7" y="-1"/>
      <point x="573" y="2.29992"/>
      <point x="573" y="8.99975" type="curve" smooth="yes"/>
      <point x="573" y="251" type="line" smooth="yes"/>
      <point x="573" y="257.7"/>
      <point x="569.7" y="261"/>
      <point x="563" y="261" type="curve" smooth="yes"/>
      <point x="558" y="261" type="line" smooth="yes"/>
      <point x="551.314" y="261"/>
      <point x="547.955" y="257.714"/>
      <point x="547.78" y="251.002" type="curve" smooth="yes"/>
      <point x="543.679" y="93.3285"/>
      <point x="510.769" y="30"/>
      <point x="356" y="30" type="curve" smooth="yes"/>
      <point x="275.959" y="30"/>
      <point x="145.979" y="30"/>
      <point x="100" y="30" type="curve" smooth="yes"/>
      <point x="93.2998" y="30"/>
      <point x="90" y="26.6999"/>
      <point x="90" y="19.9998" type="curve" smooth="yes"/>
      <point x="90" y="9.00017" type="line" smooth="yes"/>
      <point x="90" y="2.30006"/>
      <point x="93.3001" y="-1"/>
      <point x="100" y="-1" type="curve" smooth="yes"/>
    </contour>
  </outline>
</glyph>
<glyph name="a" format="2">
  <advance width="503"/>
  <unicode hex="0061"/>
  <outline>
    <contour>
      <point x="42.2606" y="343.529" type="curve" smooth="yes"/>
      <point x="42.2606" y="449.467"/>
      <point x="125.085" y="480.286"/>
      <point x="234.876" y="480.286" type="curve" smooth="yes"/>
      <point x="315.774" y="480.286"/>
      <point x="369.706" y="424.427"/>
      <point x="369.706" y="349.307" type="curve" smooth="yes"/>
      <point x="369.706" y="258.778"/>
      <point x="369.706" y="146.098"/>
      <point x="369.706" y="87.3506" type="curve"/>
      <point x="395.709" y="99.8706"/>
      <point x="429.417" y="97.9445"/>
      <point x="445.789" y="83.4983" type="curve" smooth="yes"/>
      <point x="476.608" y="55.5691"/>
      <point x="466.977" y="-4.1416"/>
      <point x="390.894" y="0.673784" type="curve" smooth="yes"/>
      <point x="345.629" y="3.56301"/>
      <point x="318.663" y="32.4553"/>
      <point x="284.956" y="86.3875" type="curve"/>
      <point x="269.546" y="25.7138"/>
      <point x="208.873" y="-1.25237"/>
      <point x="148.199" y="-1.25237" type="curve" smooth="yes"/>
      <point x="52.8544" y="-1.25237"/>
      <point x="35.519" y="68.0891"/>
      <point x="42.2606" y="117.206" type="curve" smooth="yes"/>
      <point x="56.7067" y="223.144"/>
      <point x="187.685" y="283.818"/>
      <point x="269.546" y="287.67" type="curve"/>
      <point x="269.546" y="343.529" type="line" smooth="yes"/>
      <point x="269.546" y="404.203"/>
      <point x="254.137" y="435.021"/>
      <point x="193.463" y="435.021" type="curve" smooth="yes"/>
      <point x="163.608" y="435.021"/>
      <point x="115.454" y="420.575"/>
      <point x="99.082" y="383.978" type="curve"/>
      <point x="135.679" y="389.756"/>
      <point x="163.608" y="375.31"/>
      <point x="160.719" y="330.046" type="curve" smooth="yes"/>
      <point x="158.793" y="297.301"/>
      <point x="130.864" y="282.855"/>
      <point x="102.934" y="282.855" type="curve" smooth="yes"/>
      <point x="57.6698" y="282.855"/>
      <point x="42.2606" y="313.673"/>
    </contour>
    <contour>
      <point x="118.344" y="131.652" type="curve" smooth="yes"/>
      <point x="106.787" y="82.5352"/>
      <point x="135.679" y="57.4953"/>
      <point x="182.87" y="57.4953" type="curve" smooth="yes"/>
      <point x="258.953" y="57.4953"/>
      <point x="269.546" y="109.501"/>
      <point x="269.546" y="117.206" type="curve"/>
      <point x="269.546" y="248.184" type="line"/>
      <point x="193.463" y="243.369"/>
      <point x="133.753" y="198.104"/>
    </contour>
  </outline>
  <guideline angle="0" x="0" y="480"/>
</glyph>
<glyph name="d" format="2">
  <advance width="675"/>
  <unicode hex="0064"/>
  <outline>
    <contour>
      <point x="419.83" y="241.8" type="curve" smooth="yes"/>
      <point x="419.83" y="353.055"/>
      <point x="361.168" y="470.379"/>
      <point x="239.799" y="470.379" type="curve" smooth="yes"/>
      <point x="99.2127" y="470.379"/>
      <point x="30.4368" y="353.055"/>
      <point x="30.4368" y="241.8" type="curve" smooth="yes"/>
      <point x="30.4368" y="86.0425"/>
      <point x="99.2127" y="-5.99586"/>
      <point x="239.799" y="-5.99586" type="curve" smooth="yes"/>
      <point x="340.94" y="-5.99586"/>
      <point x="419.83" y="86.0425"/>
    </contour>
    <contour>
      <point x="391.51" y="241.8" type="curve" smooth="yes"/>
      <point x="391.51" y="146.727"/>
      <point x="349.031" y="25.3579"/>
      <point x="243.844" y="25.3579" type="curve" smooth="yes"/>
      <point x="137.646" y="25.3579"/>
      <point x="104.27" y="146.727"/>
      <point x="104.27" y="241.8" type="curve" smooth="yes"/>
      <point x="104.27" y="320.69"/>
      <point x="137.646" y="442.059"/>
      <point x="243.844" y="442.059" type="curve" smooth="yes"/>
      <point x="355.1" y="442.059"/>
      <point x="391.51" y="320.69"/>
    </contour>
    <contour>
      <point x="284.542" y="720.779" type="line" smooth="yes"/>
      <point x="284.542" y="728.274"/>
      <point x="287.754" y="731.486"/>
      <point x="295.248" y="731.486" type="curve" smooth="yes"/>
      <point x="487.971" y="731.486" type="line" smooth="yes"/>
      <point x="495.465" y="731.486"/>
      <point x="498.677" y="728.274"/>
      <point x="498.677" y="720.779" type="curve" smooth="yes"/>
      <point x="498.677" y="41.9685" type="line" smooth="yes"/>
      <point x="498.677" y="34.4738"/>
      <point x="501.89" y="31.2617"/>
      <point x="509.384" y="31.2617" type="curve" smooth="yes"/>
      <point x="603.604" y="31.2617" type="line" smooth="yes"/>
      <point x="611.099" y="31.2617"/>
      <point x="614.311" y="28.0497"/>
      <point x="614.311" y="20.5549" type="curve" smooth="yes"/>
      <point x="614.311" y="10.9188" type="line" smooth="yes"/>
      <point x="614.311" y="3.42407"/>
      <point x="611.099" y="0.212037"/>
      <point x="603.604" y="0.212037" type="curve" smooth="yes"/>
      <point x="410.882" y="0.212037" type="line" smooth="yes"/>
      <point x="403.387" y="0.212037"/>
      <point x="400.175" y="3.42407"/>
      <point x="400.175" y="10.9188" type="curve" smooth="yes"/>
      <point x="400.175" y="646.902" type="line" smooth="yes"/>
      <point x="400.175" y="682.235"/>
      <point x="381.973" y="700.436"/>
      <point x="346.641" y="700.436" type="curve" smooth="yes"/>
      <point x="295.248" y="700.436" type="line" smooth="yes"/>
      <point x="287.754" y="700.436"/>
      <point x="284.542" y="703.648"/>
      <point x="284.542" y="711.143" type="curve" smooth="yes"/>
    </contour>
  </outline>
  <guideline angle="0" x="0" y="470"/>
</glyph>
<glyph name="f" format="2">
  <advance width="512"/>
  <unicode hex="0066"/>
  <outline>
    <contour>
      <point x="30.5417" y="450.968" type="line" smooth="yes"/>
      <point x="30.5417" y="443.473"/>
      <point x="33.7537" y="440.261"/>
      <point x="41.2485" y="440.261" type="curve" smooth="yes"/>
      <point x="135.468" y="440.261" type="line" smooth="yes"/>
      <point x="142.963" y="440.261"/>
      <point x="146.175" y="437.049"/>
      <point x="146.175" y="429.554" type="curve" smooth="yes"/>
      <point x="146.175" y="41.9685" type="line" smooth="yes"/>
      <point x="146.175" y="34.4738"/>
      <point x="142.963" y="31.2617"/>
      <point x="135.468" y="31.2617" type="curve" smooth="yes"/>
      <point x="41.2485" y="31.2617" type="line" smooth="yes"/>
      <point x="33.7537" y="31.2617"/>
      <point x="30.5417" y="28.0497"/>
      <point x="30.5417" y="20.5549" type="curve" smooth="yes"/>
      <point x="30.5417" y="10.9188" type="line" smooth="yes"/>
      <point x="30.5417" y="3.42407"/>
      <point x="33.7537" y="0.212037"/>
      <point x="41.2485" y="0.212037" type="curve" smooth="yes"/>
      <point x="349.604" y="0.212037" type="line" smooth="yes"/>
      <point x="357.099" y="0.212037"/>
      <point x="360.311" y="3.42407"/>
      <point x="360.311" y="10.9188" type="curve" smooth="yes"/>
      <point x="360.311" y="20.5549" type="line" smooth="yes"/>
      <point x="360.311" y="28.0497"/>
      <point x="357.099" y="31.2617"/>
      <point x="349.604" y="31.2617" type="curve" smooth="yes"/>
      <point x="255.384" y="31.2617" type="line" smooth="yes"/>
      <point x="247.89" y="31.2617"/>
      <point x="244.677" y="34.4738"/>
      <point x="244.677" y="41.9685" type="curve" smooth="yes"/>
      <point x="244.677" y="429.554" type="line" smooth="yes"/>
      <point x="244.677" y="437.049"/>
      <point x="247.89" y="440.261"/>
      <point x="255.384" y="440.261" type="curve" smooth="yes"/>
      <point x="349.604" y="440.261" type="line" smooth="yes"/>
      <point x="357.099" y="440.261"/>
      <point x="360.311" y="443.473"/>
      <point x="360.311" y="450.968" type="curve" smooth="yes"/>
      <point x="360.311" y="460.604" type="line" smooth="yes"/>
      <point x="360.311" y="468.099"/>
      <point x="357.099" y="471.311"/>
      <point x="349.604" y="471.311" type="curve" smooth="yes"/>
      <point x="244.677" y="471.311" type="line"/>
      <point x="146.175" y="471.311" type="line"/>
      <point x="41.2485" y="471.311" type="line" smooth="yes"/>
      <point x="33.7537" y="471.311"/>
      <point x="30.5417" y="468.099"/>
      <point x="30.5417" y="460.604" type="curve" smooth="yes"/>
    </contour>
    <contour>
      <point x="144.724" y="491.134" type="curve" smooth="yes"/>
      <point x="144.724" y="469.254"/>
      <point x="144.724" y="470.621"/>
      <point x="144.724" y="447.373" type="curve"/>
      <point x="244.554" y="447.373" type="line"/>
      <point x="244.554" y="474.724"/>
      <point x="244.554" y="447.373"/>
      <point x="244.554" y="491.134" type="curve" smooth="yes"/>
      <point x="244.554" y="606.007"/>
      <point x="240.451" y="699"/>
      <point x="355.325" y="699" type="curve"/>
      <point x="341.649" y="681.222"/>
      <point x="329.341" y="657.974"/>
      <point x="329.341" y="636.093" type="curve" smooth="yes"/>
      <point x="329.341" y="592.332"/>
      <point x="359.427" y="563.614"/>
      <point x="403.188" y="569.084" type="curve" smooth="yes"/>
      <point x="442.847" y="574.554"/>
      <point x="455.155" y="607.375"/>
      <point x="451.052" y="640.196" type="curve" smooth="yes"/>
      <point x="441.479" y="718.145"/>
      <point x="378.573" y="731.821"/>
      <point x="319.769" y="731.821" type="curve" smooth="yes"/>
      <point x="185.75" y="731.821"/>
      <point x="144.724" y="611.478"/>
    </contour>
  </outline>
</glyph>
<glyph name="g" format="2">
  <advance width="590"/>
  <unicode hex="0067"/>
  <outline>
    <contour>
      <point x="356.069" y="450.592" type="curve" smooth="yes"/>
      <point x="370.467" y="446.272"/>
      <point x="381.986" y="449.152"/>
      <point x="393.505" y="457.791" type="curve" smooth="yes"/>
      <point x="403.584" y="466.43"/>
      <point x="413.663" y="473.629"/>
      <point x="435.26" y="475.069" type="curve" smooth="yes"/>
      <point x="505.813" y="479.389"/>
      <point x="547.568" y="404.517"/>
      <point x="541.809" y="355.562" type="curve" smooth="yes"/>
      <point x="538.929" y="328.205"/>
      <point x="520.211" y="315.247"/>
      <point x="492.854" y="315.247" type="curve" smooth="yes"/>
      <point x="475.576" y="315.247"/>
      <point x="439.58" y="325.325"/>
      <point x="442.46" y="364.201" type="curve" smooth="yes"/>
      <point x="445.339" y="400.197"/>
      <point x="474.136" y="400.197"/>
      <point x="475.576" y="413.156" type="curve"/>
      <point x="479.895" y="441.953"/>
      <point x="379.106" y="443.392"/>
      <point x="392.065" y="413.156" type="curve" smooth="yes"/>
      <point x="443.899" y="293.649"/>
      <point x="397.824" y="149.665"/>
      <point x="245.201" y="149.665" type="curve" smooth="yes"/>
      <point x="227.923" y="149.665"/>
      <point x="164.57" y="156.864"/>
      <point x="144.412" y="165.503" type="curve" smooth="yes"/>
      <point x="98.3373" y="184.221"/>
      <point x="82.499" y="133.826"/>
      <point x="79.6193" y="97.8304" type="curve" smooth="yes"/>
      <point x="78.1795" y="87.7515"/>
      <point x="83.9388" y="83.4319"/>
      <point x="94.0177" y="83.4319" type="curve" smooth="yes"/>
      <point x="258.16" y="92.071"/>
      <point x="475.576" y="110.789"/>
      <point x="475.576" y="-97.9882" type="curve" smooth="yes"/>
      <point x="475.576" y="-214.615"/>
      <point x="360.389" y="-279.408"/>
      <point x="261.039" y="-279.408" type="curve" smooth="yes"/>
      <point x="163.13" y="-279.408"/>
      <point x="40.7436" y="-256.371"/>
      <point x="30.6647" y="-146.943" type="curve" smooth="yes"/>
      <point x="26.3452" y="-105.187"/>
      <point x="45.0631" y="-61.9921"/>
      <point x="68.1006" y="-40.3945" type="curve" smooth="yes"/>
      <point x="75.2998" y="-33.1953"/>
      <point x="76.7396" y="-28.8757"/>
      <point x="69.5404" y="-21.6765" type="curve" smooth="yes"/>
      <point x="43.6233" y="4.24063"/>
      <point x="30.6647" y="22.9586"/>
      <point x="30.6647" y="66.1538" type="curve" smooth="yes"/>
      <point x="30.6647" y="107.909"/>
      <point x="56.5818" y="153.984"/>
      <point x="76.7396" y="179.901" type="curve" smooth="yes"/>
      <point x="82.499" y="187.101"/>
      <point x="82.499" y="194.3"/>
      <point x="76.7396" y="201.499" type="curve" smooth="yes"/>
      <point x="60.9014" y="220.217"/>
      <point x="50.8225" y="241.815"/>
      <point x="46.5029" y="280.69" type="curve" smooth="yes"/>
      <point x="33.5444" y="413.156"/>
      <point x="114.176" y="479.389"/>
      <point x="227.923" y="479.389" type="curve" smooth="yes"/>
      <point x="282.637" y="479.389"/>
      <point x="322.953" y="460.671"/>
    </contour>
    <contour>
      <point x="144.412" y="315.247" type="curve" smooth="yes"/>
      <point x="144.412" y="247.574"/>
      <point x="144.412" y="182.781"/>
      <point x="227.923" y="182.781" type="curve" smooth="yes"/>
      <point x="309.994" y="182.781"/>
      <point x="309.994" y="231.736"/>
      <point x="309.994" y="315.247" type="curve" smooth="yes"/>
      <point x="309.994" y="397.318"/>
      <point x="309.994" y="446.272"/>
      <point x="227.923" y="446.272" type="curve" smooth="yes"/>
      <point x="144.412" y="446.272"/>
      <point x="144.412" y="380.039"/>
    </contour>
    <contour>
      <point x="73.8599" y="-125.345" type="curve" smooth="yes"/>
      <point x="73.8599" y="-226.134"/>
      <point x="161.69" y="-247.732"/>
      <point x="245.201" y="-247.732" type="curve" smooth="yes"/>
      <point x="343.11" y="-247.732"/>
      <point x="409.343" y="-197.337"/>
      <point x="409.343" y="-97.9882" type="curve" smooth="yes"/>
      <point x="409.343" y="-38.9546"/>
      <point x="360.389" y="-18.7968"/>
      <point x="294.156" y="-15.9172" type="curve" smooth="yes"/>
      <point x="197.686" y="-13.0375"/>
      <point x="73.8599" y="-27.4359"/>
    </contour>
  </outline>
  <guideline angle="0" x="0" y="480"/>
</glyph>
<glyph name="i" format="2">
  <advance width="408"/>
  <unicode hex="0069"/>
  <outline>
    <contour>
      <point x="30.5417" y="489.512" type="line" smooth="yes"/>
      <point x="30.5417" y="482.018"/>
      <point x="33.7537" y="478.806"/>
      <point x="41.2485" y="478.806" type="curve" smooth="yes"/>
      <point x="92.6411" y="478.806" type="line" smooth="yes"/>
      <point x="127.973" y="478.806"/>
      <point x="146.175" y="460.604"/>
      <point x="146.175" y="425.272" type="curve" smooth="yes"/>
      <point x="146.175" y="41.9685" type="line" smooth="yes"/>
      <point x="146.175" y="34.4738"/>
      <point x="142.963" y="31.2617"/>
      <point x="135.468" y="31.2617" type="curve" smooth="yes"/>
      <point x="41.2485" y="31.2617" type="line" smooth="yes"/>
      <point x="33.7537" y="31.2617"/>
      <point x="30.5417" y="28.0497"/>
      <point x="30.5417" y="20.5549" type="curve" smooth="yes"/>
      <point x="30.5417" y="10.9188" type="line" smooth="yes"/>
      <point x="30.5417" y="3.42407"/>
      <point x="33.7537" y="0.212037"/>
      <point x="41.2485" y="0.212037" type="curve" smooth="yes"/>
      <point x="349.604" y="0.212037" type="line" smooth="yes"/>
      <point x="357.099" y="0.212037"/>
      <point x="360.311" y="3.42407"/>
      <point x="360.311" y="10.9188" type="curve" smooth="yes"/>
      <point x="360.311" y="20.5549" type="line" smooth="yes"/>
      <point x="360.311" y="28.0497"/>
      <point x="357.099" y="31.2617"/>
      <point x="349.604" y="31.2617" type="curve" smooth="yes"/>
      <point x="255.384" y="31.2617" type="line" smooth="yes"/>
      <point x="247.89" y="31.2617"/>
      <point x="244.677" y="34.4738"/>
      <point x="244.677" y="41.9685" type="curve" smooth="yes"/>
      <point x="244.677" y="499.148" type="line" smooth="yes"/>
      <point x="244.677" y="506.643"/>
      <point x="241.465" y="509.855"/>
      <point x="233.971" y="509.855" type="curve" smooth="yes"/>
      <point x="41.2485" y="509.855" type="line" smooth="yes"/>
      <point x="33.7537" y="509.855"/>
      <point x="30.5417" y="506.643"/>
      <point x="30.5417" y="499.148" type="curve" smooth="yes"/>
    </contour>
    <contour>
      <point x="117" y="672" type="curve" smooth="yes"/>
      <point x="117" y="637"/>
      <point x="146" y="608"/>
      <point x="181" y="608" type="curve" smooth="yes"/>
      <point x="216" y="608"/>
      <point x="245" y="637"/>
      <point x="245" y="672" type="curve" smooth="yes"/>
      <point x="245" y="707"/>
      <point x="216" y="736"/>
      <point x="181" y="736" type="curve" smooth="yes"/>
      <point x="146" y="736"/>
      <point x="117" y="707"/>
    </contour>
  </outline>
  <guideline angle="0" x="0" y="480"/>
</glyph>
<glyph name="k" format="2">
  <advance width="780"/>
  <unicode hex="006B"/>
  <outline>
    <component base="l"/>
    <contour>
      <point x="335.547" y="283.942" type="line"/>
      <point x="335.547" y="283.942" type="line"/>
      <point x="521.845" y="39.8272" type="line" smooth="yes"/>
      <point x="526.005" y="34.3772"/>
      <point x="525.057" y="31.2617"/>
      <point x="517.563" y="31.2617" type="curve" smooth="yes"/>
      <point x="432.979" y="31.2617" type="line" smooth="yes"/>
      <point x="425.484" y="31.2617"/>
      <point x="422.272" y="28.0497"/>
      <point x="422.272" y="20.5549" type="curve" smooth="yes"/>
      <point x="422.272" y="10.9188" type="line" smooth="yes"/>
      <point x="422.272" y="3.42407"/>
      <point x="425.484" y="0.212037"/>
      <point x="432.979" y="0.212037" type="curve" smooth="yes"/>
      <point x="722.062" y="0.212037" type="line" smooth="yes"/>
      <point x="729.557" y="0.212037"/>
      <point x="732.769" y="3.42407"/>
      <point x="732.769" y="10.9188" type="curve" smooth="yes"/>
      <point x="732.769" y="20.5549" type="line" smooth="yes"/>
      <point x="732.769" y="28.0497"/>
      <point x="729.557" y="31.2617"/>
      <point x="722.062" y="31.2617" type="curve" smooth="yes"/>
      <point x="666.387" y="31.2617" type="line" smooth="yes"/>
      <point x="658.892" y="31.2617"/>
      <point x="653.48" y="34.4274"/>
      <point x="649.256" y="39.8272" type="curve" smooth="yes"/>
      <point x="422.272" y="329.981" type="line"/>
      <point x="422.272" y="329.981" type="line"/>
    </contour>
    <contour>
      <point x="274.119" y="259.933" type="line" smooth="yes"/>
      <point x="270.165" y="257.956"/>
      <point x="268.188" y="254.66"/>
      <point x="268.188" y="250.047" type="curve" smooth="yes"/>
      <point x="268.188" y="236.865" type="line" smooth="yes"/>
      <point x="268.188" y="232.251"/>
      <point x="270.165" y="231.592"/>
      <point x="274.119" y="233.569" type="curve" smooth="yes"/>
      <point x="628.708" y="444.477" type="line" smooth="yes"/>
      <point x="636.618" y="449.091"/>
      <point x="643.867" y="451.068"/>
      <point x="653.095" y="451.068" type="curve" smooth="yes"/>
      <point x="706.481" y="451.068" type="line" smooth="yes"/>
      <point x="711.094" y="451.068"/>
      <point x="713.072" y="453.046"/>
      <point x="713.072" y="457.659" type="curve" smooth="yes"/>
      <point x="713.072" y="474.136" type="line" smooth="yes"/>
      <point x="713.072" y="478.75"/>
      <point x="711.094" y="480.727"/>
      <point x="706.481" y="480.727" type="curve" smooth="yes"/>
      <point x="513.368" y="480.727" type="line" smooth="yes"/>
      <point x="508.755" y="480.727"/>
      <point x="506.777" y="478.75"/>
      <point x="506.777" y="474.136" type="curve" smooth="yes"/>
      <point x="506.777" y="457.659" type="line" smooth="yes"/>
      <point x="506.777" y="453.046"/>
      <point x="508.755" y="451.068"/>
      <point x="513.368" y="451.068" type="curve" smooth="yes"/>
      <point x="552.913" y="451.068" type="line" smooth="yes"/>
      <point x="570.709" y="451.068"/>
      <point x="568.072" y="434.591"/>
      <point x="550.936" y="424.705" type="curve" smooth="yes"/>
    </contour>
  </outline>
  <guideline angle="0" x="0" y="480"/>
</glyph>
<glyph name="l" format="2">
  <advance width="451"/>
  <unicode hex="006C"/>
  <outline>
    <contour>
      <point x="60.5417" y="711.143" type="line" smooth="yes"/>
      <point x="60.5417" y="703.969"/>
      <point x="64.075" y="700.436"/>
      <point x="71.2486" y="700.436" type="curve" smooth="yes"/>
      <point x="122.943" y="700.436" type="line" smooth="yes"/>
      <point x="158.608" y="700.436"/>
      <point x="176.175" y="682.869"/>
      <point x="176.175" y="647.203" type="curve" smooth="yes"/>
      <point x="176.175" y="41.9684" type="line" smooth="yes"/>
      <point x="176.175" y="34.7949"/>
      <point x="172.642" y="31.2617"/>
      <point x="165.468" y="31.2617" type="curve" smooth="yes"/>
      <point x="71.2486" y="31.2617" type="line" smooth="yes"/>
      <point x="64.075" y="31.2617"/>
      <point x="60.5417" y="27.7284"/>
      <point x="60.5417" y="20.5548" type="curve" smooth="yes"/>
      <point x="60.5417" y="10.919" type="line" smooth="yes"/>
      <point x="60.5417" y="3.74534"/>
      <point x="64.0748" y="0.212037"/>
      <point x="71.2483" y="0.212037" type="curve" smooth="yes"/>
      <point x="379.604" y="0.212037" type="line" smooth="yes"/>
      <point x="386.778" y="0.212037"/>
      <point x="390.311" y="3.74534"/>
      <point x="390.311" y="10.919" type="curve" smooth="yes"/>
      <point x="390.311" y="20.5548" type="line" smooth="yes"/>
      <point x="390.311" y="27.7284"/>
      <point x="386.778" y="31.2617"/>
      <point x="379.604" y="31.2617" type="curve" smooth="yes"/>
      <point x="285.384" y="31.2617" type="line" smooth="yes"/>
      <point x="278.211" y="31.2617"/>
      <point x="274.677" y="34.795"/>
      <point x="274.677" y="41.9685" type="curve" smooth="yes"/>
      <point x="274.677" y="720.779" type="line" smooth="yes"/>
      <point x="274.677" y="727.953"/>
      <point x="271.144" y="731.486"/>
      <point x="263.971" y="731.486" type="curve" smooth="yes"/>
      <point x="71.2483" y="731.486" type="line" smooth="yes"/>
      <point x="64.0749" y="731.486"/>
      <point x="60.5417" y="727.953"/>
      <point x="60.5417" y="720.779" type="curve" smooth="yes"/>
    </contour>
  </outline>
</glyph>
<glyph name="m" format="2">
  <advance width="964"/>
  <unicode hex="006D"/>
  <outline>
    <component base="n"/>
    <contour>
      <point x="838.924" y="41.8531" type="curve" smooth="yes"/>
      <point x="838.924" y="33.891"/>
      <point x="842.337" y="30.4787"/>
      <point x="850.299" y="30.4787" type="curve" smooth="yes"/>
      <point x="904.896" y="30.4787" type="line" smooth="yes"/>
      <point x="912.858" y="30.4787"/>
      <point x="916.27" y="27.0664"/>
      <point x="916.27" y="19.1043" type="curve" smooth="yes"/>
      <point x="916.27" y="16.8294"/>
      <point x="916.27" y="14.5545"/>
      <point x="916.27" y="11.1422" type="curve" smooth="yes"/>
      <point x="916.27" y="3.1801"/>
      <point x="912.858" y="-0.232222"/>
      <point x="904.896" y="-0.232222" type="curve" smooth="yes"/>
      <point x="669.446" y="-0.232222" type="line" smooth="yes"/>
      <point x="661.483" y="-0.232222"/>
      <point x="658.071" y="3.1801"/>
      <point x="658.071" y="11.1422" type="curve" smooth="yes"/>
      <point x="658.071" y="14.5545"/>
      <point x="658.071" y="16.8294"/>
      <point x="658.071" y="19.1043" type="curve" smooth="yes"/>
      <point x="658.071" y="27.0664"/>
      <point x="661.483" y="30.4787"/>
      <point x="669.446" y="30.4787" type="curve" smooth="yes"/>
      <point x="680.82" y="30.4787"/>
      <point x="696.744" y="30.4787"/>
      <point x="719.493" y="30.4787" type="curve" smooth="yes"/>
      <point x="727.455" y="30.4787"/>
      <point x="730.867" y="33.891"/>
      <point x="730.867" y="41.8531" type="curve" smooth="yes"/>
      <point x="730.867" y="380.81" type="line" smooth="yes"/>
      <point x="730.867" y="413.796"/>
      <point x="700.156" y="438.82"/>
      <point x="658.071" y="429.72" type="curve" smooth="yes"/>
      <point x="565.938" y="410.384"/>
      <point x="528.403" y="293.228"/>
      <point x="529.54" y="218.156" type="curve"/>
      <point x="522.716" y="231.806"/>
      <point x="493.142" y="278.441"/>
      <point x="481.768" y="296.64" type="curve"/>
      <point x="551.152" y="393.322"/>
      <point x="567.076" y="479.768"/>
      <point x="708.119" y="479.768" type="curve" smooth="yes"/>
      <point x="763.853" y="479.768"/>
      <point x="838.924" y="442.232"/>
      <point x="838.924" y="380.81" type="curve" smooth="yes"/>
      <point x="838.924" y="276.166"/>
      <point x="838.924" y="101"/>
    </contour>
  </outline>
  <guideline angle="0" x="0" y="480"/>
</glyph>
<glyph name="n" format="2">
  <advance width="677"/>
  <unicode hex="006E"/>
  <outline>
    <contour>
      <point x="30.1778" y="459.534" type="line" smooth="yes"/>
      <point x="30.1778" y="452.36"/>
      <point x="33.7111" y="448.827"/>
      <point x="40.8847" y="448.827" type="curve" smooth="yes"/>
      <point x="82.9419" y="448.827" type="line" smooth="yes"/>
      <point x="118.608" y="448.827"/>
      <point x="136.175" y="431.26"/>
      <point x="136.175" y="395.594" type="curve" smooth="yes"/>
      <point x="136.175" y="41.9687" type="line" smooth="yes"/>
      <point x="136.175" y="34.795"/>
      <point x="132.642" y="31.2617"/>
      <point x="125.468" y="31.2617" type="curve" smooth="yes"/>
      <point x="40.8847" y="31.2617" type="line" smooth="yes"/>
      <point x="33.7111" y="31.2617"/>
      <point x="30.1778" y="27.7284"/>
      <point x="30.1778" y="20.5548" type="curve" smooth="yes"/>
      <point x="30.1778" y="10.919" type="line" smooth="yes"/>
      <point x="30.1778" y="3.74534"/>
      <point x="33.7109" y="0.212037"/>
      <point x="40.8843" y="0.212037" type="curve" smooth="yes"/>
      <point x="329.968" y="0.212037" type="line" smooth="yes"/>
      <point x="337.142" y="0.212037"/>
      <point x="340.675" y="3.74534"/>
      <point x="340.675" y="10.919" type="curve" smooth="yes"/>
      <point x="340.675" y="20.5548" type="line" smooth="yes"/>
      <point x="340.675" y="27.7284"/>
      <point x="337.141" y="31.2617"/>
      <point x="329.968" y="31.2617" type="curve" smooth="yes"/>
      <point x="245.384" y="31.2617" type="line" smooth="yes"/>
      <point x="238.211" y="31.2617"/>
      <point x="234.677" y="34.795"/>
      <point x="234.677" y="41.9687" type="curve" smooth="yes"/>
      <point x="234.677" y="469.169" type="line" smooth="yes"/>
      <point x="234.677" y="476.343"/>
      <point x="231.144" y="479.876"/>
      <point x="223.971" y="479.876" type="curve" smooth="yes"/>
      <point x="40.8846" y="479.876" type="line" smooth="yes"/>
      <point x="33.711" y="479.876"/>
      <point x="30.1778" y="476.343"/>
      <point x="30.1778" y="469.169" type="curve" smooth="yes"/>
    </contour>
    <contour>
      <point x="551.91" y="41.8283" type="curve" smooth="yes"/>
      <point x="551.91" y="100.787"/>
      <point x="551.91" y="276.163"/>
      <point x="551.91" y="380.81" type="curve" smooth="yes"/>
      <point x="551.91" y="442.232"/>
      <point x="476.839" y="479.768"/>
      <point x="421.104" y="479.768" type="curve" smooth="yes"/>
      <point x="280.062" y="479.768"/>
      <point x="253.901" y="393.322"/>
      <point x="184.517" y="296.64" type="curve"/>
      <point x="195.891" y="278.441"/>
      <point x="225.464" y="231.806"/>
      <point x="232.289" y="218.156" type="curve"/>
      <point x="226.602" y="314.839"/>
      <point x="281.199" y="406.972"/>
      <point x="371.057" y="429.72" type="curve" smooth="yes"/>
      <point x="413.142" y="439.957"/>
      <point x="443.853" y="413.796"/>
      <point x="443.853" y="380.81" type="curve" smooth="yes"/>
      <point x="443.853" y="41.8226" type="line" smooth="yes"/>
      <point x="443.853" y="34.2222"/>
      <point x="440.11" y="30.4787"/>
      <point x="432.509" y="30.4787" type="curve" smooth="yes"/>
      <point x="409.42" y="30.4787"/>
      <point x="394.15" y="30.4787"/>
      <point x="382.401" y="30.4787" type="curve" smooth="yes"/>
      <point x="374.8" y="30.4787"/>
      <point x="371.057" y="26.7352"/>
      <point x="371.057" y="19.1349" type="curve" smooth="yes"/>
      <point x="371.057" y="17.1422"/>
      <point x="371.057" y="14.8452"/>
      <point x="371.057" y="11.1115" type="curve" smooth="yes"/>
      <point x="371.057" y="3.5112"/>
      <point x="374.8" y="-0.232222"/>
      <point x="382.401" y="-0.232222" type="curve" smooth="yes"/>
      <point x="617.912" y="-0.232222" type="line" smooth="yes"/>
      <point x="625.513" y="-0.232222"/>
      <point x="629.256" y="3.51123"/>
      <point x="629.256" y="11.1116" type="curve" smooth="yes"/>
      <point x="629.256" y="14.4613"/>
      <point x="629.256" y="16.7258"/>
      <point x="629.256" y="19.1352" type="curve" smooth="yes"/>
      <point x="629.256" y="26.7353"/>
      <point x="625.512" y="30.4787"/>
      <point x="617.912" y="30.4787" type="curve" smooth="yes"/>
      <point x="563.254" y="30.4787" type="line" smooth="yes"/>
      <point x="555.654" y="30.4787"/>
      <point x="551.91" y="34.224"/>
    </contour>
  </outline>
  <guideline angle="0" x="0" y="480"/>
</glyph>
<glyph name="o" format="2">
  <advance width="493"/>
  <unicode hex="006F"/>
  <outline>
    <contour>
      <point x="40.1338" y="248.375" type="curve" smooth="yes"/>
      <point x="40.1338" y="360.481"/>
      <point x="99.2442" y="478.702"/>
      <point x="252.116" y="478.702" type="curve" smooth="yes"/>
      <point x="393.777" y="478.702"/>
      <point x="452.888" y="360.481"/>
      <point x="452.888" y="248.375" type="curve" smooth="yes"/>
      <point x="452.888" y="91.427"/>
      <point x="393.777" y="-1.3152"/>
      <point x="252.116" y="-1.3152" type="curve" smooth="yes"/>
      <point x="99.2442" y="-1.3152"/>
      <point x="40.1338" y="91.427"/>
    </contour>
    <contour>
      <point x="127.78" y="248.375" type="curve" smooth="yes"/>
      <point x="127.78" y="152.576"/>
      <point x="156.316" y="38.4315"/>
      <point x="252.116" y="38.4315" type="curve" smooth="yes"/>
      <point x="348.935" y="38.4315"/>
      <point x="370.337" y="152.576"/>
      <point x="370.337" y="248.375" type="curve" smooth="yes"/>
      <point x="370.337" y="327.869"/>
      <point x="348.935" y="435.898"/>
      <point x="252.116" y="435.898" type="curve" smooth="yes"/>
      <point x="150.202" y="435.898"/>
      <point x="127.78" y="327.869"/>
    </contour>
  </outline>
</glyph>
<glyph name="q" format="2">
  <advance width="678"/>
  <unicode hex="0071"/>
  <outline>
    <contour>
      <point x="501.825" y="-209.031" type="line" smooth="yes"/>
      <point x="501.825" y="-216.526"/>
      <point x="505.037" y="-219.738"/>
      <point x="512.532" y="-219.738" type="curve" smooth="yes"/>
      <point x="606.752" y="-219.738" type="line" smooth="yes"/>
      <point x="614.246" y="-219.738"/>
      <point x="617.458" y="-222.95"/>
      <point x="617.458" y="-230.445" type="curve" smooth="yes"/>
      <point x="617.458" y="-240.081" type="line" smooth="yes"/>
      <point x="617.458" y="-247.576"/>
      <point x="614.246" y="-250.788"/>
      <point x="606.752" y="-250.788" type="curve" smooth="yes"/>
      <point x="298.396" y="-250.788" type="line" smooth="yes"/>
      <point x="290.901" y="-250.788"/>
      <point x="287.689" y="-247.576"/>
      <point x="287.689" y="-240.081" type="curve" smooth="yes"/>
      <point x="287.689" y="-230.445" type="line" smooth="yes"/>
      <point x="287.689" y="-222.95"/>
      <point x="290.901" y="-219.738"/>
      <point x="298.396" y="-219.738" type="curve" smooth="yes"/>
      <point x="392.616" y="-219.738" type="line" smooth="yes"/>
      <point x="400.11" y="-219.738"/>
      <point x="403.323" y="-216.526"/>
      <point x="403.323" y="-209.031" type="curve" smooth="yes"/>
      <point x="403.323" y="369.135" type="line"/>
      <point x="465.422" y="470.85" type="line" smooth="yes"/>
      <point x="468.634" y="477.274"/>
      <point x="473.987" y="480.486"/>
      <point x="481.482" y="480.486" type="curve" smooth="yes"/>
      <point x="491.118" y="480.486" type="line" smooth="yes"/>
      <point x="498.613" y="480.486"/>
      <point x="501.825" y="477.274"/>
      <point x="501.825" y="469.779" type="curve" smooth="yes"/>
    </contour>
    <contour>
      <point x="432.921" y="239.548" type="curve" smooth="yes"/>
      <point x="432.921" y="82.5197"/>
      <point x="353.388" y="-10.2697"/>
      <point x="251.421" y="-10.2697" type="curve" smooth="yes"/>
      <point x="109.688" y="-10.2697"/>
      <point x="40.3512" y="82.5197"/>
      <point x="40.3512" y="239.548" type="curve" smooth="yes"/>
      <point x="40.3512" y="351.711"/>
      <point x="109.688" y="469.992"/>
      <point x="251.421" y="469.992" type="curve" smooth="yes"/>
      <point x="373.781" y="469.992"/>
      <point x="432.921" y="351.711"/>
    </contour>
    <contour>
      <point x="404.371" y="239.548" type="curve" smooth="yes"/>
      <point x="404.371" y="319.081"/>
      <point x="367.663" y="441.441"/>
      <point x="255.5" y="441.441" type="curve" smooth="yes"/>
      <point x="148.435" y="441.441"/>
      <point x="114.787" y="319.081"/>
      <point x="114.787" y="239.548" type="curve" smooth="yes"/>
      <point x="114.787" y="143.699"/>
      <point x="148.435" y="21.3399"/>
      <point x="255.5" y="21.3399" type="curve" smooth="yes"/>
      <point x="361.545" y="21.3399"/>
      <point x="404.371" y="143.699"/>
    </contour>
  </outline>
  <guideline angle="0" x="0" y="480"/>
</glyph>
<glyph name="r" format="2">
  <advance width="543"/>
  <unicode hex="0072"/>
  <outline>
    <contour>
      <point x="30.1778" y="459.533" type="line" smooth="yes"/>
      <point x="30.1778" y="452.039"/>
      <point x="33.3898" y="448.827"/>
      <point x="40.8846" y="448.827" type="curve" smooth="yes"/>
      <point x="82.6411" y="448.827" type="line" smooth="yes"/>
      <point x="117.973" y="448.827"/>
      <point x="136.175" y="430.625"/>
      <point x="136.175" y="395.293" type="curve" smooth="yes"/>
      <point x="136.175" y="41.9685" type="line" smooth="yes"/>
      <point x="136.175" y="34.4738"/>
      <point x="132.963" y="31.2617"/>
      <point x="125.468" y="31.2617" type="curve" smooth="yes"/>
      <point x="40.8846" y="31.2617" type="line" smooth="yes"/>
      <point x="33.3898" y="31.2617"/>
      <point x="30.1778" y="28.0497"/>
      <point x="30.1778" y="20.5549" type="curve" smooth="yes"/>
      <point x="30.1778" y="10.9188" type="line" smooth="yes"/>
      <point x="30.1778" y="3.42407"/>
      <point x="33.3898" y="0.212037"/>
      <point x="40.8846" y="0.212037" type="curve" smooth="yes"/>
      <point x="329.968" y="0.212037" type="line" smooth="yes"/>
      <point x="337.463" y="0.212037"/>
      <point x="340.675" y="3.42407"/>
      <point x="340.675" y="10.9188" type="curve" smooth="yes"/>
      <point x="340.675" y="20.5549" type="line" smooth="yes"/>
      <point x="340.675" y="28.0497"/>
      <point x="337.463" y="31.2617"/>
      <point x="329.968" y="31.2617" type="curve" smooth="yes"/>
      <point x="245.384" y="31.2617" type="line" smooth="yes"/>
      <point x="237.89" y="31.2617"/>
      <point x="234.677" y="34.4738"/>
      <point x="234.677" y="41.9685" type="curve" smooth="yes"/>
      <point x="234.677" y="469.169" type="line" smooth="yes"/>
      <point x="234.677" y="476.664"/>
      <point x="231.465" y="479.876"/>
      <point x="223.971" y="479.876" type="curve" smooth="yes"/>
      <point x="40.8846" y="479.876" type="line" smooth="yes"/>
      <point x="33.3898" y="479.876"/>
      <point x="30.1778" y="476.664"/>
      <point x="30.1778" y="469.169" type="curve" smooth="yes"/>
    </contour>
    <contour>
      <point x="231" y="212" type="line"/>
      <point x="245" y="312"/>
      <point x="295" y="429"/>
      <point x="373" y="409" type="curve" smooth="yes"/>
      <point x="403" y="401"/>
      <point x="351" y="364"/>
      <point x="346" y="312" type="curve" smooth="yes"/>
      <point x="341" y="260"/>
      <point x="383" y="249"/>
      <point x="410" y="249" type="curve" smooth="yes"/>
      <point x="463" y="249"/>
      <point x="492" y="280"/>
      <point x="495" y="334" type="curve" smooth="yes"/>
      <point x="499" y="397"/>
      <point x="471" y="469"/>
      <point x="410" y="482" type="curve" smooth="yes"/>
      <point x="332" y="499"/>
      <point x="262" y="411"/>
      <point x="219" y="332" type="curve"/>
    </contour>
  </outline>
  <guideline angle="0" x="0" y="480"/>
</glyph>
<glyph name="s" format="2">
  <advance width="402"/>
  <unicode hex="0073"/>
  <outline>
    <contour>
      <point x="263.157" y="432.658" type="curve" smooth="yes"/>
      <point x="267.21" y="428.605"/>
      <point x="270.453" y="429.416"/>
      <point x="272.884" y="434.279" type="curve" smooth="yes"/>
      <point x="298.013" y="484.537" type="line" smooth="yes"/>
      <point x="299.634" y="487.779"/>
      <point x="302.877" y="490.211"/>
      <point x="306.93" y="490.211" type="curve"/>
      <point x="306.93" y="490.211" type="line"/>
      <point x="310.983" y="490.211"/>
      <point x="312.604" y="487.779"/>
      <point x="312.604" y="483.726" type="curve" smooth="yes"/>
      <point x="312.604" y="401.045"/>
      <point x="312.604" y="330.522"/>
      <point x="312.604" y="295.666" type="curve" smooth="yes"/>
      <point x="312.604" y="291.613"/>
      <point x="310.172" y="289.181"/>
      <point x="306.119" y="289.181" type="curve"/>
      <point x="306.119" y="289.181" type="line"/>
      <point x="302.066" y="289.181"/>
      <point x="299.634" y="290.802"/>
      <point x="298.824" y="294.855" type="curve" smooth="yes"/>
      <point x="276.937" y="367.81"/>
      <point x="234.786" y="458.598"/>
      <point x="152.104" y="458.598" type="curve" smooth="yes"/>
      <point x="49.9682" y="458.598"/>
      <point x="49.9682" y="349.166"/>
      <point x="112.385" y="307.015" type="curve" smooth="yes"/>
      <point x="173.18" y="265.674"/>
      <point x="275.316" y="280.265"/>
      <point x="330.437" y="193.53" type="curve" smooth="yes"/>
      <point x="380.695" y="114.901"/>
      <point x="353.945" y="-2.63647"/>
      <point x="240.46" y="-7.50009" type="curve" smooth="yes"/>
      <point x="169.938" y="-10.7425"/>
      <point x="143.188" y="19.2499"/>
      <point x="94.5514" y="60.5907" type="curve" smooth="yes"/>
      <point x="90.4984" y="63.8331"/>
      <point x="87.256" y="63.0225"/>
      <point x="84.0136" y="58.1589" type="curve" smooth="yes"/>
      <point x="72.6651" y="40.3256"/>
      <point x="58.0742" y="20.0605"/>
      <point x="45.9151" y="3.84837" type="curve" smooth="yes"/>
      <point x="43.4833" y="0.605952"/>
      <point x="41.0515" y="-1.01526"/>
      <point x="36.9985" y="-1.01526" type="curve"/>
      <point x="36.9985" y="-1.01526" type="line"/>
      <point x="32.9455" y="-1.01526"/>
      <point x="30.5137" y="1.41656"/>
      <point x="30.5137" y="5.46958" type="curve" smooth="yes"/>
      <point x="30.5137" y="206.5" type="line" smooth="yes"/>
      <point x="30.5137" y="210.553"/>
      <point x="32.9455" y="212.984"/>
      <point x="36.9985" y="212.984" type="curve"/>
      <point x="36.9985" y="212.984" type="line"/>
      <point x="41.0515" y="212.984"/>
      <point x="43.4833" y="211.363"/>
      <point x="45.1045" y="207.31" type="curve" smooth="yes"/>
      <point x="71.0439" y="138.409"/>
      <point x="111.574" y="64.6437"/>
      <point x="168.316" y="34.6513" type="curve" smooth="yes"/>
      <point x="281.801" y="-25.3334"/>
      <point x="331.248" y="114.091"/>
      <point x="240.46" y="165.159" type="curve" smooth="yes"/>
      <point x="165.074" y="207.31"/>
      <point x="35.3773" y="189.477"/>
      <point x="35.3773" y="341.871" type="curve" smooth="yes"/>
      <point x="35.3773" y="426.984"/>
      <point x="66.9909" y="479.673"/>
      <point x="152.104" y="479.673" type="curve" smooth="yes"/>
      <point x="186.15" y="479.673"/>
      <point x="223.438" y="469.946"/>
    </contour>
  </outline>
  <guideline angle="0" x="0" y="480"/>
</glyph>
<glyph name="u" format="2">
  <advance width="654"/>
  <unicode hex="0075"/>
  <outline>
    <contour>
      <point x="606.822" y="20.4666" type="line" smooth="yes"/>
      <point x="606.822" y="27.9614"/>
      <point x="603.61" y="31.1734"/>
      <point x="596.115" y="31.1734" type="curve" smooth="yes"/>
      <point x="554.359" y="31.1734" type="line" smooth="yes"/>
      <point x="519.027" y="31.1734"/>
      <point x="500.825" y="49.375"/>
      <point x="500.825" y="84.7074" type="curve" smooth="yes"/>
      <point x="500.825" y="469.081" type="line" smooth="yes"/>
      <point x="500.825" y="476.576"/>
      <point x="497.613" y="479.788"/>
      <point x="490.118" y="479.788" type="curve" smooth="yes"/>
      <point x="307.032" y="479.788" type="line" smooth="yes"/>
      <point x="299.537" y="479.788"/>
      <point x="296.325" y="476.576"/>
      <point x="296.325" y="469.081" type="curve" smooth="yes"/>
      <point x="296.325" y="459.445" type="line" smooth="yes"/>
      <point x="296.325" y="451.95"/>
      <point x="299.537" y="448.738"/>
      <point x="307.032" y="448.738" type="curve" smooth="yes"/>
      <point x="370.202" y="448.738" type="line" smooth="yes"/>
      <point x="391.616" y="448.738"/>
      <point x="402.323" y="438.031"/>
      <point x="402.323" y="416.618" type="curve" smooth="yes"/>
      <point x="402.323" y="10.8305" type="line" smooth="yes"/>
      <point x="402.323" y="3.33578"/>
      <point x="405.535" y="0.12374"/>
      <point x="413.029" y="0.12374" type="curve" smooth="yes"/>
      <point x="596.115" y="0.12374" type="line" smooth="yes"/>
      <point x="603.61" y="0.12374"/>
      <point x="606.822" y="3.33578"/>
      <point x="606.822" y="10.8305" type="curve" smooth="yes"/>
    </contour>
    <contour>
      <point x="107.365" y="415.398" type="curve" smooth="yes"/>
      <point x="107.365" y="342.602"/>
      <point x="107.365" y="192.46"/>
      <point x="107.365" y="99.1896" type="curve" smooth="yes"/>
      <point x="107.365" y="37.7678"/>
      <point x="182.436" y="0.232204"/>
      <point x="238.171" y="0.232204" type="curve" smooth="yes"/>
      <point x="379.213" y="0.232204"/>
      <point x="395.137" y="86.6777"/>
      <point x="464.521" y="183.36" type="curve"/>
      <point x="453.147" y="201.559"/>
      <point x="423.573" y="248.194"/>
      <point x="416.749" y="261.844" type="curve"/>
      <point x="417.886" y="186.772"/>
      <point x="380.351" y="69.6161"/>
      <point x="288.218" y="50.2796" type="curve" smooth="yes"/>
      <point x="246.133" y="41.1801"/>
      <point x="215.422" y="66.2038"/>
      <point x="215.422" y="99.1896" type="curve" smooth="yes"/>
      <point x="215.422" y="468.858" type="line" smooth="yes"/>
      <point x="215.422" y="476.82"/>
      <point x="212.009" y="480.232"/>
      <point x="204.047" y="480.232" type="curve" smooth="yes"/>
      <point x="41.3933" y="480.232" type="line" smooth="yes"/>
      <point x="33.4312" y="480.232"/>
      <point x="30.0189" y="476.82"/>
      <point x="30.0189" y="468.858" type="curve" smooth="yes"/>
      <point x="30.0189" y="465.445"/>
      <point x="30.0189" y="463.171"/>
      <point x="30.0189" y="460.896" type="curve" smooth="yes"/>
      <point x="30.0189" y="452.934"/>
      <point x="33.4312" y="449.521"/>
      <point x="41.3933" y="449.521" type="curve" smooth="yes"/>
      <point x="73.2416" y="449.521" type="line" smooth="yes"/>
      <point x="95.9905" y="449.521"/>
      <point x="107.365" y="438.147"/>
    </contour>
  </outline>
  <guideline angle="0" x="0" y="0"/>
</glyph>
<glyph name="v" format="2">
  <advance width="581"/>
  <unicode hex="0076"/>
  <outline>
    <contour>
      <point x="309.822" y="473.136" type="line" smooth="yes"/>
      <point x="309.822" y="477.552"/>
      <point x="307.647" y="479.727"/>
      <point x="303.231" y="479.727" type="curve" smooth="yes"/>
      <point x="36.9599" y="479.727" type="line" smooth="yes"/>
      <point x="32.544" y="479.727"/>
      <point x="30.3689" y="477.552"/>
      <point x="30.3689" y="473.136" type="curve" smooth="yes"/>
      <point x="30.3689" y="456.659" type="line" smooth="yes"/>
      <point x="30.3689" y="452.243"/>
      <point x="32.544" y="450.068"/>
      <point x="36.96" y="450.068" type="curve" smooth="yes"/>
      <point x="115.732" y="450.068" type="line" smooth="yes"/>
      <point x="120.361" y="450.068"/>
      <point x="123.367" y="447.907"/>
      <point x="124.841" y="443.518" type="curve" smooth="yes"/>
      <point x="272.793" y="2.86432" type="line" smooth="yes"/>
      <point x="274.198" y="-1.32194"/>
      <point x="277.065" y="-3.38382"/>
      <point x="281.482" y="-3.38382" type="curve" smooth="yes"/>
      <point x="305.867" y="-3.38382" type="line" smooth="yes"/>
      <point x="310.283" y="-3.38382"/>
      <point x="313.153" y="-1.32299"/>
      <point x="314.564" y="2.86113" type="curve" smooth="yes"/>
      <point x="456.941" y="425.083" type="line" smooth="yes"/>
      <point x="462.586" y="441.823"/>
      <point x="474.069" y="450.068"/>
      <point x="491.736" y="450.068" type="curve" smooth="yes"/>
      <point x="543.798" y="450.068" type="line" smooth="yes"/>
      <point x="548.214" y="450.068"/>
      <point x="550.389" y="452.243"/>
      <point x="550.389" y="456.659" type="curve" smooth="yes"/>
      <point x="550.389" y="473.136" type="line" smooth="yes"/>
      <point x="550.389" y="477.552"/>
      <point x="548.214" y="479.727"/>
      <point x="543.798" y="479.727" type="curve" smooth="yes"/>
      <point x="350.685" y="479.727" type="line" smooth="yes"/>
      <point x="346.27" y="479.727"/>
      <point x="344.095" y="477.552"/>
      <point x="344.095" y="473.136" type="curve" smooth="yes"/>
      <point x="344.095" y="456.659" type="line" smooth="yes"/>
      <point x="344.095" y="452.243"/>
      <point x="346.27" y="450.068"/>
      <point x="350.685" y="450.068" type="curve" smooth="yes"/>
      <point x="390.231" y="450.068" type="line" smooth="yes"/>
      <point x="422.526" y="450.068"/>
      <point x="433.73" y="433.591"/>
      <point x="424.503" y="405.25" type="curve"/>
      <point x="423.844" y="402.614"/>
      <point x="423.185" y="400.637"/>
      <point x="422.526" y="398.66" type="curve" smooth="yes"/>
      <point x="324.981" y="113.934" type="line"/>
      <point x="331.572" y="113.934" type="line"/>
      <point x="219.769" y="443.526" type="line" smooth="yes"/>
      <point x="218.282" y="447.909"/>
      <point x="219.83" y="450.068"/>
      <point x="224.459" y="450.068" type="curve" smooth="yes"/>
      <point x="303.231" y="450.068" type="line" smooth="yes"/>
      <point x="307.647" y="450.068"/>
      <point x="309.822" y="452.243"/>
      <point x="309.822" y="456.659" type="curve" smooth="yes"/>
    </contour>
  </outline>
  <guideline angle="0.179313" x="32" y="480"/>
</glyph>
<glyph name="x" format="2">
  <advance width="526"/>
  <unicode hex="0078"/>
  <outline>
    <contour>
      <point x="440.029" y="454.461" type="line" smooth="yes"/>
      <point x="442.648" y="458.39"/>
      <point x="445.267" y="460.355"/>
      <point x="449.851" y="460.355" type="curve" smooth="yes"/>
      <point x="486.522" y="460.355" type="line" smooth="yes"/>
      <point x="491.106" y="460.355"/>
      <point x="493.071" y="462.319"/>
      <point x="493.071" y="466.903" type="curve" smooth="yes"/>
      <point x="493.071" y="473.452" type="line" smooth="yes"/>
      <point x="493.071" y="478.035"/>
      <point x="491.106" y="480"/>
      <point x="486.522" y="480" type="curve" smooth="yes"/>
      <point x="309.715" y="480" type="line" smooth="yes"/>
      <point x="305.131" y="480"/>
      <point x="303.166" y="478.035"/>
      <point x="303.166" y="473.452" type="curve" smooth="yes"/>
      <point x="303.166" y="466.903" type="line" smooth="yes"/>
      <point x="303.166" y="462.319"/>
      <point x="305.131" y="460.355"/>
      <point x="309.715" y="460.355" type="curve" smooth="yes"/>
      <point x="356.209" y="460.355" type="line" smooth="yes"/>
      <point x="388.951" y="460.355"/>
      <point x="393.535" y="431.542"/>
      <point x="377.819" y="409.277" type="curve" smooth="yes"/>
      <point x="102.13" y="25.5389" type="line" smooth="yes"/>
      <point x="99.5102" y="21.6098"/>
      <point x="96.8909" y="19.6453"/>
      <point x="92.307" y="19.6453" type="curve" smooth="yes"/>
      <point x="36.6453" y="19.6453" type="line" smooth="yes"/>
      <point x="32.0614" y="19.6453"/>
      <point x="30.0969" y="17.6808"/>
      <point x="30.0969" y="13.0969" type="curve" smooth="yes"/>
      <point x="30.0969" y="6.54843" type="line" smooth="yes"/>
      <point x="30.0969" y="1.96453"/>
      <point x="32.0614" y="0"/>
      <point x="36.6453" y="0" type="curve" smooth="yes"/>
      <point x="213.453" y="0" type="line" smooth="yes"/>
      <point x="218.037" y="0"/>
      <point x="220.001" y="1.96453"/>
      <point x="220.001" y="6.54843" type="curve" smooth="yes"/>
      <point x="220.001" y="13.0969" type="line" smooth="yes"/>
      <point x="220.001" y="17.6808"/>
      <point x="218.037" y="19.6453"/>
      <point x="213.453" y="19.6453" type="curve" smooth="yes"/>
      <point x="184.64" y="19.6453" type="line" smooth="yes"/>
      <point x="154.517" y="19.6453"/>
      <point x="142.73" y="43.2196"/>
      <point x="162.375" y="70.7231" type="curve" smooth="yes"/>
    </contour>
    <contour>
      <point x="100.82" y="453.806" type="curve" smooth="yes"/>
      <point x="321.502" y="70.7231" type="line" smooth="yes"/>
      <point x="337.873" y="41.91"/>
      <point x="329.36" y="19.6453"/>
      <point x="299.237" y="19.6453" type="curve" smooth="yes"/>
      <point x="252.744" y="19.6453" type="line" smooth="yes"/>
      <point x="248.16" y="19.6453"/>
      <point x="246.195" y="17.6808"/>
      <point x="246.195" y="13.0969" type="curve" smooth="yes"/>
      <point x="246.195" y="6.54843" type="line" smooth="yes"/>
      <point x="246.195" y="1.96453"/>
      <point x="248.16" y="0"/>
      <point x="252.744" y="0" type="curve" smooth="yes"/>
      <point x="488.487" y="0" type="line" smooth="yes"/>
      <point x="493.071" y="0"/>
      <point x="495.035" y="1.96453"/>
      <point x="495.035" y="6.54843" type="curve" smooth="yes"/>
      <point x="495.035" y="13.0969" type="line" smooth="yes"/>
      <point x="495.035" y="17.6808"/>
      <point x="493.071" y="19.6453"/>
      <point x="488.487" y="19.6453" type="curve" smooth="yes"/>
      <point x="432.825" y="19.6453" type="line" smooth="yes"/>
      <point x="428.241" y="19.6453"/>
      <point x="424.967" y="21.6098"/>
      <point x="423.003" y="25.5389" type="curve" smooth="yes"/>
      <point x="204.285" y="408.622" type="line" smooth="yes"/>
      <point x="191.188" y="431.542"/>
      <point x="193.153" y="459.7"/>
      <point x="225.895" y="459.7" type="curve" smooth="yes"/>
      <point x="272.389" y="459.7" type="line" smooth="yes"/>
      <point x="276.973" y="459.7"/>
      <point x="278.937" y="461.664"/>
      <point x="278.937" y="466.248" type="curve" smooth="yes"/>
      <point x="278.937" y="472.797" type="line" smooth="yes"/>
      <point x="278.937" y="477.381"/>
      <point x="276.973" y="479.345"/>
      <point x="272.389" y="479.345" type="curve" smooth="yes"/>
      <point x="36.6453" y="479.345" type="line" smooth="yes"/>
      <point x="32.0614" y="479.345"/>
      <point x="30.0969" y="477.381"/>
      <point x="30.0969" y="472.797" type="curve" smooth="yes"/>
      <point x="30.0969" y="466.248" type="line" smooth="yes"/>
      <point x="30.0969" y="461.664"/>
      <point x="32.0614" y="459.7"/>
      <point x="36.6453" y="459.7" type="curve" smooth="yes"/>
      <point x="90.9973" y="459.7" type="line" smooth="yes"/>
      <point x="95.5812" y="459.7"/>
      <point x="98.8554" y="457.735"/>
    </contour>
  </outline>
  <guideline angle="0" x="0" y="480"/>
</glyph>
<glyph name="y" format="2">
  <advance width="581"/>
  <unicode hex="0079"/>
  <outline>
    <component base="v"/>
    <contour>
      <point x="292" y="100" type="curve"/>
      <point x="345" y="95" type="line"/>
      <point x="317" y="5"/>
      <point x="256" y="-276"/>
      <point x="128" y="-276" type="curve" smooth="yes"/>
      <point x="69" y="-276"/>
      <point x="36" y="-231"/>
      <point x="39" y="-157" type="curve" smooth="yes"/>
      <point x="41" y="-110"/>
      <point x="89" y="-79"/>
      <point x="128" y="-91" type="curve" smooth="yes"/>
      <point x="168" y="-104"/>
      <point x="181" y="-152"/>
      <point x="162" y="-193" type="curve" smooth="yes"/>
      <point x="144" y="-231"/>
      <point x="115" y="-238"/>
      <point x="133" y="-238" type="curve" smooth="yes"/>
      <point x="222" y="-238"/>
      <point x="276" y="-12"/>
    </contour>
  </outline>
</glyph>
<glyph name="z" format="2">
  <advance width="424"/>
  <unicode hex="007A"/>
  <outline>
    <contour>
      <point x="294.676" y="478.196" type="line" smooth="yes"/>
      <point x="289.759" y="478.196"/>
      <point x="286.246" y="476.791"/>
      <point x="284.139" y="472.576" type="curve" smooth="yes"/>
      <point x="34.0575" y="4.72723" type="line" smooth="yes"/>
      <point x="31.9501" y="0.51238"/>
      <point x="32.6525" y="-1.59505"/>
      <point x="37.5699" y="-1.59505" type="curve" smooth="yes"/>
      <point x="114.14" y="-1.59505" type="line" smooth="yes"/>
      <point x="119.057" y="-1.59505"/>
      <point x="122.569" y="0.51238"/>
      <point x="124.677" y="4.72723" type="curve" smooth="yes"/>
      <point x="371.948" y="466.956" type="line" smooth="yes"/>
      <point x="374.056" y="471.171"/>
      <point x="373.353" y="473.981"/>
      <point x="368.436" y="473.981" type="curve" smooth="yes"/>
    </contour>
    <contour>
      <point x="371.408" y="465.833" type="line" smooth="yes"/>
      <point x="369.44" y="461.897"/>
      <point x="366.816" y="459.928"/>
      <point x="362.223" y="459.928" type="curve" smooth="yes"/>
      <point x="329.418" y="459.928"/>
      <point x="225.754" y="459.928"/>
      <point x="173.265" y="459.928" type="curve" smooth="yes"/>
      <point x="71.5694" y="459.928"/>
      <point x="49.9179" y="419.25"/>
      <point x="47.2935" y="315.586" type="curve" smooth="yes"/>
      <point x="47.2935" y="310.993"/>
      <point x="45.3252" y="309.025"/>
      <point x="40.7325" y="309.025" type="curve" smooth="yes"/>
      <point x="37.452" y="309.025" type="line" smooth="yes"/>
      <point x="32.8593" y="309.025"/>
      <point x="30.891" y="310.993"/>
      <point x="30.891" y="315.586" type="curve" smooth="yes"/>
      <point x="30.891" y="473.706" type="line" smooth="yes"/>
      <point x="30.891" y="478.299"/>
      <point x="32.8593" y="480.267"/>
      <point x="37.452" y="480.267" type="curve" smooth="yes"/>
      <point x="372.065" y="480.267" type="line" smooth="yes"/>
      <point x="376.657" y="480.267"/>
      <point x="377.97" y="478.299"/>
      <point x="376.001" y="474.363" type="curve" smooth="yes"/>
    </contour>
    <contour>
      <point x="366.694" y="-0.656103" type="line" smooth="yes"/>
      <point x="371.286" y="-0.656103"/>
      <point x="373.255" y="1.31221"/>
      <point x="373.255" y="5.90493" type="curve" smooth="yes"/>
      <point x="373.255" y="164.682" type="line" smooth="yes"/>
      <point x="373.255" y="169.275"/>
      <point x="371.286" y="171.243"/>
      <point x="366.694" y="171.243" type="curve" smooth="yes"/>
      <point x="363.413" y="171.243" type="line" smooth="yes"/>
      <point x="358.82" y="171.243"/>
      <point x="356.852" y="169.275"/>
      <point x="356.852" y="164.682" type="curve" smooth="yes"/>
      <point x="354.228" y="61.0176"/>
      <point x="332.576" y="19.6831"/>
      <point x="230.88" y="19.6831" type="curve" smooth="yes"/>
      <point x="178.392" y="19.6831"/>
      <point x="93.0986" y="19.6831"/>
      <point x="62.9178" y="19.6831" type="curve" smooth="yes"/>
      <point x="58.3251" y="19.6831"/>
      <point x="56.3568" y="17.7148"/>
      <point x="56.3568" y="13.1221" type="curve" smooth="yes"/>
      <point x="56.3568" y="5.90493" type="line" smooth="yes"/>
      <point x="56.3568" y="1.31221"/>
      <point x="58.3251" y="-0.656103"/>
      <point x="62.9178" y="-0.656103" type="curve" smooth="yes"/>
    </contour>
  </outline>
  <guideline angle="0" x="0" y="480"/>
</glyph>
<glyph name="kn_a" format="2">
  <advance width="814"/>
  <unicode hex="0C85"/>
  <outline>
    <contour>
      <point x="42" y="426" type="curve" smooth="yes"/>
      <point x="50" y="515"/>
      <point x="121" y="620"/>
      <point x="215" y="620" type="curve" smooth="yes"/>
      <point x="304" y="620"/>
      <point x="339" y="549"/>
      <point x="339" y="475" type="curve" smooth="yes"/>
      <point x="339" y="388"/>
      <point x="292" y="340"/>
      <point x="215" y="341" type="curve" smooth="yes"/>
      <point x="151" y="342"/>
      <point x="107" y="378"/>
      <point x="95" y="399" type="curve"/>
      <point x="91" y="200"/>
      <point x="259" y="100"/>
      <point x="407" y="100" type="curve" smooth="yes"/>
      <point x="579" y="100"/>
      <point x="779" y="219"/>
      <point x="716" y="439" type="curve" smooth="yes"/>
      <point x="690" y="530"/>
      <point x="625" y="531"/>
      <point x="582" y="531" type="curve" smooth="yes"/>
      <point x="537" y="531"/>
      <point x="504" y="502"/>
      <point x="504" y="446" type="curve" smooth="yes"/>
      <point x="504" y="396"/>
      <point x="519" y="370"/>
      <point x="572" y="356" type="curve" smooth="yes"/>
      <point x="594" y="350"/>
      <point x="598" y="347"/>
      <point x="602" y="329" type="curve" smooth="yes"/>
      <point x="604" y="319"/>
      <point x="608" y="285"/>
      <point x="589" y="285" type="curve" smooth="yes"/>
      <point x="559" y="285"/>
      <point x="350" y="285"/>
      <point x="324" y="285" type="curve" smooth="yes"/>
      <point x="296" y="285"/>
      <point x="305" y="356"/>
      <point x="356" y="356" type="curve" smooth="yes"/>
      <point x="371" y="356"/>
      <point x="412" y="355"/>
      <point x="445" y="356" type="curve"/>
      <point x="429" y="413"/>
      <point x="437" y="470"/>
      <point x="440" y="488" type="curve" smooth="yes"/>
      <point x="455" y="565"/>
      <point x="518" y="620"/>
      <point x="582" y="620" type="curve" smooth="yes"/>
      <point x="662" y="620"/>
      <point x="727" y="564"/>
      <point x="760" y="439" type="curve" smooth="yes"/>
      <point x="824" y="193"/>
      <point x="650" y="0"/>
      <point x="407" y="0" type="curve" smooth="yes"/>
      <point x="177" y="0"/>
      <point x="23" y="211"/>
    </contour>
    <contour>
      <point x="215" y="426" type="curve" smooth="yes"/>
      <point x="244" y="426"/>
      <point x="275" y="452"/>
      <point x="275" y="475" type="curve" smooth="yes"/>
      <point x="275" y="510"/>
      <point x="248" y="531"/>
      <point x="215" y="531" type="curve" smooth="yes"/>
      <point x="177" y="531"/>
      <point x="156" y="510"/>
      <point x="156" y="475" type="curve" smooth="yes"/>
      <point x="156" y="453"/>
      <point x="183" y="426"/>
    </contour>
  </outline>
</glyph>
<glyph name="kn_u" format="2">
  <advance width="1165"/>
  <unicode hex="0C89"/>
  <outline>
    <contour>
      <point x="278" y="0" type="curve" smooth="yes"/>
      <point x="141" y="0"/>
      <point x="70" y="116"/>
      <point x="54" y="177" type="curve" smooth="yes"/>
      <point x="27" y="276"/>
      <point x="42" y="418"/>
      <point x="95" y="509" type="curve" smooth="yes"/>
      <point x="109" y="534"/>
      <point x="192" y="665"/>
      <point x="303" y="604" type="curve" smooth="yes"/>
      <point x="339" y="585"/>
      <point x="354" y="545"/>
      <point x="354" y="504" type="curve" smooth="yes"/>
      <point x="354" y="423"/>
      <point x="314" y="379"/>
      <point x="230" y="379" type="curve" smooth="yes"/>
      <point x="171" y="379"/>
      <point x="127" y="434"/>
      <point x="121" y="427" type="curve" smooth="yes"/>
      <point x="101" y="403"/>
      <point x="101" y="303"/>
      <point x="101" y="286" type="curve" smooth="yes"/>
      <point x="103" y="155"/>
      <point x="181" y="100"/>
      <point x="277" y="100" type="curve" smooth="yes"/>
      <point x="446" y="100"/>
      <point x="448" y="260"/>
      <point x="448" y="344" type="curve" smooth="yes"/>
      <point x="448" y="433"/>
      <point x="456" y="531"/>
      <point x="549" y="577" type="curve" smooth="yes"/>
      <point x="598" y="601"/>
      <point x="658" y="593"/>
      <point x="701" y="557" type="curve" smooth="yes"/>
      <point x="805" y="469"/>
      <point x="755" y="376"/>
      <point x="764" y="269" type="curve" smooth="yes"/>
      <point x="770" y="195"/>
      <point x="828" y="100"/>
      <point x="913" y="100" type="curve" smooth="yes"/>
      <point x="1094" y="100"/>
      <point x="1086" y="359"/>
      <point x="989" y="494" type="curve" smooth="yes"/>
      <point x="940" y="563"/>
      <point x="862" y="544"/>
      <point x="862" y="585" type="curve" smooth="yes"/>
      <point x="862" y="611"/>
      <point x="901" y="621"/>
      <point x="921" y="621" type="curve" smooth="yes"/>
      <point x="958" y="621"/>
      <point x="1023" y="591"/>
      <point x="1063" y="520" type="curve" smooth="yes"/>
      <point x="1167" y="336"/>
      <point x="1156" y="0"/>
      <point x="905" y="0" type="curve" smooth="yes"/>
      <point x="756" y="0"/>
      <point x="713" y="142"/>
      <point x="713" y="272" type="curve" smooth="yes"/>
      <point x="713" y="346"/>
      <point x="713" y="487"/>
      <point x="603" y="487" type="curve" smooth="yes"/>
      <point x="544" y="487"/>
      <point x="513" y="421"/>
      <point x="499" y="344" type="curve" smooth="yes"/>
      <point x="474" y="208"/>
      <point x="528" y="0"/>
    </contour>
    <contour>
      <point x="283" y="508" type="curve" smooth="yes"/>
      <point x="267" y="531"/>
      <point x="251" y="540"/>
      <point x="226" y="542" type="curve" smooth="yes"/>
      <point x="203" y="544"/>
      <point x="180" y="523"/>
      <point x="180" y="497" type="curve" smooth="yes"/>
      <point x="180" y="476"/>
      <point x="183" y="449"/>
      <point x="247" y="453" type="curve" smooth="yes"/>
      <point x="273" y="455"/>
      <point x="303" y="479"/>
    </contour>
  </outline>
</glyph>
<glyph name="kn_o" format="2">
  <advance width="828"/>
  <unicode hex="0C92"/>
  <outline>
    <contour>
      <point x="451" y="123" type="curve"/>
      <point x="405" y="48"/>
      <point x="322" y="0"/>
      <point x="219" y="0" type="curve" smooth="yes"/>
      <point x="78" y="0"/>
      <point x="23" y="168"/>
      <point x="187" y="286" type="curve" smooth="yes"/>
      <point x="231" y="317"/>
      <point x="322" y="397"/>
      <point x="321" y="469" type="curve" smooth="yes"/>
      <point x="319" y="630"/>
      <point x="59" y="569"/>
      <point x="109" y="408" type="curve" smooth="yes"/>
      <point x="120" y="373"/>
      <point x="127" y="344"/>
      <point x="95" y="351" type="curve" smooth="yes"/>
      <point x="41" y="363"/>
      <point x="34" y="440"/>
      <point x="45" y="489" type="curve" smooth="yes"/>
      <point x="63" y="570"/>
      <point x="141" y="620"/>
      <point x="227" y="619" type="curve" smooth="yes"/>
      <point x="342" y="617"/>
      <point x="403" y="525"/>
      <point x="383" y="448" type="curve" smooth="yes"/>
      <point x="350" y="316"/>
      <point x="82" y="224"/>
      <point x="179" y="123" type="curve" smooth="yes"/>
      <point x="188" y="113"/>
      <point x="203" y="107"/>
      <point x="220" y="103" type="curve" smooth="yes"/>
      <point x="339" y="76"/>
      <point x="437" y="168"/>
      <point x="437" y="264" type="curve" smooth="yes"/>
      <point x="437" y="285"/>
      <point x="469" y="283"/>
      <point x="469" y="262" type="curve" smooth="yes"/>
      <point x="469" y="234"/>
      <point x="500" y="100"/>
      <point x="597" y="100" type="curve" smooth="yes"/>
      <point x="720" y="100"/>
      <point x="760" y="225"/>
      <point x="708" y="332" type="curve" smooth="yes"/>
      <point x="693" y="361"/>
      <point x="663" y="405"/>
      <point x="624" y="405" type="curve" smooth="yes"/>
      <point x="587" y="405"/>
      <point x="606" y="443"/>
      <point x="636" y="443" type="curve" smooth="yes"/>
      <point x="699" y="443"/>
      <point x="736" y="397"/>
      <point x="761" y="344" type="curve" smooth="yes"/>
      <point x="824" y="212"/>
      <point x="772" y="0"/>
      <point x="612" y="0" type="curve" smooth="yes"/>
      <point x="522" y="0"/>
      <point x="475" y="47"/>
    </contour>
  </outline>
  <guideline angle="0" x="0" y="100"/>
</glyph>
<glyph name="kn_ma_i" format="2">
  <advance width="314"/>
  <unicode hex="0CBF"/>
  <outline>
    <contour>
      <point x="146.1" y="853.277" type="curve" smooth="yes"/>
      <point x="254.169" y="853.277"/>
      <point x="313.385" y="791.101"/>
      <point x="313.385" y="668.228" type="curve" smooth="yes"/>
      <point x="313.385" y="594.208"/>
      <point x="291.179" y="542.394"/>
      <point x="237.885" y="496.502" type="curve" smooth="yes"/>
      <point x="91.3254" y="372.149"/>
      <point x="45.4331" y="450.61"/>
      <point x="91.3254" y="468.374" type="curve" smooth="yes"/>
      <point x="200.875" y="511.306"/>
      <point x="254.169" y="603.09"/>
      <point x="230.483" y="583.845" type="curve" smooth="yes"/>
      <point x="153.502" y="518.708"/>
      <point x="17.3056" y="558.679"/>
      <point x="2.50161" y="672.669" type="curve" smooth="yes"/>
      <point x="-10.8219" y="777.777"/>
      <point x="55.7959" y="853.277"/>
    </contour>
    <contour>
      <point x="78.0018" y="683.032" type="curve" smooth="yes"/>
      <point x="83.9234" y="654.904"/>
      <point x="109.09" y="634.179"/>
      <point x="138.698" y="628.257" type="curve" smooth="yes"/>
      <point x="187.551" y="617.894"/>
      <point x="240.845" y="657.865"/>
      <point x="233.443" y="717.081" type="curve" smooth="yes"/>
      <point x="227.522" y="761.493"/>
      <point x="183.11" y="783.699"/>
      <point x="144.62" y="780.738" type="curve" smooth="yes"/>
      <point x="103.169" y="777.777"/>
      <point x="64.6782" y="745.208"/>
    </contour>
  </outline>
</glyph>
<glyph name="kn_ma_uu" format="2">
  <advance width="915"/>
  <unicode hex="0CC2"/>
  <outline>
    <contour>
      <point x="256.908" y="349.216" type="curve" smooth="yes"/>
      <point x="245.921" y="481.062"/>
      <point x="381.429" y="576.283"/>
      <point x="502.288" y="587.27" type="curve" smooth="yes"/>
      <point x="685.406" y="601.92"/>
      <point x="910.642" y="523.179"/>
      <point x="908.811" y="246.67" type="curve" smooth="yes"/>
      <point x="905.149" y="-59.1388"/>
      <point x="478.482" y="-108.581"/>
      <point x="451.014" y="213.708" type="curve" smooth="yes"/>
      <point x="441.858" y="323.579"/>
      <point x="518.768" y="363.866"/>
      <point x="590.185" y="352.878" type="curve" smooth="yes"/>
      <point x="711.043" y="334.567"/>
      <point x="736.68" y="184.409"/>
      <point x="639.627" y="166.097" type="curve" smooth="yes"/>
      <point x="577.366" y="153.279"/>
      <point x="526.093" y="204.552"/>
      <point x="529.755" y="151.448" type="curve" smooth="yes"/>
      <point x="542.574" y="8.61518"/>
      <point x="844.72" y="-0.540753"/>
      <point x="844.72" y="255.825" type="curve" smooth="yes"/>
      <point x="844.72" y="501.205"/>
      <point x="635.964" y="532.335"/>
      <point x="507.781" y="521.348" type="curve" smooth="yes"/>
      <point x="408.897" y="514.023"/>
      <point x="302.688" y="448.1"/>
      <point x="326.494" y="340.06" type="curve" smooth="yes"/>
      <point x="341.143" y="268.644"/>
      <point x="456.508" y="-55.4764"/>
      <point x="170.843" y="21.4335" type="curve" smooth="yes"/>
      <point x="106.751" y="37.9142"/>
      <point x="57.3091" y="74.5379"/>
      <point x="18.8541" y="118.486" type="curve" smooth="yes"/>
      <point x="-14.1073" y="155.11"/>
      <point x="0.542243" y="202.721"/>
      <point x="33.5036" y="182.578" type="curve" smooth="yes"/>
      <point x="90.2704" y="145.954"/>
      <point x="143.375" y="111.162"/>
      <point x="190.986" y="107.499" type="curve" smooth="yes"/>
      <point x="346.637" y="96.5122"/>
      <point x="264.233" y="263.15"/>
    </contour>
  </outline>
</glyph>
<glyph name="kn_ma_r" format="2">
  <advance width="527"/>
  <unicode hex="0CC3"/>
  <outline>
    <contour>
      <point x="5.936" y="179.665" type="curve" smooth="yes"/>
      <point x="-13.1996" y="190.102"/>
      <point x="-37.554" y="219.676"/>
      <point x="2.4568" y="219.676" type="curve" smooth="yes"/>
      <point x="103.354" y="219.676"/>
      <point x="364.294" y="89.2055"/>
      <point x="459.972" y="-37.7853" type="curve" smooth="yes"/>
      <point x="524.337" y="-124.765"/>
      <point x="526.077" y="-187.391"/>
      <point x="526.077" y="-208.266" type="curve" smooth="yes"/>
      <point x="526.077" y="-382.226"/>
      <point x="418.221" y="-490.082"/>
      <point x="256.439" y="-490.082" type="curve" smooth="yes"/>
      <point x="108.572" y="-490.082"/>
      <point x="-14.9392" y="-429.195"/>
      <point x="-18.4184" y="-276.111" type="curve" smooth="yes"/>
      <point x="-21.8976" y="-169.995"/>
      <point x="59.8636" y="-70.8377"/>
      <point x="176.417" y="-74.3169" type="curve" smooth="yes"/>
      <point x="282.533" y="-77.7961"/>
      <point x="322.543" y="-182.172"/>
      <point x="322.543" y="-236.1" type="curve" smooth="yes"/>
      <point x="322.543" y="-298.725"/>
      <point x="277.314" y="-366.57"/>
      <point x="199.032" y="-366.57" type="curve" smooth="yes"/>
      <point x="108.572" y="-366.57"/>
      <point x="66.822" y="-310.903"/>
      <point x="59.8636" y="-250.017" type="curve" smooth="yes"/>
      <point x="52.9052" y="-187.391"/>
      <point x="73.7804" y="-149.12"/>
      <point x="45.9468" y="-178.693" type="curve" smooth="yes"/>
      <point x="16.3736" y="-210.006"/>
      <point x="18.1132" y="-269.152"/>
      <point x="18.1132" y="-298.725" type="curve" smooth="yes"/>
      <point x="18.1132" y="-378.747"/>
      <point x="108.572" y="-453.55"/>
      <point x="199.032" y="-453.55" type="curve" smooth="yes"/>
      <point x="317.325" y="-453.55"/>
      <point x="418.221" y="-382.226"/>
      <point x="433.878" y="-288.288" type="curve" smooth="yes"/>
      <point x="458.232" y="-142.161"/>
      <point x="371.252" y="-37.7853"/>
      <point x="270.355" y="42.2363" type="curve" smooth="yes"/>
      <point x="214.688" y="87.4659"/>
      <point x="131.187" y="132.696"/>
      <point x="66.822" y="151.831" type="curve" smooth="yes"/>
      <point x="54.6448" y="155.31"/>
      <point x="26.8112" y="165.748"/>
    </contour>
    <contour>
      <point x="94.6556" y="-236.1" type="curve" smooth="yes"/>
      <point x="103.354" y="-267.413"/>
      <point x="131.187" y="-295.246"/>
      <point x="176.417" y="-295.246" type="curve" smooth="yes"/>
      <point x="233.824" y="-295.246"/>
      <point x="282.533" y="-256.975"/>
      <point x="263.397" y="-208.266" type="curve" smooth="yes"/>
      <point x="251.22" y="-175.214"/>
      <point x="214.688" y="-156.078"/>
      <point x="179.896" y="-156.078" type="curve" smooth="yes"/>
      <point x="136.406" y="-156.078"/>
      <point x="82.4784" y="-185.651"/>
    </contour>
  </outline>
</glyph>
<glyph name="kn_3" format="2">
  <advance width="498"/>
  <unicode hex="0CE9"/>
  <outline>
    <contour>
      <point x="58.3565" y="579.942" type="curve" smooth="yes"/>
      <point x="70.8405" y="660.394"/>
      <point x="169.325" y="689.523"/>
      <point x="240.068" y="689.523" type="curve" smooth="yes"/>
      <point x="342.714" y="689.523"/>
      <point x="457.844" y="646.523"/>
      <point x="457.844" y="525.845" type="curve" smooth="yes"/>
      <point x="457.844" y="395.456"/>
      <point x="323.294" y="380.198"/>
      <point x="349.649" y="362.166" type="curve" smooth="yes"/>
      <point x="381.553" y="339.972"/>
      <point x="457.844" y="288.649"/>
      <point x="457.844" y="198.487" type="curve" smooth="yes"/>
      <point x="457.844" y="62.5503"/>
      <point x="339.94" y="-1.25673"/>
      <point x="228.971" y="-1.25673" type="curve" smooth="yes"/>
      <point x="158.228" y="-1.25673"/>
      <point x="68.0663" y="48.6792"/>
      <point x="44.4854" y="120.809" type="curve" smooth="yes"/>
      <point x="23.6788" y="184.616"/>
      <point x="79.1632" y="259.52"/>
      <point x="131.873" y="183.229" type="curve" smooth="yes"/>
      <point x="158.228" y="145.777"/>
      <point x="162.39" y="77.8085"/>
      <point x="235.906" y="77.8085" type="curve" smooth="yes"/>
      <point x="301.101" y="77.8085"/>
      <point x="403.747" y="122.196"/>
      <point x="403.747" y="198.487" type="curve" smooth="yes"/>
      <point x="403.747" y="323.327"/>
      <point x="237.294" y="356.617"/>
      <point x="148.519" y="344.133" type="curve" smooth="yes"/>
      <point x="90.26" y="335.811"/>
      <point x="98.5827" y="385.747"/>
      <point x="134.647" y="407.94" type="curve" smooth="yes"/>
      <point x="199.842" y="449.554"/>
      <point x="385.714" y="380.198"/>
      <point x="385.714" y="543.877" type="curve" smooth="yes"/>
      <point x="385.714" y="621.555"/>
      <point x="323.294" y="635.426"/>
      <point x="258.1" y="635.426" type="curve" smooth="yes"/>
      <point x="179.035" y="635.426"/>
      <point x="161.003" y="554.974"/>
      <point x="116.615" y="521.683" type="curve" smooth="yes"/>
      <point x="65.2921" y="482.844"/>
      <point x="52.8081" y="538.328"/>
    </contour>
  </outline>
</glyph>
<glyph name="kn_4" format="2">
  <advance width="701"/>
  <unicode hex="0CEA"/>
  <outline>
    <contour>
      <point x="590.337" y="701.989" type="curve" smooth="yes"/>
      <point x="646.362" y="738.847"/>
      <point x="681.746" y="678.399"/>
      <point x="646.362" y="631.22" type="curve" smooth="yes"/>
      <point x="621.298" y="597.311"/>
      <point x="432.582" y="426.287"/>
      <point x="388.352" y="387.954" type="curve" smooth="yes"/>
      <point x="366.237" y="368.788"/>
      <point x="498.928" y="267.058"/>
      <point x="498.928" y="155.008" type="curve" smooth="yes"/>
      <point x="498.928" y="70.9708"/>
      <point x="413.416" y="-4.22057"/>
      <point x="333.802" y="-4.22057" type="curve" smooth="yes"/>
      <point x="254.187" y="-4.22057"/>
      <point x="183.419" y="76.8682"/>
      <point x="183.419" y="155.008" type="curve" smooth="yes"/>
      <point x="183.419" y="224.302"/>
      <point x="263.033" y="351.096"/>
      <point x="288.097" y="382.057" type="curve" smooth="yes"/>
      <point x="304.315" y="401.223"/>
      <point x="81.6893" y="532.44"/>
      <point x="49.2538" y="573.721" type="curve" smooth="yes"/>
      <point x="19.767" y="613.528"/>
      <point x="72.8432" y="663.656"/>
      <point x="106.753" y="632.695" type="curve" smooth="yes"/>
      <point x="162.778" y="579.618"/>
      <point x="285.148" y="470.517"/>
      <point x="341.173" y="417.441" type="curve" smooth="yes"/>
      <point x="358.865" y="401.223"/>
      <point x="500.402" y="644.489"/>
    </contour>
    <contour>
      <point x="248.29" y="174.175" type="curve" smooth="yes"/>
      <point x="243.867" y="113.727"/>
      <point x="268.931" y="66.5478"/>
      <point x="333.802" y="66.5478" type="curve" smooth="yes"/>
      <point x="386.878" y="66.5478"/>
      <point x="425.211" y="121.098"/>
      <point x="425.211" y="174.175" type="curve" smooth="yes"/>
      <point x="425.211" y="252.315"/>
      <point x="382.455" y="305.391"/>
      <point x="348.545" y="331.929" type="curve" smooth="yes"/>
      <point x="314.635" y="358.467"/>
      <point x="255.662" y="267.058"/>
    </contour>
  </outline>
</glyph>
<glyph name="kn_5" format="2">
  <advance width="822"/>
  <unicode hex="0CEB"/>
  <outline>
    <contour>
      <point x="629.813" y="376.23" type="curve" smooth="yes"/>
      <point x="675.714" y="390.2"/>
      <point x="723.61" y="418.14"/>
      <point x="723.61" y="472.024" type="curve" smooth="yes"/>
      <point x="723.61" y="537.882"/>
      <point x="701.658" y="569.813"/>
      <point x="635.8" y="559.834" type="curve" smooth="yes"/>
      <point x="583.912" y="551.851"/>
      <point x="555.972" y="487.989"/>
      <point x="545.994" y="434.105" type="curve" smooth="yes"/>
      <point x="538.011" y="390.2"/>
      <point x="569.942" y="356.273"/>
    </contour>
    <contour>
      <point x="565.95" y="304.385" type="curve" smooth="yes"/>
      <point x="565.95" y="182.648"/>
      <point x="565.95" y="58.915"/>
      <point x="565.95" y="-62.8224" type="curve" smooth="yes"/>
      <point x="565.95" y="-152.629"/>
      <point x="585.907" y="-132.672"/>
      <point x="659.748" y="-148.637" type="curve" smooth="yes"/>
      <point x="713.632" y="-160.611"/>
      <point x="739.576" y="-214.495"/>
      <point x="625.821" y="-214.495" type="curve" smooth="yes"/>
      <point x="577.925" y="-214.495"/>
      <point x="526.037" y="-206.512"/>
      <point x="520.05" y="-154.624" type="curve" smooth="yes"/>
      <point x="504.084" y="-0.95587"/>
      <point x="520.05" y="136.747"/>
      <point x="520.05" y="266.467" type="curve" smooth="yes"/>
      <point x="520.05" y="290.415"/>
      <point x="486.123" y="294.407"/>
      <point x="464.17" y="294.407" type="curve" smooth="yes"/>
      <point x="428.248" y="294.407"/>
      <point x="418.269" y="290.415"/>
      <point x="400.308" y="240.523" type="curve" smooth="yes"/>
      <point x="370.372" y="152.713"/>
      <point x="328.463" y="60.9107"/>
      <point x="212.713" y="60.9107" type="curve" smooth="yes"/>
      <point x="130.889" y="60.9107"/>
      <point x="94.9666" y="124.773"/>
      <point x="94.9666" y="198.614" type="curve" smooth="yes"/>
      <point x="94.9666" y="314.364"/>
      <point x="244.644" y="372.239"/>
      <point x="342.433" y="374.235" type="curve" smooth="yes"/>
      <point x="356.403" y="374.235"/>
      <point x="340.437" y="394.192"/>
      <point x="334.45" y="404.17" type="curve" smooth="yes"/>
      <point x="250.631" y="539.877"/>
      <point x="186.769" y="499.963"/>
      <point x="84.9882" y="559.834" type="curve" smooth="yes"/>
      <point x="57.0484" y="577.795"/>
      <point x="5.16038" y="679.576"/>
      <point x="77.0054" y="667.602" type="curve" smooth="yes"/>
      <point x="208.721" y="647.645"/>
      <point x="300.523" y="525.907"/>
      <point x="362.39" y="418.14" type="curve" smooth="yes"/>
      <point x="392.325" y="366.252"/>
      <point x="388.334" y="334.321"/>
      <point x="468.161" y="334.321" type="curve" smooth="yes"/>
      <point x="488.118" y="334.321"/>
      <point x="504.084" y="344.299"/>
      <point x="504.084" y="372.239" type="curve" smooth="yes"/>
      <point x="504.084" y="470.028"/>
      <point x="492.11" y="619.705"/>
      <point x="625.821" y="629.684" type="curve" smooth="yes"/>
      <point x="723.61" y="637.666"/>
      <point x="781.485" y="569.813"/>
      <point x="781.485" y="472.024" type="curve" smooth="yes"/>
      <point x="781.485" y="404.17"/>
      <point x="765.52" y="334.321"/>
      <point x="683.696" y="334.321" type="curve" smooth="yes"/>
      <point x="649.77" y="334.321"/>
      <point x="565.95" y="348.291"/>
    </contour>
    <contour>
      <point x="154.837" y="198.614" type="curve" smooth="yes"/>
      <point x="154.837" y="158.7"/>
      <point x="176.79" y="126.769"/>
      <point x="212.713" y="118.786" type="curve" smooth="yes"/>
      <point x="306.51" y="98.8288"/>
      <point x="358.398" y="194.622"/>
      <point x="358.398" y="282.433" type="curve" smooth="yes"/>
      <point x="358.398" y="322.347"/>
      <point x="320.48" y="316.36"/>
      <point x="292.54" y="316.36" type="curve" smooth="yes"/>
      <point x="226.682" y="316.36"/>
      <point x="154.837" y="270.459"/>
    </contour>
  </outline>
</glyph>
<glyph name="kn_9" format="2">
  <advance width="846"/>
  <unicode hex="0CEF"/>
  <outline>
    <contour>
      <point x="101.777" y="297.534" type="curve" smooth="yes"/>
      <point x="33.2893" y="322.972"/>
      <point x="-11.7167" y="528.435"/>
      <point x="158.523" y="540.175" type="curve" smooth="yes"/>
      <point x="348.331" y="553.873"/>
      <point x="542.053" y="559.743"/>
      <point x="733.818" y="559.743" type="curve" smooth="yes"/>
      <point x="827.743" y="559.743"/>
      <point x="831.657" y="463.861"/>
      <point x="733.818" y="459.947" type="curve" smooth="yes"/>
      <point x="559.664" y="454.077"/>
      <point x="387.467" y="452.12"/>
      <point x="209.4" y="454.077" type="curve" smooth="yes"/>
      <point x="99.8199" y="456.034"/>
      <point x="78.2953" y="358.194"/>
      <point x="205.486" y="336.67" type="curve" smooth="yes"/>
      <point x="272.017" y="324.929"/>
      <point x="320.936" y="328.843"/>
      <point x="430.516" y="332.756" type="curve" smooth="yes"/>
      <point x="481.393" y="334.713"/>
      <point x="500.96" y="234.917"/>
      <point x="432.473" y="231.004" type="curve" smooth="yes"/>
      <point x="334.634" y="227.09"/>
      <point x="268.103" y="238.831"/>
      <point x="174.178" y="238.831" type="curve" smooth="yes"/>
      <point x="127.215" y="238.831"/>
      <point x="109.604" y="197.738"/>
      <point x="123.301" y="156.646" type="curve" smooth="yes"/>
      <point x="148.739" y="74.461"/>
      <point x="303.325" y="72.5042"/>
      <point x="408.992" y="80.3313" type="curve" smooth="yes"/>
      <point x="453.998" y="84.2449"/>
      <point x="487.263" y="0.103238"/>
      <point x="393.337" y="0.103238" type="curve" smooth="yes"/>
      <point x="268.103" y="0.103238"/>
      <point x="43.0732" y="11.8439"/>
      <point x="46.9868" y="182.084" type="curve" smooth="yes"/>
      <point x="48.9436" y="248.615"/>
      <point x="129.172" y="287.75"/>
    </contour>
  </outline>
</glyph>
<glyph name="kn_arka_ottu" format="2">
  <advance width="727"/>
  <outline>
    <contour>
      <point x="11" y="400" type="curve" smooth="yes"/>
      <point x="13" y="495"/>
      <point x="121" y="507"/>
      <point x="194" y="507" type="curve" smooth="yes"/>
      <point x="304" y="507"/>
      <point x="504" y="515"/>
      <point x="663" y="504" type="curve" smooth="yes"/>
      <point x="734" y="499"/>
      <point x="707" y="441"/>
      <point x="663" y="439" type="curve" smooth="yes"/>
      <point x="503" y="430"/>
      <point x="317" y="446"/>
      <point x="151" y="449" type="curve" smooth="yes"/>
      <point x="121" y="449"/>
      <point x="75" y="439"/>
      <point x="84" y="397" type="curve" smooth="yes"/>
      <point x="90" y="370"/>
      <point x="114" y="341"/>
      <point x="143" y="330" type="curve" smooth="yes"/>
      <point x="204" y="307"/>
      <point x="302" y="315"/>
      <point x="361" y="311" type="curve" smooth="yes"/>
      <point x="410" y="307"/>
      <point x="414" y="234"/>
      <point x="378" y="234" type="curve" smooth="yes"/>
      <point x="341" y="234"/>
      <point x="302" y="240"/>
      <point x="264" y="240" type="curve" smooth="yes"/>
      <point x="220" y="240"/>
      <point x="89" y="261"/>
      <point x="89" y="195" type="curve" smooth="yes"/>
      <point x="89" y="115"/>
      <point x="264" y="124"/>
      <point x="350" y="118" type="curve" smooth="yes"/>
      <point x="419" y="113"/>
      <point x="405" y="41"/>
      <point x="330" y="41" type="curve" smooth="yes"/>
      <point x="248" y="41"/>
      <point x="34" y="45"/>
      <point x="22" y="170" type="curve" smooth="yes"/>
      <point x="14" y="253"/>
      <point x="55" y="272"/>
      <point x="122" y="287" type="curve" smooth="yes"/>
      <point x="163" y="296"/>
      <point x="9" y="312"/>
    </contour>
  </outline>
</glyph>
<glyph name="kn_b_ottu" format="2">
  <advance width="312"/>
  <outline>
    <contour>
      <point x="152.485" y="241.873" type="curve" smooth="yes"/>
      <point x="264.248" y="106.58"/>
      <point x="311.306" y="-4.20234"/>
      <point x="311.306" y="-176.749" type="curve" smooth="yes"/>
      <point x="307.385" y="-258.12"/>
      <point x="282.875" y="-345.374"/>
      <point x="180.916" y="-337.531" type="curve" smooth="yes"/>
      <point x="132.878" y="-333.61"/>
      <point x="101.505" y="-281.65"/>
      <point x="88.7605" y="-258.12" type="curve" smooth="yes"/>
      <point x="83.8586" y="-248.317"/>
      <point x="34.8396" y="-345.374"/>
      <point x="-24.9635" y="-345.374" type="curve" smooth="yes"/>
      <point x="-105.355" y="-345.374"/>
      <point x="-160.256" y="-239.493"/>
      <point x="-81.8255" y="-174.788" type="curve"/>
      <point x="-103.394" y="-174.788"/>
      <point x="-149.472" y="-175.769"/>
      <point x="-149.472" y="-113.024" type="curve" smooth="yes"/>
      <point x="-149.472" y="-24.7903"/>
      <point x="-60.2571" y="-10.0846"/>
      <point x="-17.1205" y="-22.8295" type="curve" smooth="yes"/>
      <point x="31.8985" y="-37.5352"/>
      <point x="57.3883" y="-76.7504"/>
      <point x="56.408" y="-123.809" type="curve" smooth="yes"/>
      <point x="54.4472" y="-200.278"/>
      <point x="-71.0413" y="-163.024"/>
      <point x="-81.8255" y="-236.552" type="curve" smooth="yes"/>
      <point x="-81.8255" y="-315.963"/>
      <point x="-10.2578" y="-317.924"/>
      <point x="33.8592" y="-273.807" type="curve" smooth="yes"/>
      <point x="45.6238" y="-263.022"/>
      <point x="60.3295" y="-243.415"/>
      <point x="54.4472" y="-225.768" type="curve" smooth="yes"/>
      <point x="51.5061" y="-217.925"/>
      <point x="88.7605" y="-152.24"/>
      <point x="93.6624" y="-175.769" type="curve" smooth="yes"/>
      <point x="98.5642" y="-200.278"/>
      <point x="98.5642" y="-210.082"/>
      <point x="98.5642" y="-226.748" type="curve" smooth="yes"/>
      <point x="98.5642" y="-255.179"/>
      <point x="154.446" y="-276.748"/>
      <point x="177.975" y="-276.748" type="curve" smooth="yes"/>
      <point x="255.425" y="-276.748"/>
      <point x="288.758" y="-242.434"/>
      <point x="288.758" y="-167.926" type="curve" smooth="yes"/>
      <point x="288.758" y="-10.0846"/>
      <point x="257.386" y="59.5223"/>
      <point x="125.034" y="191.873" type="curve" smooth="yes"/>
      <point x="109.348" y="207.559"/>
      <point x="126.015" y="268.343"/>
    </contour>
    <contour>
      <point x="-101.433" y="-108.122" type="curve" smooth="yes"/>
      <point x="-101.433" y="-121.848"/>
      <point x="-94.5704" y="-144.397"/>
      <point x="-74.9628" y="-151.259" type="curve" smooth="yes"/>
      <point x="-35.7476" y="-164.984"/>
      <point x="25.0358" y="-156.161"/>
      <point x="27.977" y="-113.024" type="curve" smooth="yes"/>
      <point x="29.9377" y="-82.6326"/>
      <point x="-9.27742" y="-64.9858"/>
      <point x="-26.9242" y="-64.0054" type="curve" smooth="yes"/>
      <point x="-60.2571" y="-62.0447"/>
      <point x="-101.433" y="-70.8681"/>
    </contour>
  </outline>
</glyph>
<glyph name="kn_bh_i" format="2">
  <advance width="852"/>
  <outline>
    <contour>
      <point x="594.362" y="845.545" type="curve" smooth="yes"/>
      <point x="690.838" y="845.545"/>
      <point x="759.622" y="790.161"/>
      <point x="759.622" y="680.285" type="curve" smooth="yes"/>
      <point x="759.622" y="614.181"/>
      <point x="720.317" y="450.707"/>
      <point x="596.148" y="465" type="curve" smooth="yes"/>
      <point x="509.498" y="474.826"/>
      <point x="506.818" y="565.942"/>
      <point x="566.669" y="567.729" type="curve" smooth="yes"/>
      <point x="637.24" y="569.516"/>
      <point x="658.679" y="588.275"/>
      <point x="676.545" y="604.354" type="curve" smooth="yes"/>
      <point x="681.905" y="609.714"/>
      <point x="672.079" y="607.034"/>
      <point x="669.399" y="605.248" type="curve" smooth="yes"/>
      <point x="596.148" y="554.33"/>
      <point x="480.019" y="582.915"/>
      <point x="466.62" y="684.751" type="curve" smooth="yes"/>
      <point x="455.007" y="778.548"/>
      <point x="513.965" y="845.545"/>
    </contour>
    <contour>
      <point x="533.617" y="693.684" type="curve" smooth="yes"/>
      <point x="538.977" y="668.672"/>
      <point x="561.31" y="649.913"/>
      <point x="588.109" y="644.553" type="curve" smooth="yes"/>
      <point x="631.88" y="635.62"/>
      <point x="678.332" y="671.352"/>
      <point x="672.079" y="724.056" type="curve" smooth="yes"/>
      <point x="666.719" y="763.362"/>
      <point x="627.414" y="783.907"/>
      <point x="593.468" y="781.228" type="curve" smooth="yes"/>
      <point x="555.95" y="778.548"/>
      <point x="522.004" y="749.069"/>
    </contour>
    <contour>
      <point x="334.412" y="-173.709" type="curve" smooth="yes"/>
      <point x="334.412" y="-152.27"/>
      <point x="381.756" y="96.9603"/>
      <point x="374.61" y="96.9603" type="curve" smooth="yes"/>
      <point x="359.424" y="96.9603"/>
      <point x="285.28" y="-14.7021"/>
      <point x="156.645" y="4.05717" type="curve" smooth="yes"/>
      <point x="2.99745" y="27.283"/>
      <point x="6.57065" y="233.635"/>
      <point x="140.566" y="305.099" type="curve" smooth="yes"/>
      <point x="212.029" y="342.618"/>
      <point x="332.625" y="362.27"/>
      <point x="354.957" y="450.707" type="curve" smooth="yes"/>
      <point x="374.61" y="526.637"/>
      <point x="299.573" y="571.302"/>
      <point x="245.975" y="564.156" type="curve" smooth="yes"/>
      <point x="209.35" y="559.689"/>
      <point x="156.645" y="526.637"/>
      <point x="156.645" y="462.32" type="curve" smooth="yes"/>
      <point x="156.645" y="395.322"/>
      <point x="128.059" y="387.283"/>
      <point x="100.367" y="405.149" type="curve" smooth="yes"/>
      <point x="69.1016" y="424.801"/>
      <point x="68.2083" y="474.826"/>
      <point x="69.9949" y="491.799" type="curve" smooth="yes"/>
      <point x="84.2877" y="595.421"/>
      <point x="160.218" y="621.327"/>
      <point x="246.868" y="621.327" type="curve" smooth="yes"/>
      <point x="371.037" y="621.327"/>
      <point x="440.714" y="495.372"/>
      <point x="398.729" y="406.042" type="curve" smooth="yes"/>
      <point x="361.21" y="324.752"/>
      <point x="242.402" y="294.379"/>
      <point x="203.097" y="279.193" type="curve" smooth="yes"/>
      <point x="100.367" y="238.995"/>
      <point x="111.98" y="131.799"/>
      <point x="171.831" y="89.8139" type="curve" smooth="yes"/>
      <point x="236.149" y="45.1489"/>
      <point x="363.89" y="146.092"/>
      <point x="371.037" y="185.397" type="curve" smooth="yes"/>
      <point x="378.183" y="224.702"/>
      <point x="440.714" y="242.568"/>
      <point x="445.181" y="172.891" type="curve" smooth="yes"/>
      <point x="447.861" y="126.439"/>
      <point x="524.684" y="101.427"/>
      <point x="570.243" y="101.427" type="curve" smooth="yes"/>
      <point x="829.299" y="101.427"/>
      <point x="754.262" y="444.454"/>
      <point x="532.724" y="472.146" type="curve" smooth="yes"/>
      <point x="507.712" y="474.826"/>
      <point x="502.352" y="486.439"/>
      <point x="503.245" y="501.625" type="curve" smooth="yes"/>
      <point x="504.138" y="527.531"/>
      <point x="500.565" y="569.516"/>
      <point x="532.724" y="569.516" type="curve" smooth="yes"/>
      <point x="646.173" y="569.516" type="line"/>
      <point x="646.173" y="536.464"/>
      <point x="646.173" y="515.024"/>
      <point x="646.173" y="469.466" type="curve"/>
      <point x="640.813" y="469.466"/>
      <point x="630.094" y="466.786"/>
      <point x="648.853" y="452.493" type="curve" smooth="yes"/>
      <point x="668.505" y="438.201"/>
      <point x="693.518" y="426.588"/>
      <point x="736.396" y="372.097" type="curve" smooth="yes"/>
      <point x="831.979" y="247.928"/>
      <point x="851.632" y="88.9206"/>
      <point x="707.811" y="28.1763" type="curve" smooth="yes"/>
      <point x="556.843" y="-36.1413"/>
      <point x="428.208" y="94.2804"/>
      <point x="421.062" y="96.9603" type="curve" smooth="yes"/>
      <point x="416.595" y="97.8536"/>
      <point x="451.434" y="-140.657"/>
      <point x="451.434" y="-173.709" type="curve" smooth="yes"/>
      <point x="451.434" y="-286.265"/>
      <point x="334.412" y="-258.573"/>
    </contour>
  </outline>
</glyph>
<glyph name="kn_bh_ottu" format="2">
  <advance width="320"/>
  <outline>
    <contour>
      <point x="122.077" y="215.187" type="curve" smooth="yes"/>
      <point x="122.077" y="245.379"/>
      <point x="137.83" y="228.314"/>
      <point x="150.956" y="217.812" type="curve" smooth="yes"/>
      <point x="294.039" y="97.0452"/>
      <point x="342.609" y="-72.2913"/>
      <point x="309.791" y="-232.439" type="curve" smooth="yes"/>
      <point x="297.977" y="-291.51"/>
      <point x="263.847" y="-345.33"/>
      <point x="196.9" y="-345.33" type="curve" smooth="yes"/>
      <point x="156.207" y="-345.33"/>
      <point x="127.328" y="-305.949"/>
      <point x="99.7617" y="-281.008" type="curve" smooth="yes"/>
      <point x="98.449" y="-279.696"/>
      <point x="94.511" y="-290.197"/>
      <point x="94.511" y="-291.51" type="curve" smooth="yes"/>
      <point x="82.6968" y="-332.203"/>
      <point x="72.1953" y="-476.599"/>
      <point x="68.2572" y="-485.787" type="curve" smooth="yes"/>
      <point x="60.3811" y="-501.54"/>
      <point x="30.1893" y="-477.911"/>
      <point x="30.1893" y="-466.097" type="curve" smooth="yes"/>
      <point x="30.1893" y="-407.026"/>
      <point x="76.1334" y="-359.77"/>
      <point x="76.1334" y="-300.699" type="curve" smooth="yes"/>
      <point x="76.1334" y="-294.135"/>
      <point x="74.8207" y="-275.758"/>
      <point x="70.8826" y="-281.008" type="curve" smooth="yes"/>
      <point x="51.1923" y="-304.637"/>
      <point x="-1.31512" y="-350.581"/>
      <point x="-59.0733" y="-345.33" type="curve" smooth="yes"/>
      <point x="-140.46" y="-337.454"/>
      <point x="-157.525" y="-219.312"/>
      <point x="-86.6397" y="-170.743" type="curve" smooth="yes"/>
      <point x="-82.7016" y="-168.117"/>
      <point x="-103.705" y="-165.492"/>
      <point x="-112.893" y="-162.867" type="curve" smooth="yes"/>
      <point x="-140.46" y="-156.303"/>
      <point x="-149.649" y="-123.486"/>
      <point x="-149.649" y="-101.17" type="curve" smooth="yes"/>
      <point x="-149.649" y="-43.4122"/>
      <point x="-84.0143" y="-13.2204"/>
      <point x="-34.1323" y="-13.2204" type="curve" smooth="yes"/>
      <point x="43.3162" y="-13.2204"/>
      <point x="89.2602" y="-90.6689"/>
      <point x="35.4401" y="-149.74" type="curve" smooth="yes"/>
      <point x="-1.31512" y="-189.12"/>
      <point x="-93.2031" y="-169.43"/>
      <point x="-93.2031" y="-239.002" type="curve" smooth="yes"/>
      <point x="-93.2031" y="-271.82"/>
      <point x="-57.7606" y="-300.699"/>
      <point x="-26.2562" y="-300.699" type="curve" smooth="yes"/>
      <point x="-2.6278" y="-300.699"/>
      <point x="40.6908" y="-283.634"/>
      <point x="55.1304" y="-248.191" type="curve" smooth="yes"/>
      <point x="60.3811" y="-236.377"/>
      <point x="57.7557" y="-236.377"/>
      <point x="53.8177" y="-228.501" type="curve" smooth="yes"/>
      <point x="47.2543" y="-215.374"/>
      <point x="87.9475" y="-179.932"/>
      <point x="91.8856" y="-191.746" type="curve" smooth="yes"/>
      <point x="99.7617" y="-212.749"/>
      <point x="102.387" y="-237.69"/>
      <point x="108.951" y="-248.191" type="curve" smooth="yes"/>
      <point x="127.328" y="-278.383"/>
      <point x="161.458" y="-286.259"/>
      <point x="194.275" y="-286.259" type="curve" smooth="yes"/>
      <point x="328.169" y="-286.259"/>
      <point x="300.603" y="-72.2913"/>
      <point x="265.16" y="20.9094" type="curve" smooth="yes"/>
      <point x="241.532" y="85.231"/>
      <point x="199.526" y="148.24"/>
      <point x="161.458" y="175.806" type="curve" smooth="yes"/>
      <point x="147.018" y="186.308"/>
      <point x="122.077" y="192.871"/>
    </contour>
    <contour>
      <point x="-103.705" y="-90.6689" type="curve" smooth="yes"/>
      <point x="-119.457" y="-115.61"/>
      <point x="-108.955" y="-160.241"/>
      <point x="-66.9494" y="-160.241" type="curve" smooth="yes"/>
      <point x="-34.1323" y="-160.241"/>
      <point x="32.8147" y="-137.926"/>
      <point x="32.8147" y="-98.545" type="curve" smooth="yes"/>
      <point x="32.8147" y="-72.2913"/>
      <point x="-0.00243282" y="-49.9757"/>
      <point x="-23.6308" y="-49.9757" type="curve" smooth="yes"/>
      <point x="-48.5718" y="-49.9757"/>
      <point x="-84.0143" y="-59.1645"/>
    </contour>
  </outline>
</glyph>
<glyph name="kn_bh_ottu2" format="2">
  <advance width="490"/>
  <outline>
    <contour>
      <point x="282.077" y="335.187" type="curve" smooth="yes"/>
      <point x="282.077" y="365.379"/>
      <point x="297.83" y="348.314"/>
      <point x="310.956" y="337.812" type="curve" smooth="yes"/>
      <point x="454.039" y="217.045"/>
      <point x="502.609" y="47.7087"/>
      <point x="469.791" y="-112.439" type="curve" smooth="yes"/>
      <point x="457.977" y="-171.51"/>
      <point x="423.847" y="-225.33"/>
      <point x="356.9" y="-225.33" type="curve" smooth="yes"/>
      <point x="316.207" y="-225.33"/>
      <point x="287.328" y="-185.949"/>
      <point x="259.762" y="-161.008" type="curve" smooth="yes"/>
      <point x="258.449" y="-159.696"/>
      <point x="254.511" y="-170.197"/>
      <point x="254.511" y="-171.51" type="curve" smooth="yes"/>
      <point x="242.697" y="-212.203"/>
      <point x="232.195" y="-356.599"/>
      <point x="228.257" y="-365.787" type="curve" smooth="yes"/>
      <point x="220.381" y="-381.54"/>
      <point x="190.189" y="-357.911"/>
      <point x="190.189" y="-346.097" type="curve" smooth="yes"/>
      <point x="190.189" y="-287.026"/>
      <point x="236.133" y="-239.77"/>
      <point x="236.133" y="-180.699" type="curve" smooth="yes"/>
      <point x="236.133" y="-174.135"/>
      <point x="234.821" y="-155.758"/>
      <point x="230.883" y="-161.008" type="curve" smooth="yes"/>
      <point x="211.192" y="-184.637"/>
      <point x="158.685" y="-230.581"/>
      <point x="100.927" y="-225.33" type="curve" smooth="yes"/>
      <point x="19.5402" y="-217.454"/>
      <point x="2.47525" y="-99.3121"/>
      <point x="73.3603" y="-50.7428" type="curve" smooth="yes"/>
      <point x="77.2984" y="-48.1174"/>
      <point x="56.2954" y="-45.492"/>
      <point x="47.1066" y="-42.8666" type="curve" smooth="yes"/>
      <point x="19.5402" y="-36.3032"/>
      <point x="10.3514" y="-3.48607"/>
      <point x="10.3514" y="18.8296" type="curve" smooth="yes"/>
      <point x="10.3514" y="76.5878"/>
      <point x="75.9857" y="106.78"/>
      <point x="125.868" y="106.78" type="curve" smooth="yes"/>
      <point x="203.316" y="106.78"/>
      <point x="249.26" y="29.3311"/>
      <point x="195.44" y="-29.7398" type="curve" smooth="yes"/>
      <point x="158.685" y="-69.1204"/>
      <point x="66.7969" y="-49.4301"/>
      <point x="66.7969" y="-119.002" type="curve" smooth="yes"/>
      <point x="66.7969" y="-151.82"/>
      <point x="102.239" y="-180.699"/>
      <point x="133.744" y="-180.699" type="curve" smooth="yes"/>
      <point x="157.372" y="-180.699"/>
      <point x="200.691" y="-163.634"/>
      <point x="215.13" y="-128.191" type="curve" smooth="yes"/>
      <point x="220.381" y="-116.377"/>
      <point x="217.756" y="-116.377"/>
      <point x="213.818" y="-108.501" type="curve" smooth="yes"/>
      <point x="207.254" y="-95.3741"/>
      <point x="247.948" y="-59.9316"/>
      <point x="251.886" y="-71.7457" type="curve" smooth="yes"/>
      <point x="259.762" y="-92.7487"/>
      <point x="262.387" y="-117.69"/>
      <point x="268.951" y="-128.191" type="curve" smooth="yes"/>
      <point x="287.328" y="-158.383"/>
      <point x="321.458" y="-166.259"/>
      <point x="354.275" y="-166.259" type="curve" smooth="yes"/>
      <point x="488.169" y="-166.259"/>
      <point x="460.603" y="47.7087"/>
      <point x="425.16" y="140.909" type="curve" smooth="yes"/>
      <point x="401.532" y="205.231"/>
      <point x="359.526" y="268.24"/>
      <point x="321.458" y="295.806" type="curve" smooth="yes"/>
      <point x="307.018" y="306.308"/>
      <point x="282.077" y="312.871"/>
    </contour>
    <contour>
      <point x="56.2954" y="29.3311" type="curve" smooth="yes"/>
      <point x="40.5431" y="4.39005"/>
      <point x="51.0446" y="-40.2413"/>
      <point x="93.0506" y="-40.2413" type="curve" smooth="yes"/>
      <point x="125.868" y="-40.2413"/>
      <point x="192.815" y="-17.9256"/>
      <point x="192.815" y="21.455" type="curve" smooth="yes"/>
      <point x="192.815" y="47.7087"/>
      <point x="159.998" y="70.0243"/>
      <point x="136.369" y="70.0243" type="curve" smooth="yes"/>
      <point x="111.428" y="70.0243"/>
      <point x="75.9857" y="60.8355"/>
    </contour>
  </outline>
</glyph>
<glyph name="kn_bh_v" format="2">
  <advance width="1056"/>
  <outline>
    <component base="kn_virama" xOffset="426" yOffset="143"/>
    <contour>
      <point x="334" y="-174" type="curve" smooth="yes"/>
      <point x="334" y="-152"/>
      <point x="382" y="97"/>
      <point x="375" y="97" type="curve" smooth="yes"/>
      <point x="359" y="97"/>
      <point x="285" y="-15"/>
      <point x="157" y="4" type="curve" smooth="yes"/>
      <point x="3" y="27"/>
      <point x="7" y="234"/>
      <point x="141" y="305" type="curve" smooth="yes"/>
      <point x="212" y="343"/>
      <point x="333" y="362"/>
      <point x="356" y="451" type="curve" smooth="yes"/>
      <point x="375" y="527"/>
      <point x="300" y="571"/>
      <point x="247" y="565" type="curve" smooth="yes"/>
      <point x="209" y="560"/>
      <point x="157" y="527"/>
      <point x="157" y="462" type="curve" smooth="yes"/>
      <point x="157" y="395"/>
      <point x="128" y="387"/>
      <point x="100" y="405" type="curve" smooth="yes"/>
      <point x="69" y="425"/>
      <point x="68" y="475"/>
      <point x="70" y="492" type="curve" smooth="yes"/>
      <point x="84" y="595"/>
      <point x="160" y="621"/>
      <point x="247" y="621" type="curve" smooth="yes"/>
      <point x="371" y="621"/>
      <point x="441" y="495"/>
      <point x="399" y="405" type="curve" smooth="yes"/>
      <point x="361" y="325"/>
      <point x="242" y="294"/>
      <point x="204" y="279" type="curve" smooth="yes"/>
      <point x="100" y="239"/>
      <point x="112" y="132"/>
      <point x="172" y="90" type="curve" smooth="yes"/>
      <point x="236" y="45"/>
      <point x="364" y="146"/>
      <point x="371" y="185" type="curve" smooth="yes"/>
      <point x="378" y="225"/>
      <point x="441" y="243"/>
      <point x="445" y="173" type="curve" smooth="yes"/>
      <point x="448" y="126"/>
      <point x="525" y="101"/>
      <point x="570" y="101" type="curve" smooth="yes"/>
      <point x="829" y="101"/>
      <point x="705" y="488"/>
      <point x="484" y="515" type="curve"/>
      <point x="551" y="517"/>
      <point x="587" y="501"/>
      <point x="620" y="502" type="curve"/>
      <point x="639" y="487"/>
      <point x="664" y="476"/>
      <point x="707" y="421" type="curve" smooth="yes"/>
      <point x="803" y="297"/>
      <point x="852" y="89"/>
      <point x="697" y="23" type="curve" smooth="yes"/>
      <point x="557" y="-36"/>
      <point x="428" y="94"/>
      <point x="421" y="97" type="curve" smooth="yes"/>
      <point x="417" y="98"/>
      <point x="451" y="-141"/>
      <point x="451" y="-174" type="curve" smooth="yes"/>
      <point x="451" y="-286"/>
      <point x="334" y="-259"/>
    </contour>
  </outline>
</glyph>
<glyph name="kn_c_e" format="2">
  <advance width="1021"/>
  <outline>
    <component base="kn_ma_e" xOffset="556" yOffset="111"/>
    <contour>
      <point x="68" y="412" type="curve" smooth="yes"/>
      <point x="0" y="504"/>
      <point x="72" y="577"/>
      <point x="125" y="601" type="curve" smooth="yes"/>
      <point x="227" y="646"/>
      <point x="328" y="614"/>
      <point x="375" y="512" type="curve" smooth="yes"/>
      <point x="401" y="454"/>
      <point x="396" y="408"/>
      <point x="368" y="377" type="curve" smooth="yes"/>
      <point x="318" y="320"/>
      <point x="80" y="259"/>
      <point x="154" y="138" type="curve" smooth="yes"/>
      <point x="208" y="49"/>
      <point x="377" y="89"/>
      <point x="426" y="183" type="curve" smooth="yes"/>
      <point x="431" y="192"/>
      <point x="436" y="248"/>
      <point x="455" y="248" type="curve" smooth="yes"/>
      <point x="476" y="248"/>
      <point x="483" y="133"/>
      <point x="559" y="100" type="curve" smooth="yes"/>
      <point x="713" y="34"/>
      <point x="807" y="189"/>
      <point x="784" y="269" type="curve" smooth="yes"/>
      <point x="755" y="369"/>
      <point x="537" y="351"/>
      <point x="504" y="351" type="curve" smooth="yes"/>
      <point x="487" y="351"/>
      <point x="487" y="438"/>
      <point x="510" y="438" type="curve" smooth="yes"/>
      <point x="544" y="438"/>
      <point x="639" y="438"/>
      <point x="661" y="438" type="curve" smooth="yes"/>
      <point x="705" y="438"/>
      <point x="715" y="641"/>
      <point x="641" y="641" type="curve" smooth="yes"/>
      <point x="576" y="641"/>
      <point x="86" y="641"/>
      <point x="59" y="641" type="curve" smooth="yes"/>
      <point x="-3" y="641"/>
      <point x="-3" y="741"/>
      <point x="59" y="741" type="curve" smooth="yes"/>
      <point x="67" y="741"/>
      <point x="608" y="741"/>
      <point x="656" y="741" type="curve" smooth="yes"/>
      <point x="689" y="741"/>
      <point x="719" y="741"/>
      <point x="744" y="741" type="curve"/>
      <point x="744" y="707"/>
      <point x="694" y="674"/>
      <point x="732" y="645" type="curve" smooth="yes"/>
      <point x="783" y="606"/>
      <point x="757" y="479"/>
      <point x="749" y="447" type="curve" smooth="yes"/>
      <point x="747" y="441"/>
      <point x="758" y="438"/>
      <point x="762" y="438" type="curve" smooth="yes"/>
      <point x="794" y="438"/>
      <point x="914" y="438"/>
      <point x="953" y="438" type="curve" smooth="yes"/>
      <point x="971" y="438"/>
      <point x="981" y="403"/>
      <point x="981" y="383" type="curve" smooth="yes"/>
      <point x="981" y="366"/>
      <point x="972" y="351"/>
      <point x="949" y="351" type="curve" smooth="yes"/>
      <point x="914" y="351"/>
      <point x="897" y="351"/>
      <point x="880" y="351" type="curve" smooth="yes"/>
      <point x="847" y="351"/>
      <point x="810" y="316"/>
      <point x="826" y="274" type="curve" smooth="yes"/>
      <point x="887" y="118"/>
      <point x="710" y="-55"/>
      <point x="580" y="-3" type="curve" smooth="yes"/>
      <point x="494" y="31"/>
      <point x="479" y="140"/>
      <point x="464" y="140" type="curve" smooth="yes"/>
      <point x="451" y="140"/>
      <point x="340" y="-55"/>
      <point x="178" y="11" type="curve" smooth="yes"/>
      <point x="85" y="49"/>
      <point x="59" y="109"/>
      <point x="59" y="187" type="curve" smooth="yes"/>
      <point x="59" y="361"/>
      <point x="344" y="347"/>
      <point x="349" y="460" type="curve" smooth="yes"/>
      <point x="352" y="530"/>
      <point x="249" y="553"/>
      <point x="196" y="540" type="curve" smooth="yes"/>
      <point x="176" y="535"/>
      <point x="106" y="517"/>
      <point x="119" y="440" type="curve" smooth="yes"/>
      <point x="124" y="410"/>
      <point x="148" y="403"/>
      <point x="148" y="389" type="curve" smooth="yes"/>
      <point x="148" y="351"/>
      <point x="106" y="361"/>
    </contour>
  </outline>
</glyph>
<glyph name="kn_c_ottu" format="2">
  <advance width="542"/>
  <outline>
    <contour>
      <point x="-149.568" y="-91.7907" type="curve" smooth="yes"/>
      <point x="-149.568" y="-42.2309"/>
      <point x="-103.748" y="-11.3728"/>
      <point x="-55.1236" y="-11.3728" type="curve" smooth="yes"/>
      <point x="9.39776" y="-11.3728"/>
      <point x="71.1138" y="-45.9712"/>
      <point x="71.1138" y="-114.233" type="curve" smooth="yes"/>
      <point x="71.1138" y="-265.718"/>
      <point x="-122.45" y="-204.937"/>
      <point x="-122.45" y="-295.641" type="curve" smooth="yes"/>
      <point x="-122.45" y="-381.669"/>
      <point x="44.9313" y="-391.02"/>
      <point x="95.4262" y="-331.174" type="curve" smooth="yes"/>
      <point x="112.258" y="-311.537"/>
      <point x="127.219" y="-251.691"/>
      <point x="132.83" y="-276.939" type="curve" smooth="yes"/>
      <point x="143.116" y="-319.953"/>
      <point x="165.558" y="-376.059"/>
      <point x="234.755" y="-376.059" type="curve" smooth="yes"/>
      <point x="287.12" y="-376.059"/>
      <point x="371.278" y="-334.915"/>
      <point x="361.927" y="-248.886" type="curve" smooth="yes"/>
      <point x="360.057" y="-228.314"/>
      <point x="346.966" y="-225.509"/>
      <point x="207.637" y="-225.509" type="curve" smooth="yes"/>
      <point x="173.039" y="-225.509"/>
      <point x="188" y="-165.663"/>
      <point x="234.755" y="-165.663" type="curve" smooth="yes"/>
      <point x="316.108" y="-165.663"/>
      <point x="452.631" y="-161.923"/>
      <point x="527.439" y="-161.923" type="curve" smooth="yes"/>
      <point x="546.141" y="-161.923"/>
      <point x="546.141" y="-225.509"/>
      <point x="528.374" y="-225.509" type="curve" smooth="yes"/>
      <point x="506.867" y="-225.509"/>
      <point x="447.956" y="-225.509"/>
      <point x="431.124" y="-225.509" type="curve" smooth="yes"/>
      <point x="418.033" y="-225.509"/>
      <point x="410.552" y="-227.379"/>
      <point x="408.682" y="-250.756" type="curve" smooth="yes"/>
      <point x="403.071" y="-339.59"/>
      <point x="382.499" y="-409.722"/>
      <point x="274.029" y="-415.333" type="curve" smooth="yes"/>
      <point x="197.351" y="-419.073"/>
      <point x="156.207" y="-394.761"/>
      <point x="131.895" y="-338.655" type="curve" smooth="yes"/>
      <point x="127.219" y="-329.304"/>
      <point x="88.8806" y="-426.554"/>
      <point x="-28.941" y="-419.073" type="curve" smooth="yes"/>
      <point x="-86.9167" y="-415.333"/>
      <point x="-145.827" y="-368.578"/>
      <point x="-145.827" y="-308.732" type="curve" smooth="yes"/>
      <point x="-145.827" y="-157.247"/>
      <point x="41.1909" y="-225.509"/>
      <point x="41.1909" y="-119.843" type="curve" smooth="yes"/>
      <point x="41.1909" y="-23.529"/>
      <point x="-109.359" y="-13.243"/>
      <point x="-109.359" y="-104.882" type="curve" smooth="yes"/>
      <point x="-109.359" y="-115.168"/>
      <point x="-99.0729" y="-121.714"/>
      <point x="-99.0729" y="-132" type="curve" smooth="yes"/>
      <point x="-99.0729" y="-153.507"/>
      <point x="-111.229" y="-164.728"/>
      <point x="-126.191" y="-155.377" type="curve" smooth="yes"/>
      <point x="-149.568" y="-140.416"/>
      <point x="-149.568" y="-107.687"/>
    </contour>
  </outline>
</glyph>
<glyph name="kn_ch.base" format="2">
  <advance width="869"/>
  <outline>
    <contour>
      <point x="57" y="538" type="curve" smooth="yes"/>
      <point x="20" y="538"/>
      <point x="46" y="638"/>
      <point x="122" y="638" type="curve" smooth="yes"/>
      <point x="298" y="638"/>
      <point x="430" y="638"/>
      <point x="606" y="638" type="curve" smooth="yes"/>
      <point x="619" y="638"/>
      <point x="631" y="638"/>
      <point x="642" y="638" type="curve"/>
      <point x="642" y="612"/>
      <point x="642" y="578"/>
      <point x="642" y="552" type="curve"/>
      <point x="605" y="552"/>
      <point x="629" y="538"/>
      <point x="660" y="511" type="curve" smooth="yes"/>
      <point x="850" y="345"/>
      <point x="880" y="19"/>
      <point x="677" y="12" type="curve" smooth="yes"/>
      <point x="574" y="8"/>
      <point x="503" y="151"/>
      <point x="482" y="147" type="curve" smooth="yes"/>
      <point x="475" y="146"/>
      <point x="477" y="136"/>
      <point x="477" y="113" type="curve" smooth="yes"/>
      <point x="478" y="54"/>
      <point x="500" y="35"/>
      <point x="516" y="3" type="curve" smooth="yes"/>
      <point x="530" y="-26"/>
      <point x="516" y="-65"/>
      <point x="492" y="-78" type="curve" smooth="yes"/>
      <point x="456" y="-97"/>
      <point x="394" y="-103"/>
      <point x="394" y="-35" type="curve" smooth="yes"/>
      <point x="394" y="5"/>
      <point x="446" y="109"/>
      <point x="446" y="131" type="curve" smooth="yes"/>
      <point x="446" y="147"/>
      <point x="442" y="154"/>
      <point x="429" y="138" type="curve" smooth="yes"/>
      <point x="393" y="95"/>
      <point x="320" y="-16"/>
      <point x="187" y="19" type="curve" smooth="yes"/>
      <point x="41" y="59"/>
      <point x="33" y="292"/>
      <point x="94" y="399" type="curve" smooth="yes"/>
      <point x="126" y="455"/>
      <point x="198" y="522"/>
      <point x="322" y="508" type="curve" smooth="yes"/>
      <point x="375" y="502"/>
      <point x="421" y="474"/>
      <point x="416" y="411" type="curve" smooth="yes"/>
      <point x="401" y="309"/>
      <point x="256" y="253"/>
      <point x="205" y="363" type="curve" smooth="yes"/>
      <point x="190" y="394"/>
      <point x="188" y="396"/>
      <point x="174" y="396" type="curve" smooth="yes"/>
      <point x="85" y="396"/>
      <point x="99" y="156"/>
      <point x="222" y="121" type="curve" smooth="yes"/>
      <point x="307" y="97"/>
      <point x="429" y="144"/>
      <point x="429" y="242" type="curve" smooth="yes"/>
      <point x="429" y="302"/>
      <point x="499" y="289"/>
      <point x="499" y="244" type="curve" smooth="yes"/>
      <point x="499" y="182"/>
      <point x="568" y="100"/>
      <point x="628" y="100" type="curve" smooth="yes"/>
      <point x="793" y="100"/>
      <point x="795" y="302"/>
      <point x="634" y="445" type="curve" smooth="yes"/>
      <point x="543" y="526"/>
      <point x="503" y="538"/>
      <point x="427" y="538" type="curve" smooth="yes"/>
      <point x="348" y="538"/>
      <point x="79" y="538"/>
    </contour>
    <contour>
      <point x="352" y="409" type="curve" smooth="yes"/>
      <point x="347" y="434"/>
      <point x="325" y="451"/>
      <point x="304" y="453" type="curve" smooth="yes"/>
      <point x="279" y="455"/>
      <point x="243" y="436"/>
      <point x="243" y="404" type="curve" smooth="yes"/>
      <point x="243" y="377"/>
      <point x="253" y="358"/>
      <point x="289" y="354" type="curve" smooth="yes"/>
      <point x="318" y="351"/>
      <point x="360" y="370"/>
    </contour>
  </outline>
</glyph>
<glyph name="kn_ch_ottu" format="2">
  <advance width="516"/>
  <outline>
    <contour>
      <point x="199" y="-187" type="curve" smooth="yes"/>
      <point x="207" y="-160"/>
      <point x="211" y="-138"/>
      <point x="218" y="-148" type="curve" smooth="yes"/>
      <point x="246" y="-187"/>
      <point x="257" y="-256"/>
      <point x="334" y="-258" type="curve" smooth="yes"/>
      <point x="407" y="-260"/>
      <point x="453" y="-212"/>
      <point x="453" y="-143" type="curve" smooth="yes"/>
      <point x="453" y="5"/>
      <point x="290" y="-6"/>
      <point x="277" y="52" type="curve" smooth="yes"/>
      <point x="274" y="65"/>
      <point x="283" y="74"/>
      <point x="296" y="71" type="curve" smooth="yes"/>
      <point x="369" y="57"/>
      <point x="502" y="-29"/>
      <point x="515" y="-141" type="curve" smooth="yes"/>
      <point x="524" y="-219"/>
      <point x="470" y="-299"/>
      <point x="380" y="-299" type="curve" smooth="yes"/>
      <point x="317" y="-299"/>
      <point x="263" y="-258"/>
      <point x="229" y="-218" type="curve" smooth="yes"/>
      <point x="225" y="-214"/>
      <point x="168" y="-312"/>
      <point x="74" y="-312" type="curve" smooth="yes"/>
      <point x="-34" y="-312"/>
      <point x="-89" y="-197"/>
      <point x="-78" y="-106" type="curve" smooth="yes"/>
      <point x="-65" y="5"/>
      <point x="76" y="104"/>
      <point x="139" y="71" type="curve" smooth="yes"/>
      <point x="168" y="56"/>
      <point x="190" y="21"/>
      <point x="190" y="-13" type="curve" smooth="yes"/>
      <point x="190" y="-57"/>
      <point x="152" y="-106"/>
      <point x="106" y="-106" type="curve" smooth="yes"/>
      <point x="20" y="-106"/>
      <point x="37" y="0"/>
      <point x="28" y="-2" type="curve" smooth="yes"/>
      <point x="-94" y="-37"/>
      <point x="-78" y="-264"/>
      <point x="70" y="-274" type="curve" smooth="yes"/>
      <point x="128" y="-278"/>
      <point x="185" y="-237"/>
    </contour>
    <contour>
      <point x="64" y="-13" type="curve" smooth="yes"/>
      <point x="64" y="-37"/>
      <point x="100" y="-47"/>
      <point x="128" y="-47" type="curve" smooth="yes"/>
      <point x="148" y="-47"/>
      <point x="165" y="-37"/>
      <point x="153" y="-11" type="curve" smooth="yes"/>
      <point x="145" y="7"/>
      <point x="93" y="15"/>
      <point x="77" y="5" type="curve" smooth="yes"/>
      <point x="70" y="1"/>
      <point x="64" y="-8"/>
    </contour>
    <contour>
      <point x="235" y="-257" type="curve" smooth="yes"/>
      <point x="252" y="-289"/>
      <point x="254" y="-362"/>
      <point x="252" y="-405" type="curve" smooth="yes"/>
      <point x="252" y="-425"/>
      <point x="252" y="-447"/>
      <point x="228" y="-447" type="curve" smooth="yes"/>
      <point x="206" y="-447"/>
      <point x="188" y="-438"/>
      <point x="191" y="-411" type="curve" smooth="yes"/>
      <point x="193" y="-383"/>
      <point x="227" y="-242"/>
    </contour>
  </outline>
</glyph>
